<svg width="48" height="48" viewBox="0 0 48 48" fill="none" xmlns="http://www.w3.org/2000/svg">
<path fill-rule="evenodd" clip-rule="evenodd" d="M0 24C0 10.7452 10.7452 0 24 0V0C37.2548 0 48 10.7452 48 24V24C48 37.2548 37.2548 48 24 48V48C10.7452 48 0 37.2548 0 24V24Z" fill="#E6552F"/>
<path fill-rule="evenodd" clip-rule="evenodd" d="M24 16H33C34.1 16 35 16.9 35 18V24C35 25.101 34.1 26 33 26H32V29L29 26H22V18C22 16.9 22.9 16 24 16ZM20.8 21V27.2V27.201H27.8C27.8672 27.2011 27.9343 27.1941 28 27.18V29C28 30.1 27.1 31 26 31H21L18 34V31H17C15.9 31 15 30.1 15 29V23C15 21.9 15.9 21 17 21H20.8Z" fill="white"/>
</svg>
