<svg width="50" height="50" viewBox="0 0 50 50" fill="none" xmlns="http://www.w3.org/2000/svg">
<path fill-rule="evenodd" clip-rule="evenodd" d="M1 25C1 11.7452 11.7452 1 25 1V1C38.2548 1 49 11.7452 49 25V25C49 38.2548 38.2548 49 25 49V49C11.7452 49 1 38.2548 1 25V25Z" fill="white" stroke="#EBEBEB"/>
<g clip-path="url(#clip0_4_14653)">
<path d="M25 44C35.4934 44 44 35.4934 44 25C44 14.5066 35.4934 6 25 6C14.5066 6 6 14.5066 6 25C6 35.4934 14.5066 44 25 44Z" fill="#4CC764"/>
<path d="M37.6706 23.8932C37.6706 18.217 31.9801 13.6 24.9869 13.6C17.9937 13.6 12.3032 18.2182 12.3032 23.8932C12.3032 28.9817 16.8157 33.2424 22.9112 34.0487C23.3244 34.1378 23.8861 34.3207 24.0286 34.6746C24.1568 34.9952 24.1117 35.4975 24.0702 35.8217C24.0702 35.8217 23.9217 36.7171 23.8897 36.9071C23.8338 37.2277 23.6343 38.1611 24.9881 37.5911C26.3418 37.0211 32.2924 33.2899 34.9536 30.2274C36.7918 28.211 37.673 26.1661 37.673 23.8944L37.6706 23.8932Z" fill="white"/>
<path d="M33.4514 27.1707C33.5856 27.1707 33.6937 27.0627 33.6937 26.9285V26.0284C33.6937 25.8954 33.5844 25.7861 33.4514 25.7861H31.0301V24.8516H33.4514C33.5856 24.8516 33.6937 24.7435 33.6937 24.6093V23.7104C33.6937 23.5774 33.5844 23.4681 33.4514 23.4681H31.0301V22.5336H33.4514C33.5856 22.5336 33.6937 22.4255 33.6937 22.2913V21.3924C33.6937 21.2594 33.5844 21.1501 33.4514 21.1501H29.8878C29.7536 21.1501 29.6455 21.2582 29.6455 21.3924V21.3971V26.9237V26.9285C29.6455 27.0627 29.7536 27.1707 29.8878 27.1707H33.4514Z" fill="#4CC764"/>
<path d="M20.2702 27.1707C20.4044 27.1707 20.5124 27.0627 20.5124 26.9285V26.0284C20.5124 25.8954 20.4032 25.7861 20.2702 25.7861H17.8489V21.3924C17.8489 21.2594 17.7396 21.1501 17.6066 21.1501H16.7065C16.5723 21.1501 16.4642 21.2582 16.4642 21.3924V26.9237V26.9285C16.4642 27.0627 16.5723 27.1707 16.7065 27.1707H20.2702Z" fill="#4CC764"/>
<path d="M22.4148 21.1501H21.5159C21.3821 21.1501 21.2736 21.2586 21.2736 21.3924V26.9273C21.2736 27.0611 21.3821 27.1696 21.5159 27.1696H22.4148C22.5486 27.1696 22.6571 27.0611 22.6571 26.9273V21.3924C22.6571 21.2586 22.5486 21.1501 22.4148 21.1501Z" fill="#4CC764"/>
<path d="M28.5387 21.1501H27.6386C27.5044 21.1501 27.3963 21.2582 27.3963 21.3924V24.6806L24.8634 21.2606C24.8575 21.2522 24.8503 21.2439 24.8444 21.2356C24.8444 21.2356 24.8444 21.2356 24.8432 21.2344C24.8385 21.2297 24.8337 21.2237 24.829 21.219C24.8278 21.2178 24.8254 21.2166 24.8242 21.2154C24.8195 21.2119 24.8159 21.2083 24.8111 21.2047C24.8088 21.2036 24.8064 21.2012 24.804 21.2C24.8005 21.1964 24.7957 21.1941 24.791 21.1917C24.7886 21.1905 24.7862 21.1881 24.7838 21.1869C24.7791 21.1846 24.7755 21.1822 24.7708 21.1798C24.7684 21.1786 24.766 21.1774 24.7636 21.1762C24.7589 21.1739 24.7541 21.1715 24.7494 21.1703C24.747 21.1703 24.7446 21.1679 24.7411 21.1679C24.7363 21.1667 24.7316 21.1644 24.7268 21.1632C24.7245 21.1632 24.7209 21.162 24.7185 21.1608C24.7138 21.1608 24.709 21.1584 24.7043 21.1572C24.7007 21.1572 24.6971 21.1572 24.6936 21.1561C24.6888 21.1561 24.6853 21.1549 24.6805 21.1549C24.6758 21.1549 24.6722 21.1549 24.6675 21.1549C24.6651 21.1549 24.6615 21.1549 24.6591 21.1549H23.765C23.6308 21.1549 23.5227 21.2629 23.5227 21.3971V26.9332C23.5227 27.0674 23.6308 27.1755 23.765 27.1755H24.6651C24.7993 27.1755 24.9073 27.0674 24.9073 26.9332V23.6462L27.4426 27.071C27.4605 27.0959 27.4818 27.1161 27.5056 27.1316C27.5056 27.1316 27.508 27.1327 27.508 27.1339C27.5127 27.1375 27.5175 27.1399 27.5234 27.1434C27.5258 27.1446 27.5281 27.1458 27.5305 27.147C27.5341 27.1494 27.5388 27.1506 27.5424 27.1529C27.546 27.1553 27.5507 27.1565 27.5543 27.1577C27.5566 27.1577 27.559 27.1601 27.5614 27.1601C27.5673 27.1624 27.5721 27.1636 27.578 27.1648C27.578 27.1648 27.5804 27.1648 27.5816 27.1648C27.6018 27.1696 27.6231 27.1731 27.6445 27.1731H28.5387C28.6729 27.1731 28.781 27.0651 28.781 26.9309V21.3947C28.781 21.2606 28.6729 21.1525 28.5387 21.1525V21.1501Z" fill="#4CC764"/>
</g>
<defs>
<clipPath id="clip0_4_14653">
<rect width="38" height="38" fill="white" transform="translate(6 6)"/>
</clipPath>
</defs>
</svg>
