<svg width="50" height="50" viewBox="0 0 50 50" fill="none" xmlns="http://www.w3.org/2000/svg">
<path fill-rule="evenodd" clip-rule="evenodd" d="M1 25C1 11.7452 11.7452 1 25 1V1C38.2548 1 49 11.7452 49 25V25C49 38.2548 38.2548 49 25 49V49C11.7452 49 1 38.2548 1 25V25Z" fill="white" stroke="#EBEBEB"/>
<g clip-path="url(#clip0_4_14654)">
<path d="M35 33.35V34C35 34.2652 34.8946 34.5196 34.7071 34.7071C34.5196 34.8946 34.2652 35 34 35H32C27.4913 35 23.1673 33.2089 19.9792 30.0208C16.7911 26.8327 15 22.5087 15 18V16C15 15.7348 15.1054 15.4804 15.2929 15.2929C15.4804 15.1054 15.7348 15 16 15H20C20.2652 15 20.5196 15.1054 20.7071 15.2929C20.8946 15.4804 21 15.7348 21 16V20C21 20.56 20.69 21.31 20.3 21.7L18.16 23.84C19.68 27.44 22.56 30.32 26.16 31.84L28.28 29.72C28.68 29.32 29.43 29.01 29.98 29.01H34C34.2635 29.0126 34.5153 29.1192 34.7007 29.3064C34.886 29.4937 34.99 29.7465 34.99 30.01V33.36L35 33.35Z" fill="#E6552F"/>
</g>
<defs>
<clipPath id="clip0_4_14654">
<rect width="20" height="20" fill="white" transform="translate(15 15)"/>
</clipPath>
</defs>
</svg>
