<svg width="48" height="48" viewBox="0 0 48 48" fill="none" xmlns="http://www.w3.org/2000/svg">
<path fill-rule="evenodd" clip-rule="evenodd" d="M0 24C0 10.7452 10.7452 0 24 0V0C37.2548 0 48 10.7452 48 24V24C48 37.2548 37.2548 48 24 48V48C10.7452 48 0 37.2548 0 24V24Z" fill="#E6552F"/>
<path d="M24 11C16.8319 11 11 16.8319 11 24C11 31.1681 16.8319 37 24 37C31.1681 37 37 31.1681 37 24C37 16.8319 31.1681 11 24 11ZM29.4144 28L28 29.4144L24 25.4144L20 29.4144L18.5856 28L22.5856 24L18.5856 20L20 18.5856L24 22.5856L28 18.5856L29.4144 20L25.4144 24L29.4144 28Z" fill="white"/>
</svg>
