<?xml version="1.0" standalone="no"?>
<!DOCTYPE svg PUBLIC "-//W3C//DTD SVG 1.1//EN" "http://www.w3.org/Graphics/SVG/1.1/DTD/svg11.dtd" >
<svg xmlns="http://www.w3.org/2000/svg" xmlns:xlink="http://www.w3.org/1999/xlink" version="1.1">
<metadata></metadata>
<defs>
<font id="tt_normsthin" horiz-adv-x="1228" >
<font-face units-per-em="2048" ascent="1638" descent="-410" />
<missing-glyph horiz-adv-x="368" />
<glyph unicode="&#xfb01;" horiz-adv-x="1024" d="M72 942v41h164v225q0 114 62 180t163 66q32 0 62.5 -8t45.5 -16l15 -7v-41q-51 31 -123 31q-86 0 -135.5 -53.5t-49.5 -151.5v-225h533v-983h-41v942h-492v-942h-40v942h-164zM748 1352q0 15 12.5 28t27.5 13t28 -13t13 -28t-13 -28t-28 -13t-27.5 13t-12.5 28z" />
<glyph unicode="&#xfb03;" horiz-adv-x="1556" d="M72 942v41h164v184q0 114 62 180t163 66q32 0 62.5 -7.5t45.5 -15.5l15 -8v-41q-51 31 -123 31q-86 0 -135.5 -53.5t-49.5 -151.5v-184h492v225q0 114 62 180t163 66q32 0 62.5 -8t45.5 -16l15 -7v-41q-51 31 -123 31q-86 0 -135 -53.5t-49 -151.5v-225h532v-983h-41v942 h-491v-942h-41v942h-492v-942h-40v942h-164zM1280 1352q0 15 13 28t28 13t28 -13t13 -28t-13 -28t-28 -13t-28 13t-13 28z" />
<glyph horiz-adv-x="0" />
<glyph horiz-adv-x="0" />
<glyph horiz-adv-x="682" />
<glyph unicode="&#xd;" horiz-adv-x="0" />
<glyph unicode=" "  horiz-adv-x="368" />
<glyph unicode="&#x09;" horiz-adv-x="368" />
<glyph unicode="&#xa0;" horiz-adv-x="368" />
<glyph unicode="!" horiz-adv-x="573" d="M246 41q0 15 13 28t28 13t28 -13t13 -28t-13 -28t-28 -13t-28 13t-13 28zM266 297v1137h41v-1137h-41z" />
<glyph unicode="&#x22;" horiz-adv-x="655" d="M164 1004v430h41v-430h-41zM451 1004v430h41v-430h-41z" />
<glyph unicode="#" horiz-adv-x="1433" d="M61 471l11 41h307l82 410h-318l11 41h317l92 471h41l-92 -471h512l92 471h41l-92 -471h307l-10 -41h-307l-82 -410h317l-10 -41h-317l-93 -471h-41l93 471h-512l-93 -471h-41l93 471h-308zM420 512h512l82 410h-512z" />
<glyph unicode="$" horiz-adv-x="1116" d="M102 184l31 31q5 -8 15 -21t46 -46.5t78 -59.5t112.5 -47t147.5 -21q186 0 303 103t117 246q0 72 -28 127.5t-75.5 91t-109 62.5t-129.5 48t-135.5 42.5t-129 50t-109 65.5t-75.5 95.5t-28 133.5q0 150 116 256t304 113v205h41v-205q69 -3 133.5 -22t107 -44t75.5 -49.5 t48 -41.5l15 -17l-31 -31q-5 7 -15.5 18t-46.5 39t-75.5 50t-102.5 39.5t-129 17.5q-179 0 -289 -96t-110 -232q0 -69 28 -121.5t75.5 -86t109 -59.5t129.5 -47t135.5 -42.5t129 -51t109 -68.5t75.5 -100t28 -140q0 -156 -115.5 -265t-304.5 -124v-205h-41v205 q-83 0 -158 21t-122.5 51t-83 60t-50.5 51z" />
<glyph unicode="%" horiz-adv-x="1556" d="M102 1137q0 136 86.5 226.5t210.5 90.5t210.5 -90.5t86.5 -226.5q0 -137 -86.5 -227.5t-210.5 -90.5t-210.5 90.5t-86.5 227.5zM143 1137q0 -121 73.5 -199t182.5 -78t182.5 78t73.5 199t-73.5 198.5t-182.5 77.5t-182.5 -77.5t-73.5 -198.5zM307 0l901 1434h41 l-901 -1434h-41zM860 297q0 136 86.5 226.5t210.5 90.5t210.5 -90.5t86.5 -226.5t-86.5 -226.5t-210.5 -90.5t-210.5 90.5t-86.5 226.5zM901 297q0 -121 73.5 -199t182.5 -78t182.5 78t73.5 199t-73.5 198.5t-182.5 77.5t-182.5 -77.5t-73.5 -198.5z" />
<glyph unicode="&#x26;" horiz-adv-x="1239" d="M143 328q0 50 16.5 100t42.5 89t58 75t63.5 62t57.5 45t43 29l16 9q-10 9 -25.5 25.5t-56 65.5t-71.5 96t-56.5 109t-25.5 114q0 130 86.5 218.5t210.5 88.5t210.5 -88.5t86.5 -218.5q0 -63 -31.5 -128.5t-77 -114t-90.5 -87.5t-76 -59l-32 -21l419 -501q5 7 13.5 20.5 t29.5 58.5t37 95t29.5 128t13.5 158h41q0 -86 -14.5 -168t-35.5 -138t-42.5 -99.5t-36.5 -64.5l-14 -21q5 -7 14 -18t35.5 -39t52.5 -50t60 -39.5t63 -17.5q14 0 29.5 2.5t24 5.5t8.5 4v-43q-29 -10 -62 -10q-34 0 -72 18t-68 43.5t-54.5 51t-38.5 43.5l-13 18 q-5 -8 -15 -21t-45.5 -46.5t-76.5 -59t-109.5 -46.5t-142.5 -21q-159 0 -269 104t-110 244zM184 328q0 -125 97 -216.5t241 -91.5q69 0 132.5 19t104.5 46t72.5 54.5t45.5 46.5l14 19l-430 512q-11 -7 -30 -19t-66.5 -52.5t-84 -83.5t-66.5 -107t-30 -127zM246 1147 q0 -46 23 -103t56 -105.5t66.5 -90.5t56.5 -66l23 -24q12 7 31 21t68.5 56.5t87.5 86t69 106t31 119.5q0 115 -74 190.5t-182 75.5t-182 -75.5t-74 -190.5z" />
<glyph unicode="'" horiz-adv-x="368" d="M164 1004v430h41v-430h-41z" />
<glyph unicode="(" horiz-adv-x="665" d="M164 512q0 117 20.5 233.5t53 208.5t71.5 177t78 146t71.5 106.5t53.5 68.5l20 23l31 -21q-7 -8 -20 -22.5t-50.5 -64t-71 -104t-75 -140t-71 -174t-50 -204.5t-20.5 -233t19.5 -232t51.5 -205.5t70 -173t76 -141.5t70 -103t52 -65l19 -22l-31 -21q-8 8 -21 23.5 t-51.5 67t-73 108t-77 144.5t-73 178.5t-51.5 207.5t-21 234z" />
<glyph unicode=")" horiz-adv-x="665" d="M102 -430q8 8 20.5 22.5t50 64t71.5 104t75.5 140t71 174t50 204.5t20.5 233t-20 232t-51.5 205.5t-69.5 173t-76.5 141.5t-70 103t-51.5 65l-20 22l31 21q8 -8 21 -23.5t51.5 -67t73.5 -108t77.5 -144.5t73 -178.5t51.5 -207.5t21 -234t-20.5 -233.5t-53 -208.5 t-71.5 -177t-78.5 -146t-72 -106.5t-52.5 -68.5l-21 -23z" />
<glyph unicode="*" horiz-adv-x="798" d="M102 1188l11 41l266 -82v287h41v-287l266 82l10 -41l-266 -82l174 -236l-31 -30l-174 235l-174 -235l-30 30l174 236z" />
<glyph unicode="+" horiz-adv-x="1024" d="M102 584v41h390v399h40v-399h390v-41h-390v-400h-40v400h-390z" />
<glyph unicode="," horiz-adv-x="358" d="M0 -236l164 318l51 -31l-195 -297z" />
<glyph unicode="-" horiz-adv-x="860" d="M102 584v41h656v-41h-656z" />
<glyph unicode="." horiz-adv-x="368" d="M143 41q0 15 13 28t28 13t28 -13t13 -28t-13 -28t-28 -13t-28 13t-13 28z" />
<glyph unicode="/" horiz-adv-x="839" d="M82 -430l635 1884h41l-635 -1884h-41z" />
<glyph unicode="0" horiz-adv-x="1351" d="M143 717q0 168 44.5 309t118.5 233.5t170 143.5t200 51t199.5 -51t170 -143.5t118.5 -233.5t44 -309t-44 -309t-118.5 -233.5t-170 -143.5t-199.5 -51t-200 51t-170 143.5t-118.5 233.5t-44.5 309zM184 717q0 -160 41 -293.5t109.5 -220.5t156.5 -135t185 -48t185 48 t156.5 135t109 220.5t40.5 293.5t-40.5 293.5t-109 220.5t-156.5 134.5t-185 47.5t-185 -47.5t-156.5 -134.5t-109.5 -220.5t-41 -293.5z" />
<glyph unicode="1" horiz-adv-x="665" d="M102 1167v41q57 6 108 31t82 57.5t54.5 63.5t33.5 52l9 22h31v-1434h-41v1341q-3 -6 -9 -15.5t-29.5 -36t-52.5 -48.5t-79 -43.5t-107 -30.5z" />
<glyph unicode="2" horiz-adv-x="1095" d="M102 0q0 104 46 195.5t119 160t161.5 132.5t177 126.5t161.5 126.5t119 147.5t46 176.5q0 142 -113.5 245t-286.5 103q-65 0 -120 -15t-91.5 -39.5t-66 -54t-46 -59t-27 -54t-13.5 -39.5l-4 -15l-41 10q1 6 4 17.5t16.5 43t31 60.5t50.5 64.5t73.5 61t101.5 43t132 17.5 q188 0 314.5 -116t126.5 -273q0 -77 -26.5 -146.5t-72.5 -124t-105 -105.5t-125.5 -97.5t-133.5 -92t-129.5 -95.5t-112.5 -103t-83.5 -119.5t-41.5 -140.5h830v-41h-871z" />
<glyph unicode="3" horiz-adv-x="1085" d="M82 184l31 31q3 -4 8 -11t22.5 -27.5t38 -38.5t54 -40.5t69.5 -39t85.5 -27.5t101.5 -11q180 0 294.5 104.5t114.5 254.5t-114 254t-295 104h-123v41h123q165 0 266.5 92t101.5 226t-101.5 225.5t-266.5 91.5q-63 0 -122 -17t-98.5 -41t-70 -48t-44.5 -41l-14 -17l-30 31 q5 7 15.5 19t47 42t77 52.5t105.5 41.5t134 19q181 0 295 -104t114 -254q0 -56 -16 -105t-41 -82.5t-55.5 -61t-61.5 -43.5t-56 -27t-41 -15l-16 -4q7 -1 18.5 -4t46 -16t65.5 -29.5t68.5 -47.5t65 -68t46 -93t18.5 -121q0 -165 -127.5 -282t-322.5 -117q-77 0 -148 21 t-116.5 51t-80 60t-49.5 51z" />
<glyph unicode="4" horiz-adv-x="1105" d="M41 348v51l747 1035h41v-1045h195v-41h-195v-348h-41v348h-747zM82 389h706v983z" />
<glyph unicode="5" horiz-adv-x="1177" d="M164 184l31 31q5 -8 14.5 -21t44.5 -46.5t75 -59.5t106 -47t138 -21q184 0 302 116t118 294q0 176 -114.5 293t-284.5 117q-66 0 -125 -20t-96.5 -49t-65 -57.5t-39.5 -48.5l-12 -20h-41l51 789h676v-41h-635l-51 -697q4 8 12.5 20t38.5 44t66 56.5t95.5 44.5t125.5 20 q185 0 312.5 -130t127.5 -321q0 -193 -131 -321.5t-330 -128.5q-77 0 -147.5 21t-116 51t-80 60t-49.5 51z" />
<glyph unicode="6" horiz-adv-x="1146" d="M123 430q0 73 23 147t46 112l23 38l451 707h51l-430 -656q4 4 12 11t35.5 25t58.5 31.5t79.5 24.5t100.5 11q192 0 321.5 -129.5t129.5 -321.5t-129.5 -321t-321.5 -129t-321 129t-129 321zM164 430q0 -177 116 -293.5t293 -116.5t293.5 116.5t116.5 293.5t-116.5 293.5 t-293.5 116.5t-293 -116.5t-116 -293.5z" />
<glyph unicode="7" horiz-adv-x="931" d="M41 1393v41h850v-41l-676 -1393h-41l676 1393h-809z" />
<glyph unicode="8" horiz-adv-x="1167" d="M143 389q0 67 18 124.5t47 96t64 70t70 49t64 29.5t47 16l18 4q-11 3 -29 8.5t-63.5 30.5t-81 58.5t-64 95t-28.5 135.5q0 140 110 244t269 104t269 -104t110 -244q0 -54 -14.5 -101.5t-38.5 -80t-52 -59t-56.5 -42.5t-52.5 -26.5t-39 -14.5l-14 -4q7 -1 18.5 -4t46 -16 t65.5 -30t68.5 -48.5t65 -70t46 -96t18.5 -124.5q0 -171 -125 -290t-315 -119t-315.5 119t-125.5 290zM184 389q0 -156 112.5 -262.5t287.5 -106.5t287 106.5t112 262.5t-112 262.5t-287 106.5t-287.5 -106.5t-112.5 -262.5zM246 1106q0 -125 97 -216t241 -91t241 91t97 216 t-97 216t-241 91t-241 -91t-97 -216z" />
<glyph unicode="9" horiz-adv-x="1146" d="M123 1004q0 192 129 321t321 129t321.5 -129t129.5 -321q0 -73 -23 -147t-46 -112l-23 -38l-451 -707h-51l430 655q-4 -4 -12 -11t-36 -24.5t-58.5 -31t-79.5 -24.5t-101 -11q-192 0 -321 129.5t-129 321.5zM164 1004q0 -177 116 -293.5t293 -116.5t293.5 116.5 t116.5 293.5t-116.5 293t-293.5 116t-293 -116t-116 -293z" />
<glyph unicode=":" horiz-adv-x="368" d="M143 41q0 15 13 28t28 13t28 -13t13 -28t-13 -28t-28 -13t-28 13t-13 28zM143 942q0 15 13 28t28 13t28 -13t13 -28t-13 -28t-28 -13t-28 13t-13 28z" />
<glyph unicode=";" horiz-adv-x="368" d="M0 -236l164 318l51 -31l-195 -297zM143 942q0 15 13 28t28 13t28 -13t13 -28t-13 -28t-28 -13t-28 13t-13 28z" />
<glyph unicode="&#x3c;" horiz-adv-x="1003" d="M123 481v41l758 410v-41l-727 -389l727 -389v-41z" />
<glyph unicode="=" horiz-adv-x="1024" d="M123 410v41h778v-41h-778zM123 758v41h778v-41h-778z" />
<glyph unicode="&#x3e;" horiz-adv-x="1003" d="M123 72v41l727 389l-727 389v41l758 -410v-41z" />
<glyph unicode="?" horiz-adv-x="1034" d="M102 1147q1 6 4 17.5t16.5 43t31 60.5t51 64.5t74 61t101.5 43t132 17.5q180 0 300 -109.5t120 -259.5q0 -70 -23 -130t-60 -103.5t-82 -83t-90 -78t-82 -80t-60 -98.5t-23 -123v-92h-41v92q0 70 23 130t60 103.5t82 83t90 78t82 80t60 98.5t23 123q0 134 -107 231 t-272 97q-65 0 -120 -15t-92 -39.5t-66 -54t-45.5 -59t-27.5 -54t-15 -39.5l-3 -15zM451 41q0 15 13 28t28 13t27.5 -13t12.5 -28t-12.5 -28t-27.5 -13t-28 13t-13 28z" />
<glyph unicode="@" horiz-adv-x="1802" d="M143 512q0 154 63 298t166 249t242.5 168t286.5 63q154 0 295 -59.5t242 -159t161 -235.5t60 -283q0 -209 -79 -319.5t-187 -110.5q-38 0 -70 12.5t-53.5 32.5t-38.5 44t-26.5 47.5t-16 43.5t-8.5 33l-2 12q-3 -9 -10 -24t-32.5 -54t-56.5 -68.5t-84.5 -54t-113.5 -24.5 q-134 0 -231 107t-97 272t97 272t231 107q42 0 80.5 -11.5t66 -29.5t51.5 -40t40 -43.5t27 -39.5t16 -29l5 -12v194h41v-440q0 -132 52 -199t133 -67q94 0 159.5 97.5t65.5 291.5q0 140 -56.5 268.5t-152 222t-228.5 149.5t-280 56q-140 0 -271.5 -59.5t-229.5 -158.5 t-157 -236t-59 -283t59 -283t157 -236t229.5 -158.5t271.5 -59.5q74 0 147 16t123.5 38t90.5 44.5t60 38.5l19 16l21 -30q-7 -7 -20.5 -18t-59 -39t-95.5 -50t-128 -39.5t-158 -17.5q-147 0 -286.5 63t-242.5 168t-166 249t-63 298zM594 502q0 -150 84 -244t203 -94 t202.5 94t83.5 244t-83.5 244t-202.5 94t-203 -94t-84 -244z" />
<glyph unicode="A" horiz-adv-x="1351" d="M61 0l594 1434h41l594 -1434h-41l-184 451h-778l-185 -451h-41zM307 492h737l-368 890z" />
<glyph unicode="B" horiz-adv-x="1341" d="M246 0v1434h502q175 0 276.5 -96.5t101.5 -252.5q0 -54 -13 -101t-33.5 -78.5t-46 -57t-50.5 -40t-45.5 -24t-33.5 -12.5l-13 -4v-10q6 -1 17.5 -3t43 -13t60.5 -26t64.5 -44.5t61 -66t43 -93t17.5 -123.5q0 -171 -115 -280t-305 -109h-532zM287 41h491q175 0 277 96 t102 252t-102 252t-277 96h-491v-696zM287 778h461q159 0 248 83.5t89 223.5t-89 224t-248 84h-461v-615z" />
<glyph unicode="C" horiz-adv-x="1525" d="M123 717q0 151 57.5 288t154.5 235t229 156t276 58q79 0 154.5 -17.5t132 -45.5t106 -61.5t83.5 -67.5t59 -62t37 -46l11 -17l-30 -21q-4 6 -11.5 17t-33.5 41.5t-56 58.5t-79 62.5t-102 59t-124.5 41.5t-146.5 17q-136 0 -261 -54.5t-216 -147t-145 -222t-54 -272.5 q0 -191 91.5 -351.5t247 -253t337.5 -92.5q75 0 146.5 16.5t125 42.5t101 57.5t79.5 63.5t55.5 58t34.5 42l11 17l30 -20q-4 -7 -12 -18t-35.5 -44t-59.5 -63t-83.5 -66.5t-107 -63t-131 -44.5t-154.5 -18q-144 0 -276 58t-229 156t-154.5 235t-57.5 288z" />
<glyph unicode="D" horiz-adv-x="1495" d="M246 0v1434h379q162 0 302 -54.5t237 -150t152.5 -228t55.5 -284.5t-55.5 -284.5t-152.5 -228t-237 -150t-302 -54.5h-379zM287 41h338q155 0 287 51t224 140.5t143.5 215t51.5 269.5t-51.5 269.5t-143.5 215t-224 140.5t-287 51h-338v-1352z" />
<glyph unicode="E" horiz-adv-x="1280" d="M246 0v1434h932v-41h-891v-625h727v-41h-727v-686h911v-41h-952z" />
<glyph unicode="F" d="M246 0v1434h921v-41h-880v-645h717v-41h-717v-707h-41z" />
<glyph unicode="G" horiz-adv-x="1597" d="M123 717q0 151 57.5 288t154.5 235t229 156t276 58q79 0 154.5 -17.5t132 -45.5t106 -61.5t83.5 -67.5t59 -62t37 -46l11 -17l-30 -21q-4 6 -11.5 17t-33.5 41.5t-56 58.5t-79 62.5t-102 59t-124.5 41.5t-146.5 17q-136 0 -261 -54.5t-216 -147t-145 -222t-54 -272.5 q0 -191 91.5 -351.5t247 -253t337.5 -92.5q75 0 146.5 16.5t125 42.5t101 57.5t79.5 63.5t55.5 58t34.5 42l11 17v338h-420v41h461v-389q-4 -7 -12.5 -18.5t-37.5 -45.5t-61.5 -65t-85.5 -69t-109.5 -65t-132.5 -45.5t-155 -18.5q-144 0 -276 58t-229 156t-154.5 235 t-57.5 288z" />
<glyph unicode="H" horiz-adv-x="1525" d="M246 0v1434h41v-686h952v686h41v-1434h-41v707h-952v-707h-41z" />
<glyph unicode="I" horiz-adv-x="532" d="M246 0v1434h41v-1434h-41z" />
<glyph unicode="J" horiz-adv-x="983" d="M20 123l31 31q4 -5 12 -14.5t36 -32.5t60 -40.5t83 -32t106 -14.5q155 0 262 111.5t107 278.5v1024h41v-1024q0 -183 -120 -306.5t-290 -123.5q-60 0 -116 14.5t-93 35.5t-65 42.5t-41 35.5z" />
<glyph unicode="K" horiz-adv-x="1310" d="M246 0v1434h41v-973l880 973h52l-543 -605l594 -829h-51l-564 799h-10l-358 -389v-410h-41z" />
<glyph unicode="L" horiz-adv-x="1126" d="M246 0v1434h41v-1393h798v-41h-839z" />
<glyph unicode="M" horiz-adv-x="1863" d="M246 0v1434h30l656 -912l655 912h31v-1434h-41v1352l-645 -901l-645 901v-1352h-41z" />
<glyph unicode="N" horiz-adv-x="1587" d="M246 0v1434h30l1024 -1352v1352h41v-1434h-30l-1024 1352v-1352h-41z" />
<glyph unicode="O" horiz-adv-x="1679" d="M123 717q0 151 57.5 288t154.5 235t229 156t276 58q192 0 356.5 -98t262 -268t97.5 -371t-97.5 -371t-262 -268t-356.5 -98q-144 0 -276 58t-229 156t-154.5 235t-57.5 288zM164 717q0 -191 91.5 -351.5t247 -253t337.5 -92.5t337.5 92.5t247 253t91.5 351.5 q0 143 -54 272.5t-145 222t-216 147t-261 54.5t-261 -54.5t-216 -147t-145 -222t-54 -272.5z" />
<glyph unicode="P" horiz-adv-x="1300" d="M246 0v1434h481q197 0 324 -120.5t127 -299.5t-127 -299.5t-324 -120.5h-440v-594h-41zM287 635h440q182 0 296 108t114 271t-114 271t-296 108h-440v-758z" />
<glyph unicode="Q" horiz-adv-x="1679" d="M123 717q0 151 57.5 288t154.5 235t229 156t276 58q192 0 356.5 -98t262 -268t97.5 -371q0 -82 -15.5 -158t-41.5 -135t-59.5 -112t-71 -92t-75 -71.5t-71 -53.5t-59.5 -36t-41 -21l-16 -7q2 -6 6.5 -16t21 -38.5t37 -55t55.5 -58.5t74.5 -54.5t96 -38.5t119.5 -16 q32 0 65 2.5t51 5.5l17 2v-40q-61 -11 -133 -11q-95 0 -175.5 31.5t-128.5 76t-82 89.5t-48 76l-13 32q-106 -38 -229 -38q-144 0 -276 58t-229 156t-154.5 235t-57.5 288zM164 717q0 -191 91.5 -351.5t247 -253t337.5 -92.5t337.5 92.5t247 253t91.5 351.5q0 143 -54 272.5 t-145 222t-216 147t-261 54.5t-261 -54.5t-216 -147t-145 -222t-54 -272.5z" />
<glyph unicode="R" horiz-adv-x="1341" d="M246 0v1434h512q190 0 310 -114.5t120 -285.5q0 -69 -18.5 -127.5t-48.5 -97.5t-66 -70t-72 -48t-66 -28t-49 -15l-18 -3l369 -645h-52l-348 635h-532v-635h-41zM287 676h471q175 0 282 101t107 257t-107 257.5t-282 101.5h-471v-717z" />
<glyph unicode="S" horiz-adv-x="1116" d="M102 184l31 31q5 -8 15 -21t46 -46.5t78 -59.5t112.5 -47t147.5 -21q186 0 303 103t117 246q0 72 -28 127.5t-75.5 91t-109 62.5t-129.5 48t-135.5 42.5t-129 50t-109 65.5t-75.5 95.5t-28 133.5q0 151 123 260t317 109q72 0 139.5 -18t112.5 -43.5t80 -51t51 -43.5 l17 -18l-31 -31q-5 7 -15.5 18t-46.5 39t-75.5 50t-102.5 39.5t-129 17.5q-179 0 -289 -96t-110 -232q0 -69 28 -121.5t75.5 -86t109 -59.5t129.5 -47t135.5 -42.5t129 -51t109 -68.5t75.5 -100t28 -140q0 -159 -130 -274t-331 -115q-83 0 -158 21t-122.5 51t-83 60 t-50.5 51z" />
<glyph unicode="T" horiz-adv-x="1105" d="M41 1393v41h1024v-41h-492v-1393h-41v1393h-491z" />
<glyph unicode="U" horiz-adv-x="1536" d="M225 543v891h41v-891q0 -109 40 -206.5t107.5 -166.5t160 -109.5t194.5 -40.5t194.5 40.5t160 109.5t107.5 166.5t40 206.5v891h41v-891q0 -155 -73.5 -285t-198 -204t-271.5 -74t-271.5 74t-198 204t-73.5 285z" />
<glyph unicode="V" horiz-adv-x="1290" d="M61 1434h41l543 -1383l543 1383h41l-563 -1434h-41z" />
<glyph unicode="W" horiz-adv-x="1986" d="M61 1434h41l441 -1373l440 1373h21l440 -1373l440 1373h41l-461 -1434h-41l-430 1341l-430 -1341h-41z" />
<glyph unicode="X" d="M61 0l533 737l-502 697h51l471 -666l471 666h52l-502 -697l532 -737h-51l-502 707l-501 -707h-52z" />
<glyph unicode="Y" d="M61 1434h52l501 -891l502 891h51l-532 -932v-502h-41v502z" />
<glyph unicode="Z" horiz-adv-x="1146" d="M82 0v31l911 1362h-880v41h931v-31l-911 -1362h932v-41h-983z" />
<glyph unicode="[" horiz-adv-x="706" d="M246 -430v1884h358v-41h-317v-1802h317v-41h-358z" />
<glyph unicode="\" horiz-adv-x="839" d="M82 1454h41l635 -1884h-41z" />
<glyph unicode="]" horiz-adv-x="706" d="M102 -389h318v1802h-318v41h359v-1884h-359v41z" />
<glyph unicode="^" horiz-adv-x="778" d="M123 881l246 553h41l245 -553h-41l-225 512l-225 -512h-41z" />
<glyph unicode="_" horiz-adv-x="634" d="M-20 -256h675v-41h-675v41z" />
<glyph unicode="`" horiz-adv-x="327" d="M61 1413h52l153 -246h-41z" />
<glyph unicode="a" horiz-adv-x="1013" d="M82 256q0 107 74.5 179t212.5 97l409 72v31q0 145 -87.5 236.5t-219.5 91.5q-55 0 -105.5 -16t-84 -38.5t-59 -45t-36.5 -38.5l-12 -16l-31 31q5 7 13.5 18t40 39t66.5 50t91.5 39.5t116.5 17.5q148 0 248 -104.5t100 -264.5v-635h-41v236q-3 -10 -10.5 -27.5t-37 -61.5 t-67 -78t-105.5 -61.5t-148 -27.5q-142 0 -235 82.5t-93 193.5zM123 256q0 -96 80.5 -166t206.5 -70q155 0 261.5 111.5t106.5 278.5v153l-409 -71q-122 -22 -184 -82.5t-62 -153.5z" />
<glyph unicode="b" d="M195 0v1434h41v-738q3 6 8 17.5t23 43.5t39.5 61t57 64.5t75 61t93.5 43t113 17.5q84 0 165.5 -40t144.5 -107.5t102 -164t39 -200.5t-39 -200.5t-102 -164t-144.5 -107.5t-165.5 -40q-59 0 -113 17t-94 44t-74.5 59.5t-57 65.5t-39 60t-23.5 44l-8 17v-287h-41zM236 492 q0 -97 35 -185.5t92.5 -150.5t131.5 -99t150 -37t150.5 37t131.5 99t92.5 150.5t35.5 185.5q0 129 -59.5 238.5t-154 171t-196.5 61.5t-196 -61.5t-153.5 -171t-59.5 -238.5z" />
<glyph unicode="c" horiz-adv-x="1064" d="M113 492q0 140 66 258.5t174.5 186t230.5 67.5q69 0 132 -21t104 -51t72.5 -60.5t45.5 -51.5l14 -21l-30 -21q-2 4 -6.5 10.5t-21 26t-35 37t-48 38.5t-62 36.5t-76 26t-89.5 10.5q-112 0 -210.5 -61.5t-159 -171t-60.5 -238.5q0 -97 35.5 -185.5t94.5 -150.5t138 -99 t162 -37q63 0 121 19t95.5 46t66.5 54.5t42 46.5l13 19l30 -21q-5 -8 -14.5 -22t-44 -49t-73.5 -62t-103 -49t-133 -22q-122 0 -230.5 67.5t-174.5 186t-66 258.5z" />
<glyph unicode="d" d="M113 492q0 105 39 201t101.5 163.5t144 107.5t165.5 40q59 0 113 -17t94 -44t74.5 -60t57.5 -66t39.5 -60t24.5 -44l7 -17v738h41v-1434h-41v287q-3 -6 -8 -17.5t-23.5 -43t-39.5 -60.5t-57 -64.5t-75 -61t-93.5 -43t-113.5 -17.5q-84 0 -165.5 40t-144 107.5 t-101.5 163.5t-39 201zM154 492q0 -97 35 -185.5t92.5 -150.5t131.5 -99t150 -37t150.5 37t131.5 99t92.5 150.5t35.5 185.5q0 129 -59.5 238.5t-154 171t-196.5 61.5t-196 -61.5t-153.5 -171t-59.5 -238.5z" />
<glyph unicode="e" horiz-adv-x="1126" d="M113 492q0 109 37 205t99 163t144 105.5t170 38.5t170 -38.5t144 -105.5t99.5 -163.5t37.5 -204.5v-21h-860q7 -190 133.5 -320.5t296.5 -130.5q63 0 121 19t95.5 46t66.5 54.5t42 46.5l13 19l30 -21q-5 -8 -14.5 -22t-44 -49t-73.5 -62t-103 -49t-133 -22 q-122 0 -230.5 67.5t-174.5 186t-66 258.5zM154 512h819q0 94 -34 178.5t-90 143.5t-131 94t-155 35q-107 0 -200.5 -58.5t-151 -163t-57.5 -229.5z" />
<glyph unicode="f" horiz-adv-x="593" d="M72 942v41h164v225q0 114 62 180t163 66q32 0 62.5 -8t45.5 -16l15 -7v-41q-51 31 -123 31q-86 0 -135.5 -53.5t-49.5 -151.5v-225h246v-41h-246v-942h-40v942h-164z" />
<glyph unicode="g" horiz-adv-x="1208" d="M113 512q0 101 37.5 193t98 157t141 103.5t163.5 38.5q59 0 112.5 -16.5t92.5 -42.5t72.5 -57.5t55 -63.5t37 -58t22.5 -42l7 -17v276h41v-922q0 -105 -36 -197.5t-96.5 -156.5t-143.5 -100.5t-174 -36.5q-69 0 -132.5 21t-104.5 51t-72.5 60.5t-45.5 51.5l-14 21l31 20 q5 -7 14 -19.5t40.5 -44.5t67.5 -56t94.5 -44t121.5 -20q172 0 290.5 127t118.5 323v256q-2 -6 -7 -17t-22 -41.5t-37.5 -58.5t-55 -62.5t-73 -59t-92 -41.5t-112.5 -17q-83 0 -163.5 38.5t-141 103.5t-98 157t-37.5 193zM154 512q0 -124 57 -229t148.5 -163.5t193.5 -58.5 t193.5 58.5t148.5 163.5t57 229t-57 229t-148.5 163.5t-193.5 58.5t-193.5 -58.5t-148.5 -163.5t-57 -229z" />
<glyph unicode="h" horiz-adv-x="1187" d="M195 0v1434h41v-697q2 6 5.5 15.5t17.5 37t31.5 53t48.5 56t66.5 53t87.5 37.5t111 15q164 0 276.5 -119t112.5 -301v-584h-41v584q0 167 -100 273t-248 106q-156 0 -262 -112.5t-106 -287.5v-563h-41z" />
<glyph unicode="i" horiz-adv-x="450" d="M174 1352q0 15 13 28t28 13t28 -13t13 -28t-13 -28t-28 -13t-28 13t-13 28zM195 0v983h41v-983h-41z" />
<glyph unicode="j" horiz-adv-x="450" d="M-113 -358q51 -31 123 -31q86 0 135.5 53.5t49.5 151.5v1167h41v-1167q0 -114 -62.5 -180t-163.5 -66q-32 0 -63 8t-45 16l-15 7v41zM174 1352q0 15 13 28t28 13t28 -13t13 -28t-13 -28t-28 -13t-28 13t-13 28z" />
<glyph unicode="k" horiz-adv-x="1013" d="M195 0v1434h41v-1127l614 676h51l-358 -399l420 -584h-52l-389 553h-10l-276 -297v-256h-41z" />
<glyph unicode="l" horiz-adv-x="450" d="M195 0v1434h41v-1434h-41z" />
<glyph unicode="m" horiz-adv-x="1781" d="M195 0v983h41v-225q1 5 4.5 14t15.5 34.5t27 48.5t42 51.5t57.5 49t75.5 34.5t95 14q56 0 105 -16t82.5 -41t61 -56t43.5 -61.5t27 -55.5t15 -41l4 -16q1 6 4 16.5t15 40t27 57t43 60.5t61 56.5t82.5 40t105.5 16.5q150 0 254 -116.5t104 -303.5v-584h-41v584 q0 172 -91 275.5t-226 103.5t-226.5 -103.5t-91.5 -275.5v-584h-41v584q0 172 -91 275.5t-226 103.5q-136 0 -226.5 -107t-90.5 -293v-563h-41z" />
<glyph unicode="n" horiz-adv-x="1187" d="M195 0v983h41v-246q2 6 5.5 15.5t17.5 37t31.5 53t48.5 56t66.5 53t87.5 37.5t111 15q164 0 276.5 -119t112.5 -301v-584h-41v584q0 167 -100 273t-248 106q-156 0 -262 -112.5t-106 -287.5v-563h-41z" />
<glyph unicode="o" horiz-adv-x="1187" d="M113 492q0 140 66 258.5t174.5 186t230.5 67.5t230.5 -67.5t174.5 -186t66 -258.5t-66 -258.5t-174.5 -186t-230.5 -67.5t-230.5 67.5t-174.5 186t-66 258.5zM154 492q0 -97 35.5 -185.5t94.5 -150.5t138 -99t162 -37t162 37t138 99t94.5 150.5t35.5 185.5 q0 129 -60.5 238.5t-159 171t-210.5 61.5t-210.5 -61.5t-159 -171t-60.5 -238.5z" />
<glyph unicode="p" d="M195 -430v1413h41v-287q3 6 8 17.5t23 43.5t39.5 61t57 64.5t75 61t93.5 43t113 17.5q84 0 165.5 -40t144.5 -107.5t102 -164t39 -200.5t-39 -200.5t-102 -164t-144.5 -107.5t-165.5 -40q-59 0 -113 17t-94 44t-74.5 59.5t-57 65.5t-39 60t-23.5 44l-8 17v-717h-41z M236 492q0 -97 35 -185.5t92.5 -150.5t131.5 -99t150 -37t150.5 37t131.5 99t92.5 150.5t35.5 185.5q0 129 -59.5 238.5t-154 171t-196.5 61.5t-196 -61.5t-153.5 -171t-59.5 -238.5z" />
<glyph unicode="q" d="M113 492q0 105 39 201t101.5 163.5t144 107.5t165.5 40q59 0 113 -17t94 -44t74.5 -60t57.5 -66t39.5 -60t24.5 -44l7 -17v287h41v-1413h-41v717q-3 -6 -8 -17.5t-23.5 -43t-39.5 -60.5t-57 -64.5t-75 -61t-93.5 -43t-113.5 -17.5q-84 0 -165.5 40t-144 107.5 t-101.5 163.5t-39 201zM154 492q0 -97 35 -185.5t92.5 -150.5t131.5 -99t150 -37t150.5 37t131.5 99t92.5 150.5t35.5 185.5q0 129 -59.5 238.5t-154 171t-196.5 61.5t-196 -61.5t-153.5 -171t-59.5 -238.5z" />
<glyph unicode="r" horiz-adv-x="696" d="M195 0v983h41v-246q2 6 5.5 15.5t17.5 37t31.5 53t48.5 56t66.5 53t87.5 37.5t111 15h41v-41h-41q-156 0 -262 -112.5t-106 -287.5v-563h-41z" />
<glyph unicode="s" horiz-adv-x="890" d="M92 143l31 31q4 -6 12 -16.5t36 -37t60 -47t83 -37t106 -16.5q134 0 215.5 71.5t81.5 174.5q0 46 -20 81.5t-54 58.5t-77.5 41.5t-92 33.5l-97 30t-92 35t-77.5 46t-54 65.5t-20 90.5q0 103 85 179.5t212 76.5q55 0 106.5 -15t86.5 -36t62 -42t39 -36l13 -15l-30 -31 q-4 5 -12 14.5t-35 32.5t-57 40.5t-77 32t-96 14.5q-112 0 -184 -63.5t-72 -151.5q0 -49 25 -86.5t66 -59t93.5 -41.5t107.5 -34.5t107.5 -37t93.5 -49t66 -71t25 -103.5q0 -119 -94 -202.5t-244 -83.5q-60 0 -116 17t-93 41t-65 47.5t-41 40.5z" />
<glyph unicode="t" horiz-adv-x="675" d="M51 942v41h144q61 0 61 61v267h41v-328h225v-41h-225v-717q0 -98 49 -151.5t135 -53.5q32 0 62.5 8t45.5 16l15 7v-41q-51 -30 -123 -30q-101 0 -163 65.5t-62 179.5v717h-205z" />
<glyph unicode="u" horiz-adv-x="1208" d="M195 399v584h41v-584q0 -167 100 -273t248 -106q156 0 262 112.5t106 287.5v563h41v-983h-41v246q-3 -11 -10.5 -29t-37 -63.5t-67 -81t-105.5 -64t-148 -28.5q-164 0 -276.5 118.5t-112.5 300.5z" />
<glyph unicode="v" horiz-adv-x="962" d="M51 983h41l379 -932l379 932h41l-399 -983h-41z" />
<glyph unicode="w" horiz-adv-x="1413" d="M51 983h41l297 -922l297 922h21l297 -922l296 922h41l-317 -983h-41l-287 891l-286 -891h-41z" />
<glyph unicode="x" horiz-adv-x="921" d="M51 0l379 512l-348 471h51l318 -440l317 440h51l-348 -471l379 -512h-51l-348 481l-349 -481h-51z" />
<glyph unicode="y" horiz-adv-x="962" d="M51 983h41l379 -932l379 932h41l-492 -1208q-41 -103 -97 -154t-138 -51q-23 0 -43.5 5t-29.5 10l-9 5v41q31 -20 82 -20q128 0 194 164l93 225z" />
<glyph unicode="z" horiz-adv-x="870" d="M51 0v31l676 911h-655v41h706v-31l-676 -911h697v-41h-748z" />
<glyph unicode="{" horiz-adv-x="737" d="M143 492v40q84 0 129 43.5t45 120.5v502q0 124 70 190t207 66h41v-41h-41q-122 0 -179 -53.5t-57 -161.5v-502q0 -46 -14.5 -82t-36 -54t-42.5 -30t-35 -15l-15 -3q6 -1 15.5 -3t34 -14.5t43.5 -30.5t34.5 -54t15.5 -82v-502q0 -108 57 -161.5t179 -53.5h41v-41h-41 q-137 0 -207 66t-70 190v502q0 77 -45 120.5t-129 43.5z" />
<glyph unicode="|" horiz-adv-x="655" d="M307 -430v1884h41v-1884h-41z" />
<glyph unicode="}" horiz-adv-x="737" d="M102 -389h41q122 0 179 53.5t57 161.5v502q0 46 14.5 82t35.5 54t42.5 30t36.5 15l14 3q-6 1 -15.5 3t-34 14.5t-43.5 30.5t-34.5 54t-15.5 82v502q0 108 -57 161.5t-179 53.5h-41v41h41q137 0 207 -66t70 -190v-502q0 -77 45 -120.5t129 -43.5v-40q-84 0 -129 -43.5 t-45 -120.5v-502q0 -124 -70 -190t-207 -66h-41v41z" />
<glyph unicode="~" horiz-adv-x="1044" d="M102 543q3 6 8.5 16.5t26.5 37t45 46.5t63.5 36.5t82.5 16.5q51 0 94.5 -16t75.5 -38t63 -44.5t71 -38.5t85 -16q37 0 71 13.5t55.5 33.5t37.5 39.5t23 32.5l7 14l31 -21q-3 -6 -8.5 -16.5t-26 -37t-44.5 -46.5t-63.5 -36.5t-82.5 -16.5q-51 0 -94.5 16t-75.5 38 t-63 44.5t-71 38.5t-85 16q-37 0 -71 -13.5t-55.5 -33.5t-38 -39.5t-23.5 -32.5l-7 -14z" />
<glyph unicode="&#xa1;" horiz-adv-x="573" d="M246 942q0 15 13 28t28 13t28 -13t13 -28t-13 -28t-28 -13t-28 13t-13 28zM266 -430v1116h41v-1116h-41z" />
<glyph unicode="&#xa2;" horiz-adv-x="1064" d="M113 492q0 101 37.5 194.5t99 161.5t144 110t169.5 46v204h41v-204q66 -3 126 -25t99 -51.5t68 -59t42 -49.5l13 -20l-30 -21q-2 4 -6.5 10.5t-21 26t-35 37t-48 38.5t-62 36.5t-76 26t-89.5 10.5q-112 0 -210.5 -61.5t-159 -171t-60.5 -238.5q0 -97 35.5 -185.5 t94.5 -150.5t138 -99t162 -37q63 0 121 19t95.5 46t66.5 54.5t42 46.5l13 19l30 -21q-5 -8 -13.5 -21t-41 -47t-69 -60.5t-97.5 -49.5t-127 -26v-205h-41v205q-87 4 -169.5 46t-144 110t-99 161.5t-37.5 194.5z" />
<glyph unicode="&#xa3;" horiz-adv-x="1107" d="M123 0v41q77 0 130.5 53.5t53.5 130.5v430h-153v41h153v348q0 182 108 296t271 114q60 0 117.5 -17t96 -41t68.5 -48t44 -41l14 -17l-31 -30q-5 6 -13.5 16.5t-39 37t-63.5 46.5t-85.5 36.5t-107.5 16.5q-148 0 -243 -101t-95 -268v-348h430v-41h-430v-430 q0 -40 -11.5 -73.5t-28 -53t-33 -33.5t-27.5 -19l-12 -5h788v-41h-901z" />
<glyph unicode="&#xa4;" horiz-adv-x="1320" d="M102 328v41h185v266h-185v41h185v758h481q190 0 310 -114.5t120 -285.5t-120 -285t-310 -114h-440v-266h563v-41h-563v-328h-41v328h-185zM328 676h440q175 0 282 101t107 257t-107 257.5t-282 101.5h-440v-717z" />
<glyph unicode="&#xa5;" d="M61 1434h52l501 -891l502 891h51l-481 -840h297v-41h-317l-31 -51v-174h348v-41h-348v-287h-41v287h-348v41h348v174l-31 51h-317v41h297z" />
<glyph unicode="&#xa6;" horiz-adv-x="655" d="M307 348h41v-778h-41v778zM307 676v778h41v-778h-41z" />
<glyph unicode="&#xa7;" horiz-adv-x="1075" d="M143 655q0 60 24.5 112t59 82.5t69 53t58.5 31.5l25 8q-7 2 -18 7.5t-39 24.5t-50 42.5t-39.5 64t-17.5 86.5q0 118 92.5 202.5t235.5 84.5q55 0 106.5 -14.5t86.5 -36t62 -42.5t40 -35l12 -15l-31 -31q-4 5 -12 14t-35 32t-57 40.5t-76.5 32t-95.5 14.5 q-127 0 -207 -71.5t-80 -174.5q0 -64 37.5 -112t97 -78.5t131.5 -56.5t144 -54.5t131.5 -64t97 -93.5t37.5 -135q0 -60 -24.5 -111.5t-59 -82.5t-69 -53t-59.5 -30l-24 -9q7 -3 18 -8t39 -24.5t50 -43t39.5 -64t17.5 -86.5q0 -119 -94 -202.5t-244 -83.5q-60 0 -116 17 t-92.5 41t-64.5 48t-41 41l-13 17l30 30q4 -6 12 -16.5t36 -37t60 -46.5t83 -36.5t106 -16.5q134 0 215.5 71t81.5 174q0 64 -37.5 112t-97 78.5t-131.5 56.5t-144 54.5t-131.5 64t-97 93.5t-37.5 135zM184 655q0 -43 14.5 -79t44 -64t61.5 -50t80.5 -42.5t86.5 -35t94 -34 t90 -33.5q5 1 13.5 3.5t33 11.5t47 21t49.5 33.5t46.5 46.5t33 61.5t13.5 78.5q0 43 -14.5 79t-44 64t-61.5 50t-80.5 42.5t-86.5 35t-94 34t-90 33.5q-5 -1 -13.5 -3.5t-33 -11.5t-47 -21t-49.5 -33.5t-46.5 -46.5t-33 -61.5t-13.5 -78.5z" />
<glyph unicode="&#xa8;" horiz-adv-x="532" d="M61 1311q0 15 13 28t28 13t28 -13t13 -28t-13 -28t-28 -13t-28 13t-13 28zM389 1311q0 15 13 28t28 13t28 -13t13 -28t-13 -28t-28 -13t-28 13t-13 28z" />
<glyph unicode="&#xa9;" horiz-adv-x="1740" d="M143 717q0 151 58 287.5t155.5 235t232 156.5t281.5 58t281.5 -58t232 -156.5t155.5 -235t58 -287.5t-58 -287.5t-155.5 -235t-232 -156.5t-281.5 -58t-281.5 58t-232 156.5t-155.5 235t-58 287.5zM184 717q0 -191 92 -351.5t249.5 -253t344.5 -92.5t344.5 92.5 t249.5 253t92 351.5q0 143 -54.5 272.5t-146 222t-218.5 147t-267 54.5t-267 -54.5t-218.5 -147t-146 -222t-54.5 -272.5zM522 717q0 166 105.5 277.5t253.5 111.5q52 0 100 -14.5t80.5 -36t57.5 -42.5t37 -35l11 -15l-30 -31q-4 5 -11 14t-32 32t-52.5 40.5t-71 32 t-89.5 14.5q-129 0 -223.5 -99t-94.5 -249t94.5 -249t223.5 -99q46 0 89 13.5t72 33.5t51.5 39.5t32.5 32.5l11 14l30 -31q-4 -6 -12 -15.5t-35.5 -34t-58.5 -43.5t-79.5 -34.5t-100.5 -15.5q-148 0 -253.5 111.5t-105.5 277.5z" />
<glyph unicode="&#xaa;" horiz-adv-x="645" d="M82 993q0 140 186 174l224 41v41q0 77 -44 120.5t-120 43.5q-50 0 -93.5 -20.5t-62.5 -40.5l-18 -21l-31 21q3 4 8.5 11t25 24.5t41.5 31t57.5 24.5t72.5 11q92 0 148 -56.5t56 -148.5v-399h-40v113q-2 -5 -6.5 -14.5t-23 -32.5t-41.5 -40.5t-64.5 -32t-90.5 -14.5 q-83 0 -133.5 46.5t-50.5 117.5zM123 993q0 -55 37.5 -89t105.5 -34q99 0 162.5 61t63.5 154v82l-224 -41q-77 -13 -111 -45.5t-34 -87.5z" />
<glyph unicode="&#xab;" horiz-adv-x="819" d="M123 492l225 307h41l-225 -307l225 -308h-41zM430 492l225 307h41l-225 -307l225 -308h-41z" />
<glyph unicode="&#xac;" horiz-adv-x="921" d="M102 707v41h717v-328h-41v287h-676z" />
<glyph unicode="&#xad;" horiz-adv-x="860" d="M102 584v41h656v-41h-656z" />
<glyph unicode="&#xae;" horiz-adv-x="1740" d="M143 717q0 151 58 287.5t155.5 235t232 156.5t281.5 58t281.5 -58t232 -156.5t155.5 -235t58 -287.5t-58 -287.5t-155.5 -235t-232 -156.5t-281.5 -58t-281.5 58t-232 156.5t-155.5 235t-58 287.5zM184 717q0 -191 92 -351.5t249.5 -253t344.5 -92.5t344.5 92.5 t249.5 253t92 351.5q0 143 -54.5 272.5t-146 222t-218.5 147t-267 54.5t-267 -54.5t-218.5 -147t-146 -222t-54.5 -272.5zM645 338v758h246q113 0 179.5 -60.5t66.5 -154.5q0 -49 -18 -88t-43.5 -60t-51 -35t-43.5 -18l-18 -4l194 -338h-51l-174 328h-246v-328h-41zM686 707 h205q97 0 151 47.5t54 126.5t-54 126.5t-151 47.5h-205v-348z" />
<glyph unicode="&#xaf;" horiz-adv-x="634" d="M61 1341v41h512v-41h-512z" />
<glyph unicode="&#xb0;" horiz-adv-x="696" d="M102 1208q0 100 73 173t173 73t173 -73t73 -173t-73 -172.5t-173 -72.5t-173 72.5t-73 172.5zM143 1208q0 -85 60 -144.5t145 -59.5t145 59.5t60 144.5t-60 145t-145 60t-145 -60t-60 -145z" />
<glyph unicode="&#xb1;" horiz-adv-x="1024" d="M102 143v41h820v-41h-820zM102 758v41h390v399h40v-399h390v-41h-390v-420h-40v420h-390z" />
<glyph unicode="&#xb2;" horiz-adv-x="552" d="M41 922q0 56 22.5 104t59 83t80 67t87 61.5t80 60.5t59 71t22.5 85q0 63 -50 108.5t-125 45.5q-40 0 -73.5 -13.5t-53 -33t-33.5 -39.5t-19 -34l-5 -13l-41 10q2 7 6.5 18t22.5 39t41.5 50t64.5 39.5t90 17.5q91 0 153.5 -58.5t62.5 -136.5q0 -50 -20.5 -93t-54 -75 t-74 -60.5t-83 -56.5t-79 -57t-64 -67.5t-35.5 -81.5h410v-41h-451z" />
<glyph unicode="&#xb3;" horiz-adv-x="573" d="M41 1024l31 31q3 -4 8.5 -11t26 -25t43 -31.5t60 -24.5t77.5 -11q83 0 133.5 46.5t50.5 117.5t-50.5 117.5t-133.5 46.5h-103v41h92q75 0 119.5 40t44.5 103t-44.5 103.5t-119.5 40.5q-34 0 -66 -9.5t-52.5 -23t-36 -27t-22.5 -22.5l-7 -10l-31 30q3 4 8.5 11t26 25 t43 31.5t60 24.5t77.5 11q91 0 148 -53.5t57 -131.5q0 -34 -11.5 -64t-28 -47.5t-33 -30t-28.5 -17.5l-11 -5q6 -1 15.5 -4t34 -16.5t43.5 -32t34.5 -53.5t15.5 -78q0 -86 -63.5 -145.5t-161.5 -59.5q-46 0 -88 11.5t-69.5 28t-48.5 33.5t-31 28z" />
<glyph unicode="&#xb4;" horiz-adv-x="327" d="M61 1167l154 246h51l-164 -246h-41z" />
<glyph unicode="&#xb5;" horiz-adv-x="1208" d="M195 -430v1413h41v-594q0 -167 94.5 -268t242.5 -101t253.5 112t105.5 278v573h41v-819q0 -61 34 -97t89 -36q18 0 33.5 2.5t21.5 4.5l6 3v-41q-20 -10 -61 -10q-70 0 -117 49t-47 125v72q-2 -5 -5.5 -14.5t-17.5 -36t-31.5 -50.5t-47.5 -53.5t-65 -51t-85.5 -36 t-106.5 -14.5q-52 0 -99 12t-80 31t-61 42t-45.5 45.5t-29.5 41.5t-17 31l-5 12v-625h-41z" />
<glyph unicode="&#xb6;" horiz-adv-x="1024" d="M123 1126q0 123 92 215.5t215 92.5h348v-1639h-41v1598h-266v-1598h-41v1024q-123 0 -215 92t-92 215z" />
<glyph unicode="&#xb7;" horiz-adv-x="368" d="M143 512q0 15 13 28t28 13t28 -13t13 -28t-13 -28t-28 -13t-28 13t-13 28z" />
<glyph unicode="&#xb8;" horiz-adv-x="440" d="M61 -358l21 30q51 -41 123 -41q60 0 96.5 33t36.5 80q0 54 -29.5 83.5t-83.5 29.5q-18 0 -36 -5.5t-27 -10.5l-8 -5l-21 21l92 184h31l-82 -164q21 10 62 10q62 0 102.5 -40.5t40.5 -102.5q0 -63 -49.5 -108.5t-124.5 -45.5q-36 0 -72 13t-54 26z" />
<glyph unicode="&#xb9;" horiz-adv-x="378" d="M61 1475v41q32 3 60.5 16.5t46.5 31t31.5 34.5t19.5 28l6 12h31v-716h-41v645q-2 -3 -5.5 -9t-16.5 -20.5t-29 -26t-43.5 -22.5t-59.5 -14z" />
<glyph unicode="&#xba;" horiz-adv-x="716" d="M61 1137q0 136 86.5 226.5t210.5 90.5t210.5 -90.5t86.5 -226.5q0 -137 -86.5 -227.5t-210.5 -90.5t-210.5 90.5t-86.5 227.5zM102 1137q0 -121 73.5 -199t182.5 -78t182.5 78t73.5 199t-73.5 198.5t-182.5 77.5t-182.5 -77.5t-73.5 -198.5z" />
<glyph unicode="&#xbb;" horiz-adv-x="819" d="M123 184l225 308l-225 307h41l225 -307l-225 -308h-41zM430 184l225 308l-225 307h41l225 -307l-225 -308h-41z" />
<glyph unicode="&#xbc;" horiz-adv-x="1372" d="M82 1270v41q32 3 60.5 16.5t46.5 31t31.5 35t19.5 28.5l6 12h30v-717h-40v645q-2 -3 -5.5 -9t-16.5 -20.5t-29 -26t-43.5 -22.5t-59.5 -14zM164 0l901 1434h41l-901 -1434h-41zM758 195v41l358 481h51v-481h103v-41h-103v-195h-41v195h-368zM799 236h327v440z" />
<glyph unicode="&#xbd;" horiz-adv-x="1413" d="M82 1270v41q32 3 60.5 16.5t46.5 31t31.5 35t19.5 28.5l6 12h30v-717h-40v645q-2 -3 -5.5 -9t-16.5 -20.5t-29 -26t-43.5 -22.5t-59.5 -14zM164 0l901 1434h41l-901 -1434h-41zM860 0q0 56 22.5 104t59 83t80 67t87 61.5t80 60.5t59 71t22.5 85q0 63 -49.5 108.5 t-124.5 45.5q-40 0 -74 -13.5t-53.5 -33t-33.5 -39.5t-19 -34l-5 -13l-41 10q2 7 6.5 18t23 39t41.5 50t64.5 39.5t90.5 17.5q90 0 152.5 -58.5t62.5 -136.5q0 -50 -20.5 -93t-54 -75t-74 -60.5t-83 -56.5t-79 -57t-64 -67.5t-35.5 -81.5h410v-41h-451z" />
<glyph unicode="&#xbe;" horiz-adv-x="1495" d="M61 819l31 31q3 -4 8.5 -11t26 -24.5t43 -31t60 -24.5t77.5 -11q83 0 134 46.5t51 116.5t-51 117t-134 47h-102v41h92q75 0 119.5 40.5t44.5 103.5t-44.5 103t-119.5 40q-34 0 -66 -9.5t-52.5 -23t-36 -27t-22.5 -23.5l-7 -9l-31 30q3 4 8.5 11t26 25t43 31.5t60 24.5 t77.5 11q91 0 148 -53t57 -131q0 -34 -11.5 -64t-28 -47.5t-33.5 -30t-29 -17.5l-11 -5q6 -1 15.5 -4t34 -17t43.5 -32.5t34.5 -53.5t15.5 -78q0 -86 -63.5 -145t-161.5 -59q-46 0 -88 11.5t-69.5 28t-48.5 33t-31 28.5zM287 0l901 1434h41l-901 -1434h-41zM881 195v41 l358 481h51v-481h103v-41h-103v-195h-41v195h-368zM922 236h327v440z" />
<glyph unicode="&#xbf;" horiz-adv-x="911" d="M82 -82q0 66 23 122.5t60 98t82 79.5l90 76t82 79.5t60 98t23 122.5v92h41v-92q0 -70 -23 -130t-60 -103t-82 -82t-90 -76.5t-82 -77t-60 -92.5t-23 -115q0 -134 107 -231t272 -97q65 0 120 15.5t91.5 39.5t66 53.5t46 59.5t27 54t13.5 40l4 15l41 -10q-1 -6 -4 -17.5 t-16.5 -43.5t-31 -61t-50.5 -64.5t-73.5 -61t-101.5 -43t-132 -17.5q-180 0 -300 109.5t-120 259.5zM481 942q0 15 13 28t28 13t28 -13t13 -28t-13 -28t-28 -13t-28 13t-13 28z" />
<glyph unicode="&#xc0;" horiz-adv-x="1351" d="M61 0l594 1434h41l594 -1434h-41l-184 451h-778l-185 -451h-41zM307 492h737l-368 890zM481 1905h51l154 -246h-41z" />
<glyph unicode="&#xc1;" horiz-adv-x="1351" d="M61 0l594 1434h41l594 -1434h-41l-184 451h-778l-185 -451h-41zM307 492h737l-368 890zM666 1638l153 246h51l-163 -246h-41z" />
<glyph unicode="&#xc2;" horiz-adv-x="1351" d="M61 0l594 1434h41l594 -1434h-41l-184 451h-778l-185 -451h-41zM307 492h737l-368 890zM440 1638l215 246h41l215 -246h-51l-184 215l-184 -215h-52z" />
<glyph unicode="&#xc3;" horiz-adv-x="1351" d="M61 0l594 1434h41l594 -1434h-41l-184 451h-778l-185 -451h-41zM307 492h737l-368 890zM430 1638q0 102 37.5 153.5t95.5 51.5q34 0 63.5 -17t51 -41t42 -48t46 -41t53.5 -17q92 0 92 164h41q0 -102 -37.5 -153.5t-95.5 -51.5q-34 0 -63.5 17t-51 41t-42 48t-46 41 t-53.5 17q-92 0 -92 -164h-41z" />
<glyph unicode="&#xc4;" horiz-adv-x="1351" d="M61 0l594 1434h41l594 -1434h-41l-184 451h-778l-185 -451h-41zM307 492h737l-368 890zM471 1761q0 15 13 28t28 13t28 -13t13 -28t-13 -28t-28 -13t-28 13t-13 28zM799 1761q0 15 13 28t28 13t28 -13t13 -28t-13 -28t-28 -13t-28 13t-13 28z" />
<glyph unicode="&#xc5;" horiz-adv-x="1351" d="M61 0l594 1434h41l594 -1434h-41l-184 451h-778l-185 -451h-41zM307 492h737l-368 890zM492 1761q0 77 54 131t130 54t130 -54t54 -131t-54 -130.5t-130 -53.5t-130 53.5t-54 130.5zM532 1761q0 -61 41 -102t103 -41t102.5 41t40.5 102q0 62 -41 103t-102 41 q-62 0 -103 -41.5t-41 -102.5z" />
<glyph unicode="&#xc6;" horiz-adv-x="1904" d="M-41 0l799 1434h1044v-41h-778v-625h614v-41h-614v-686h799v-41h-840v471h-717l-266 -471h-41zM287 512h696v881h-205z" />
<glyph unicode="&#xc7;" horiz-adv-x="1525" d="M123 717q0 151 57.5 288t154.5 235t229 156t276 58q79 0 154.5 -17.5t132 -45.5t106 -61.5t83.5 -67.5t59 -62t37 -46l11 -17l-30 -21q-4 6 -11.5 17t-33.5 41.5t-56 58.5t-79 62.5t-102 59t-124.5 41.5t-146.5 17q-136 0 -261 -54.5t-216 -147t-145 -222t-54 -272.5 q0 -191 91.5 -351.5t247 -253t337.5 -92.5q75 0 146.5 16.5t125 42.5t101 57.5t79.5 63.5t55.5 58t34.5 42l11 17l30 -20q-4 -7 -12 -18t-35.5 -44t-59.5 -63t-83.5 -66.5t-107 -63t-131 -44.5t-154.5 -18l-52 -103q21 10 62 10q62 0 102.5 -40.5t40.5 -102.5 q0 -63 -49.5 -108.5t-124.5 -45.5q-36 0 -72 13t-53 26l-18 13l20 30q51 -41 123 -41q60 0 96.5 33t36.5 80q0 54 -29 83.5t-83 29.5q-18 0 -36 -5.5t-27 -10.5l-9 -5l-20 21l61 123q-187 10 -344.5 109.5t-249.5 265.5t-92 362z" />
<glyph unicode="&#xc8;" horiz-adv-x="1280" d="M246 0v1434h932v-41h-891v-625h727v-41h-727v-686h911v-41h-952zM543 1905h51l154 -246h-41z" />
<glyph unicode="&#xc9;" horiz-adv-x="1280" d="M246 0v1434h932v-41h-891v-625h727v-41h-727v-686h911v-41h-952zM676 1638l153 246h52l-164 -246h-41z" />
<glyph unicode="&#xca;" horiz-adv-x="1280" d="M246 0v1434h932v-41h-891v-625h727v-41h-727v-686h911v-41h-952zM471 1638l215 246h41l215 -246h-51l-184 215l-185 -215h-51z" />
<glyph unicode="&#xcb;" horiz-adv-x="1280" d="M246 0v1434h932v-41h-891v-625h727v-41h-727v-686h911v-41h-952zM502 1761q0 15 13 28t28 13t28 -13t13 -28t-13 -28t-28 -13t-28 13t-13 28zM829 1761q0 15 13 28t28 13t28 -13t13 -28t-13 -28t-28 -13t-28 13t-13 28z" />
<glyph unicode="&#xcc;" horiz-adv-x="532" d="M82 1905h51l154 -246h-41zM246 0v1434h41v-1434h-41z" />
<glyph unicode="&#xcd;" horiz-adv-x="532" d="M246 0v1434h41v-1434h-41zM246 1638l153 246h52l-164 -246h-41z" />
<glyph unicode="&#xce;" horiz-adv-x="532" d="M31 1638l215 246h41l215 -246h-51l-185 215l-184 -215h-51zM246 0v1434h41v-1434h-41z" />
<glyph unicode="&#xcf;" horiz-adv-x="532" d="M61 1761q0 15 13 28t28 13t28 -13t13 -28t-13 -28t-28 -13t-28 13t-13 28zM246 0v1434h41v-1434h-41zM389 1761q0 15 13 28t28 13t28 -13t13 -28t-13 -28t-28 -13t-28 13t-13 28z" />
<glyph unicode="&#xd0;" horiz-adv-x="1525" d="M61 696v41h215v697h379q216 0 387.5 -93.5t266 -257t94.5 -366.5t-94.5 -366.5t-266 -257t-387.5 -93.5h-379v696h-215zM317 41h338q207 0 368.5 87.5t250 241.5t88.5 347t-88.5 347t-250 241.5t-368.5 87.5h-338v-656h379v-41h-379v-655z" />
<glyph unicode="&#xd1;" horiz-adv-x="1587" d="M246 0v1434h30l1024 -1352v1352h41v-1434h-30l-1024 1352v-1352h-41zM543 1638q0 102 37.5 153.5t95.5 51.5q34 0 63.5 -17t51 -41t42 -48t46 -41t53.5 -17q92 0 92 164h41q0 -102 -37.5 -153.5t-95.5 -51.5q-34 0 -63.5 17t-51 41t-42 48t-46 41t-53.5 17 q-92 0 -92 -164h-41z" />
<glyph unicode="&#xd2;" horiz-adv-x="1679" d="M123 717q0 151 57.5 288t154.5 235t229 156t276 58q192 0 356.5 -98t262 -268t97.5 -371t-97.5 -371t-262 -268t-356.5 -98q-144 0 -276 58t-229 156t-154.5 235t-57.5 288zM164 717q0 -191 91.5 -351.5t247 -253t337.5 -92.5t337.5 92.5t247 253t91.5 351.5 q0 143 -54 272.5t-145 222t-216 147t-261 54.5t-261 -54.5t-216 -147t-145 -222t-54 -272.5zM676 1905h51l154 -246h-41z" />
<glyph unicode="&#xd3;" horiz-adv-x="1679" d="M123 717q0 151 57.5 288t154.5 235t229 156t276 58q192 0 356.5 -98t262 -268t97.5 -371t-97.5 -371t-262 -268t-356.5 -98q-144 0 -276 58t-229 156t-154.5 235t-57.5 288zM164 717q0 -191 91.5 -351.5t247 -253t337.5 -92.5t337.5 92.5t247 253t91.5 351.5 q0 143 -54 272.5t-145 222t-216 147t-261 54.5t-261 -54.5t-216 -147t-145 -222t-54 -272.5zM840 1638l153 246h51l-163 -246h-41z" />
<glyph unicode="&#xd4;" horiz-adv-x="1679" d="M123 717q0 151 57.5 288t154.5 235t229 156t276 58q192 0 356.5 -98t262 -268t97.5 -371t-97.5 -371t-262 -268t-356.5 -98q-144 0 -276 58t-229 156t-154.5 235t-57.5 288zM164 717q0 -191 91.5 -351.5t247 -253t337.5 -92.5t337.5 92.5t247 253t91.5 351.5 q0 143 -54 272.5t-145 222t-216 147t-261 54.5t-261 -54.5t-216 -147t-145 -222t-54 -272.5zM604 1638l215 246h41l215 -246h-51l-184 215l-185 -215h-51z" />
<glyph unicode="&#xd5;" horiz-adv-x="1679" d="M123 717q0 151 57.5 288t154.5 235t229 156t276 58q192 0 356.5 -98t262 -268t97.5 -371t-97.5 -371t-262 -268t-356.5 -98q-144 0 -276 58t-229 156t-154.5 235t-57.5 288zM164 717q0 -191 91.5 -351.5t247 -253t337.5 -92.5t337.5 92.5t247 253t91.5 351.5 q0 143 -54 272.5t-145 222t-216 147t-261 54.5t-261 -54.5t-216 -147t-145 -222t-54 -272.5zM580 1638q0 102 37.5 153.5t95.5 51.5q34 0 63.5 -17t51 -41t42 -48t46 -41t53.5 -17q92 0 92 164h41q0 -102 -37.5 -153.5t-95.5 -51.5q-34 0 -63.5 17t-51 41t-42 48t-46 41 t-53.5 17q-92 0 -92 -164h-41z" />
<glyph unicode="&#xd6;" horiz-adv-x="1679" d="M123 717q0 151 57.5 288t154.5 235t229 156t276 58q192 0 356.5 -98t262 -268t97.5 -371t-97.5 -371t-262 -268t-356.5 -98q-144 0 -276 58t-229 156t-154.5 235t-57.5 288zM164 717q0 -191 91.5 -351.5t247 -253t337.5 -92.5t337.5 92.5t247 253t91.5 351.5 q0 143 -54 272.5t-145 222t-216 147t-261 54.5t-261 -54.5t-216 -147t-145 -222t-54 -272.5zM635 1761q0 15 13 28t28 13t28 -13t13 -28t-13 -28t-28 -13t-28 13t-13 28zM963 1761q0 15 13 28t28 13t27.5 -13t12.5 -28t-12.5 -28t-27.5 -13t-28 13t-13 28z" />
<glyph unicode="&#xd7;" horiz-adv-x="880" d="M123 338l287 297l-287 297l31 31l286 -297l287 297l31 -31l-287 -297l287 -297l-31 -31l-287 297l-286 -297z" />
<glyph unicode="&#xd8;" horiz-adv-x="1679" d="M123 717q0 151 57.5 288t154.5 235t229 156t276 58q83 0 164 -20t137.5 -48.5t101 -57t66.5 -48.5l22 -20l185 194l30 -31l-184 -194q8 -8 21 -24t46.5 -68t59 -107.5t46.5 -141t21 -171.5q0 -201 -97.5 -371t-262 -268t-356.5 -98q-83 0 -164.5 20t-138 48.5t-101 57 t-66.5 48.5l-22 20l-184 -194l-31 30l184 195q-8 8 -21 24t-46.5 68t-59 107.5t-46.5 141t-21 171.5zM164 717q0 -83 19 -163t46 -135t54 -98.5t46 -64.5l19 -20l952 993q-7 7 -20.5 19.5t-58.5 44.5t-95 56t-128 44t-158 20q-136 0 -261 -54.5t-216 -147t-145 -222 t-54 -272.5zM379 205q7 -8 20.5 -20t59 -44t95.5 -56.5t128 -44.5t158 -20q182 0 337.5 92.5t247 253t91.5 351.5q0 83 -19 163t-46 135t-54.5 98.5t-46.5 64.5l-19 20z" />
<glyph unicode="&#xd9;" horiz-adv-x="1536" d="M225 543v891h41v-891q0 -109 40 -206.5t107.5 -166.5t160 -109.5t194.5 -40.5t194.5 40.5t160 109.5t107.5 166.5t40 206.5v891h41v-891q0 -155 -73.5 -285t-198 -204t-271.5 -74t-271.5 74t-198 204t-73.5 285zM594 1905h51l154 -246h-41z" />
<glyph unicode="&#xda;" horiz-adv-x="1536" d="M225 543v891h41v-891q0 -109 40 -206.5t107.5 -166.5t160 -109.5t194.5 -40.5t194.5 40.5t160 109.5t107.5 166.5t40 206.5v891h41v-891q0 -155 -73.5 -285t-198 -204t-271.5 -74t-271.5 74t-198 204t-73.5 285zM737 1638l154 246h51l-164 -246h-41z" />
<glyph unicode="&#xdb;" horiz-adv-x="1536" d="M225 543v891h41v-891q0 -109 40 -206.5t107.5 -166.5t160 -109.5t194.5 -40.5t194.5 40.5t160 109.5t107.5 166.5t40 206.5v891h41v-891q0 -155 -73.5 -285t-198 -204t-271.5 -74t-271.5 74t-198 204t-73.5 285zM532 1638l216 246h40l216 -246h-52l-184 215l-184 -215 h-52z" />
<glyph unicode="&#xdc;" horiz-adv-x="1536" d="M225 543v891h41v-891q0 -109 40 -206.5t107.5 -166.5t160 -109.5t194.5 -40.5t194.5 40.5t160 109.5t107.5 166.5t40 206.5v891h41v-891q0 -155 -73.5 -285t-198 -204t-271.5 -74t-271.5 74t-198 204t-73.5 285zM563 1761q0 15 13 28t28 13t28 -13t13 -28t-13 -28 t-28 -13t-28 13t-13 28zM891 1761q0 15 13 28t28 13t28 -13t13 -28t-13 -28t-28 -13t-28 13t-13 28z" />
<glyph unicode="&#xdd;" d="M61 1434h52l501 -891l502 891h51l-532 -932v-502h-41v502zM604 1638l154 246h51l-164 -246h-41z" />
<glyph unicode="&#xde;" horiz-adv-x="1341" d="M246 -41v1516h41v-318h481q197 0 324 -120.5t127 -299.5t-127 -299.5t-324 -120.5h-481v-358h-41zM287 358h481q182 0 296 108t114 271t-114 271t-296 108h-481v-758z" />
<glyph unicode="&#xdf;" horiz-adv-x="1167" d="M195 0v1106q0 140 108 244t260 104t260.5 -104t108.5 -244q0 -66 -23 -123t-56 -91.5t-66.5 -59t-56.5 -34.5l-23 -10q7 -2 18.5 -5t45.5 -17t65 -31.5t69 -49.5t65 -70t45.5 -94.5t18.5 -121.5q0 -163 -122.5 -281t-297.5 -118h-61v41h61q160 0 269.5 105t109.5 253 t-109.5 253.5t-269.5 105.5h-61v41h10q137 0 232.5 91.5t95.5 215.5t-95.5 215.5t-232.5 91.5q-136 0 -231.5 -91t-95.5 -216v-1106h-41z" />
<glyph unicode="&#xe0;" horiz-adv-x="1034" d="M82 256q0 107 74.5 179t212.5 97l409 72v31q0 145 -87.5 236.5t-219.5 91.5q-55 0 -105.5 -16t-84 -38.5t-59 -45t-36.5 -38.5l-12 -16l-31 31q5 7 13.5 18t40 39t66.5 50t91.5 39.5t116.5 17.5q148 0 248 -104.5t100 -264.5v-635h-41v236q-3 -10 -10.5 -27.5t-37 -61.5 t-67 -78t-105.5 -61.5t-148 -27.5q-142 0 -235 82.5t-93 193.5zM123 256q0 -96 80.5 -166t206.5 -70q155 0 261.5 111.5t106.5 278.5v153l-409 -71q-122 -22 -184 -82.5t-62 -153.5zM317 1434h52l153 -246h-41z" />
<glyph unicode="&#xe1;" horiz-adv-x="1034" d="M82 256q0 107 74.5 179t212.5 97l409 72v31q0 145 -87.5 236.5t-219.5 91.5q-55 0 -105.5 -16t-84 -38.5t-59 -45t-36.5 -38.5l-12 -16l-31 31q5 7 13.5 18t40 39t66.5 50t91.5 39.5t116.5 17.5q148 0 248 -104.5t100 -264.5v-635h-41v236q-3 -10 -10.5 -27.5t-37 -61.5 t-67 -78t-105.5 -61.5t-148 -27.5q-142 0 -235 82.5t-93 193.5zM123 256q0 -96 80.5 -166t206.5 -70q155 0 261.5 111.5t106.5 278.5v153l-409 -71q-122 -22 -184 -82.5t-62 -153.5zM471 1167l154 246h51l-164 -246h-41z" />
<glyph unicode="&#xe2;" horiz-adv-x="1034" d="M82 256q0 107 74.5 179t212.5 97l409 72v31q0 145 -87.5 236.5t-219.5 91.5q-55 0 -105.5 -16t-84 -38.5t-59 -45t-36.5 -38.5l-12 -16l-31 31q5 7 13.5 18t40 39t66.5 50t91.5 39.5t116.5 17.5q148 0 248 -104.5t100 -264.5v-635h-41v236q-3 -10 -10.5 -27.5t-37 -61.5 t-67 -78t-105.5 -61.5t-148 -27.5q-142 0 -235 82.5t-93 193.5zM123 256q0 -96 80.5 -166t206.5 -70q155 0 261.5 111.5t106.5 278.5v153l-409 -71q-122 -22 -184 -82.5t-62 -153.5zM266 1167l215 246h41l215 -246h-51l-184 215l-185 -215h-51z" />
<glyph unicode="&#xe3;" horiz-adv-x="1034" d="M82 256q0 107 74.5 179t212.5 97l409 72v31q0 145 -87.5 236.5t-219.5 91.5q-55 0 -105.5 -16t-84 -38.5t-59 -45t-36.5 -38.5l-12 -16l-31 31q5 7 13.5 18t40 39t66.5 50t91.5 39.5t116.5 17.5q148 0 248 -104.5t100 -264.5v-635h-41v236q-3 -10 -10.5 -27.5t-37 -61.5 t-67 -78t-105.5 -61.5t-148 -27.5q-142 0 -235 82.5t-93 193.5zM123 256q0 -96 80.5 -166t206.5 -70q155 0 261.5 111.5t106.5 278.5v153l-409 -71q-122 -22 -184 -82.5t-62 -153.5zM256 1167q0 102 37.5 153.5t95.5 51.5q34 0 63.5 -17t51 -41t42 -48t46 -41t53.5 -17 q92 0 92 164h41q0 -102 -37.5 -153.5t-95.5 -51.5q-34 0 -63.5 17t-51 41t-42 48t-46 41t-53.5 17q-92 0 -92 -164h-41z" />
<glyph unicode="&#xe4;" horiz-adv-x="1034" d="M82 256q0 107 74.5 179t212.5 97l409 72v31q0 145 -87.5 236.5t-219.5 91.5q-55 0 -105.5 -16t-84 -38.5t-59 -45t-36.5 -38.5l-12 -16l-31 31q5 7 13.5 18t40 39t66.5 50t91.5 39.5t116.5 17.5q148 0 248 -104.5t100 -264.5v-635h-41v236q-3 -10 -10.5 -27.5t-37 -61.5 t-67 -78t-105.5 -61.5t-148 -27.5q-142 0 -235 82.5t-93 193.5zM123 256q0 -96 80.5 -166t206.5 -70q155 0 261.5 111.5t106.5 278.5v153l-409 -71q-122 -22 -184 -82.5t-62 -153.5zM297 1290q0 15 13 28t28 13t28 -13t13 -28t-13 -28t-28 -13t-28 13t-13 28zM625 1290 q0 15 13 28t28 13t28 -13t13 -28t-13 -28t-28 -13t-28 13t-13 28z" />
<glyph unicode="&#xe5;" horiz-adv-x="1034" d="M82 256q0 107 74.5 179t212.5 97l409 72v31q0 145 -87.5 236.5t-219.5 91.5q-55 0 -105.5 -16t-84 -38.5t-59 -45t-36.5 -38.5l-12 -16l-31 31q5 7 13.5 18t40 39t66.5 50t91.5 39.5t116.5 17.5q148 0 248 -104.5t100 -264.5v-635h-41v236q-3 -10 -10.5 -27.5t-37 -61.5 t-67 -78t-105.5 -61.5t-148 -27.5q-142 0 -235 82.5t-93 193.5zM123 256q0 -96 80.5 -166t206.5 -70q155 0 261.5 111.5t106.5 278.5v153l-409 -71q-122 -22 -184 -82.5t-62 -153.5zM317 1311q0 76 54 130t131 54q76 0 130 -53.5t54 -130.5t-54 -131t-130 -54t-130.5 54 t-54.5 131zM358 1311q0 -61 41 -102.5t103 -41.5q61 0 102 41t41 103q0 61 -40.5 102t-102.5 41t-103 -41t-41 -102z" />
<glyph unicode="&#xe6;" horiz-adv-x="1730" d="M82 256q0 118 87 197t230 79h379v103q0 145 -87.5 236.5t-219.5 91.5q-55 0 -105.5 -16t-84 -38.5t-59 -45t-36.5 -38.5l-12 -16l-31 31q5 7 13.5 18t40 39t66.5 50t91.5 39.5t116.5 17.5q61 0 112 -17t85 -44t60.5 -60t41 -66t24 -60t12.5 -44l3 -17q2 6 7 17.5t22 43.5 t37 61t54 64.5t71 61t89.5 43t108.5 17.5q102 0 198.5 -64.5t159 -179.5t62.5 -248v-20h-799q7 -211 121 -341.5t279 -130.5q60 0 116 19t92.5 46t64.5 54.5t41 46.5l13 19l31 -21q-5 -8 -14.5 -22t-43.5 -49t-72 -62t-100 -49t-128 -22q-65 0 -122.5 18t-97.5 47t-74 63.5 t-54.5 69.5t-35 64t-20.5 47l-6 18q-1 -7 -4.5 -18.5t-17.5 -45.5t-32 -65t-50.5 -69t-71.5 -65t-97.5 -45.5t-125.5 -18.5q-142 0 -235 82.5t-93 193.5zM123 256q0 -96 80.5 -166t206.5 -70q155 0 261.5 111.5t106.5 278.5v82h-379q-127 0 -201.5 -66.5t-74.5 -169.5z M819 532h758q-4 90 -38 171t-86.5 137.5t-119.5 89.5t-135 33q-96 0 -184 -60.5t-141.5 -160.5t-53.5 -210z" />
<glyph unicode="&#xe7;" horiz-adv-x="1064" d="M113 492q0 140 66 258.5t174.5 186t230.5 67.5q69 0 132 -21t104 -51t72.5 -60.5t45.5 -51.5l14 -21l-30 -21q-2 4 -6.5 10.5t-21 26t-35 37t-48 38.5t-62 36.5t-76 26t-89.5 10.5q-112 0 -210.5 -61.5t-159 -171t-60.5 -238.5q0 -97 35.5 -185.5t94.5 -150.5t138 -99 t162 -37q63 0 121 19t95.5 46t66.5 54.5t42 46.5l13 19l30 -21q-5 -8 -14.5 -22t-44 -49t-73.5 -62t-103 -49t-133 -22l-52 -103q21 10 62 10q62 0 102.5 -40.5t40.5 -102.5q0 -63 -49.5 -108.5t-124.5 -45.5q-36 0 -72 13t-53 26l-18 13l20 30q51 -41 123 -41q60 0 96.5 33 t36.5 80q0 54 -29 83.5t-83 29.5q-18 0 -36 -5.5t-27 -10.5l-9 -5l-20 21l61 123q-84 4 -163.5 44.5t-141 107t-98.5 161t-37 199.5z" />
<glyph unicode="&#xe8;" horiz-adv-x="1126" d="M113 492q0 109 37 205t99 163t144 105.5t170 38.5t170 -38.5t144 -105.5t99.5 -163.5t37.5 -204.5v-21h-860q7 -190 133.5 -320.5t296.5 -130.5q63 0 121 19t95.5 46t66.5 54.5t42 46.5l13 19l30 -21q-5 -8 -14.5 -22t-44 -49t-73.5 -62t-103 -49t-133 -22 q-122 0 -230.5 67.5t-174.5 186t-66 258.5zM154 512h819q0 94 -34 178.5t-90 143.5t-131 94t-155 35q-107 0 -200.5 -58.5t-151 -163t-57.5 -229.5zM399 1434h52l153 -246h-41z" />
<glyph unicode="&#xe9;" horiz-adv-x="1126" d="M113 492q0 109 37 205t99 163t144 105.5t170 38.5t170 -38.5t144 -105.5t99.5 -163.5t37.5 -204.5v-21h-860q7 -190 133.5 -320.5t296.5 -130.5q63 0 121 19t95.5 46t66.5 54.5t42 46.5l13 19l30 -21q-5 -8 -14.5 -22t-44 -49t-73.5 -62t-103 -49t-133 -22 q-122 0 -230.5 67.5t-174.5 186t-66 258.5zM154 512h819q0 94 -34 178.5t-90 143.5t-131 94t-155 35q-107 0 -200.5 -58.5t-151 -163t-57.5 -229.5zM543 1167l153 246h52l-164 -246h-41z" />
<glyph unicode="&#xea;" horiz-adv-x="1126" d="M113 492q0 109 37 205t99 163t144 105.5t170 38.5t170 -38.5t144 -105.5t99.5 -163.5t37.5 -204.5v-21h-860q7 -190 133.5 -320.5t296.5 -130.5q63 0 121 19t95.5 46t66.5 54.5t42 46.5l13 19l30 -21q-5 -8 -14.5 -22t-44 -49t-73.5 -62t-103 -49t-133 -22 q-122 0 -230.5 67.5t-174.5 186t-66 258.5zM154 512h819q0 94 -34 178.5t-90 143.5t-131 94t-155 35q-107 0 -200.5 -58.5t-151 -163t-57.5 -229.5zM338 1167l215 246h41l215 -246h-51l-185 215l-184 -215h-51z" />
<glyph unicode="&#xeb;" horiz-adv-x="1126" d="M113 492q0 109 37 205t99 163t144 105.5t170 38.5t170 -38.5t144 -105.5t99.5 -163.5t37.5 -204.5v-21h-860q7 -190 133.5 -320.5t296.5 -130.5q63 0 121 19t95.5 46t66.5 54.5t42 46.5l13 19l30 -21q-5 -8 -14.5 -22t-44 -49t-73.5 -62t-103 -49t-133 -22 q-122 0 -230.5 67.5t-174.5 186t-66 258.5zM154 512h819q0 94 -34 178.5t-90 143.5t-131 94t-155 35q-107 0 -200.5 -58.5t-151 -163t-57.5 -229.5zM369 1290q0 15 13 28t28 13t28 -13t13 -28t-13 -28t-28 -13t-28 13t-13 28zM696 1290q0 15 13 28t28 13t28 -13t13 -28 t-13 -28t-28 -13t-28 13t-13 28z" />
<glyph unicode="&#xec;" horiz-adv-x="450" d="M31 1434h51l154 -246h-41zM195 0v983h41v-983h-41z" />
<glyph unicode="&#xed;" horiz-adv-x="450" d="M195 0v983h41v-983h-41zM195 1167l153 246h51l-163 -246h-41z" />
<glyph unicode="&#xee;" horiz-adv-x="450" d="M-20 1167l215 246h41l215 -246h-52l-184 215l-184 -215h-51zM195 0v983h41v-983h-41z" />
<glyph unicode="&#xef;" horiz-adv-x="450" d="M10 1290q0 15 13 28t28 13t28 -13t13 -28t-13 -28t-28 -13t-28 13t-13 28zM195 0v983h41v-983h-41zM338 1290q0 15 13 28t28 13t28 -13t13 -28t-13 -28t-28 -13t-28 13t-13 28z" />
<glyph unicode="&#xf0;" horiz-adv-x="1239" d="M113 471q0 135 64 248.5t172.5 178.5t234.5 65q72 0 136 -20t104.5 -48.5t71 -57.5t43.5 -49l13 -20h11q-23 86 -67 178.5t-91 163t-90 128.5t-71 89l-28 31l-217 -139l-30 20l225 143q-14 14 -37.5 36t-86 72t-112.5 77l31 20q59 -36 118 -82t89 -74l29 -28l194 123 l31 -21l-203 -127q17 -17 44.5 -48t97.5 -129t124 -199t98 -247t44 -284q0 -135 -64 -248.5t-172.5 -178t-234.5 -64.5t-234.5 64.5t-172.5 178t-64 248.5zM154 471q0 -191 126 -321t304 -130t304 130t126 321q0 121 -58 225t-157 165t-215 61q-178 0 -304 -130t-126 -321z " />
<glyph unicode="&#xf1;" horiz-adv-x="1187" d="M195 0v983h41v-246q2 6 5.5 15.5t17.5 37t31.5 53t48.5 56t66.5 53t87.5 37.5t111 15q164 0 276.5 -119t112.5 -301v-584h-41v584q0 167 -100 273t-248 106q-156 0 -262 -112.5t-106 -287.5v-563h-41zM344 1167q0 102 37.5 153.5t95.5 51.5q34 0 63.5 -17t51 -41t42 -48 t46 -41t53.5 -17q92 0 92 164h41q0 -102 -37.5 -153.5t-95.5 -51.5q-34 0 -63.5 17t-51 41t-42 48t-46 41t-53.5 17q-92 0 -92 -164h-41z" />
<glyph unicode="&#xf2;" horiz-adv-x="1187" d="M113 492q0 140 66 258.5t174.5 186t230.5 67.5t230.5 -67.5t174.5 -186t66 -258.5t-66 -258.5t-174.5 -186t-230.5 -67.5t-230.5 67.5t-174.5 186t-66 258.5zM154 492q0 -97 35.5 -185.5t94.5 -150.5t138 -99t162 -37t162 37t138 99t94.5 150.5t35.5 185.5 q0 129 -60.5 238.5t-159 171t-210.5 61.5t-210.5 -61.5t-159 -171t-60.5 -238.5zM410 1434h51l153 -246h-41z" />
<glyph unicode="&#xf3;" horiz-adv-x="1187" d="M113 492q0 140 66 258.5t174.5 186t230.5 67.5t230.5 -67.5t174.5 -186t66 -258.5t-66 -258.5t-174.5 -186t-230.5 -67.5t-230.5 67.5t-174.5 186t-66 258.5zM154 492q0 -97 35.5 -185.5t94.5 -150.5t138 -99t162 -37t162 37t138 99t94.5 150.5t35.5 185.5 q0 129 -60.5 238.5t-159 171t-210.5 61.5t-210.5 -61.5t-159 -171t-60.5 -238.5zM563 1167l154 246h51l-164 -246h-41z" />
<glyph unicode="&#xf4;" horiz-adv-x="1187" d="M113 492q0 140 66 258.5t174.5 186t230.5 67.5t230.5 -67.5t174.5 -186t66 -258.5t-66 -258.5t-174.5 -186t-230.5 -67.5t-230.5 67.5t-174.5 186t-66 258.5zM154 492q0 -97 35.5 -185.5t94.5 -150.5t138 -99t162 -37t162 37t138 99t94.5 150.5t35.5 185.5 q0 129 -60.5 238.5t-159 171t-210.5 61.5t-210.5 -61.5t-159 -171t-60.5 -238.5zM348 1167l215 246h41l215 -246h-51l-184 215l-185 -215h-51z" />
<glyph unicode="&#xf5;" horiz-adv-x="1187" d="M113 492q0 140 66 258.5t174.5 186t230.5 67.5t230.5 -67.5t174.5 -186t66 -258.5t-66 -258.5t-174.5 -186t-230.5 -67.5t-230.5 67.5t-174.5 186t-66 258.5zM154 492q0 -97 35.5 -185.5t94.5 -150.5t138 -99t162 -37t162 37t138 99t94.5 150.5t35.5 185.5 q0 129 -60.5 238.5t-159 171t-210.5 61.5t-210.5 -61.5t-159 -171t-60.5 -238.5zM324 1167q0 102 37.5 153.5t95.5 51.5q34 0 63.5 -17t51 -41t42 -48t46 -41t53.5 -17q92 0 92 164h41q0 -102 -37.5 -153.5t-95.5 -51.5q-34 0 -63.5 17t-51 41t-42 48t-46 41t-53.5 17 q-92 0 -92 -164h-41z" />
<glyph unicode="&#xf6;" horiz-adv-x="1187" d="M113 492q0 140 66 258.5t174.5 186t230.5 67.5t230.5 -67.5t174.5 -186t66 -258.5t-66 -258.5t-174.5 -186t-230.5 -67.5t-230.5 67.5t-174.5 186t-66 258.5zM154 492q0 -97 35.5 -185.5t94.5 -150.5t138 -99t162 -37t162 37t138 99t94.5 150.5t35.5 185.5 q0 129 -60.5 238.5t-159 171t-210.5 61.5t-210.5 -61.5t-159 -171t-60.5 -238.5zM379 1290q0 15 13 28t28 13t28 -13t13 -28t-13 -28t-28 -13t-28 13t-13 28zM707 1290q0 15 13 28t28 13t27.5 -13t12.5 -28t-12.5 -28t-27.5 -13t-28 13t-13 28z" />
<glyph unicode="&#xf7;" horiz-adv-x="1003" d="M102 584v41h799v-41h-799zM461 225q0 15 13 28t28 13t28 -13t13 -28t-13 -28t-28 -13t-28 13t-13 28zM461 983q0 15 13 28t28 13t28 -13t13 -28t-13 -28t-28 -13t-28 13t-13 28z" />
<glyph unicode="&#xf8;" horiz-adv-x="1187" d="M82 0l154 154q-5 5 -13.5 15.5t-29.5 44.5t-37 70.5t-29.5 93.5t-13.5 114q0 140 66 258.5t174.5 186t230.5 67.5q55 0 107.5 -15t89 -36t65 -42t42.5 -36l13 -15l154 154l30 -31l-153 -154q5 -5 13.5 -15.5t29.5 -44t37 -70.5t29.5 -93.5t13.5 -113.5q0 -140 -66 -258.5 t-174.5 -186t-230.5 -67.5q-55 0 -107.5 14.5t-89 35.5t-65 42.5t-42.5 35.5l-14 15l-153 -154zM154 492q0 -52 10.5 -102.5t25.5 -86t30 -63.5t26 -42l10 -14l625 645q-5 5 -13.5 14.5t-38 32.5t-61.5 40.5t-82 32t-102 14.5q-112 0 -210.5 -61.5t-159 -171t-60.5 -238.5z M287 154q5 -5 13.5 -14.5t38 -32.5t61.5 -40.5t82 -32t102 -14.5q83 0 162 37t138 99t94.5 150.5t35.5 185.5q0 82 -26 158.5t-52 112.5l-25 36z" />
<glyph unicode="&#xf9;" horiz-adv-x="1208" d="M195 399v584h41v-584q0 -167 100 -273t248 -106q156 0 262 112.5t106 287.5v563h41v-983h-41v246q-3 -11 -10.5 -29t-37 -63.5t-67 -81t-105.5 -64t-148 -28.5q-164 0 -276.5 118.5t-112.5 300.5zM420 1434h51l154 -246h-41z" />
<glyph unicode="&#xfa;" horiz-adv-x="1208" d="M195 399v584h41v-584q0 -167 100 -273t248 -106q156 0 262 112.5t106 287.5v563h41v-983h-41v246q-3 -11 -10.5 -29t-37 -63.5t-67 -81t-105.5 -64t-148 -28.5q-164 0 -276.5 118.5t-112.5 300.5zM563 1167l154 246h51l-164 -246h-41z" />
<glyph unicode="&#xfb;" horiz-adv-x="1208" d="M195 399v584h41v-584q0 -167 100 -273t248 -106q156 0 262 112.5t106 287.5v563h41v-983h-41v246q-3 -11 -10.5 -29t-37 -63.5t-67 -81t-105.5 -64t-148 -28.5q-164 0 -276.5 118.5t-112.5 300.5zM358 1167l215 246h41l215 -246h-51l-184 215l-184 -215h-52z" />
<glyph unicode="&#xfc;" horiz-adv-x="1208" d="M195 399v584h41v-584q0 -167 100 -273t248 -106q156 0 262 112.5t106 287.5v563h41v-983h-41v246q-3 -11 -10.5 -29t-37 -63.5t-67 -81t-105.5 -64t-148 -28.5q-164 0 -276.5 118.5t-112.5 300.5zM389 1290q0 15 13 28t28 13t28 -13t13 -28t-13 -28t-28 -13t-28 13 t-13 28zM717 1290q0 15 13 28t28 13t28 -13t13 -28t-13 -28t-28 -13t-28 13t-13 28z" />
<glyph unicode="&#xfd;" horiz-adv-x="962" d="M51 983h41l379 -932l379 932h41l-492 -1208q-41 -103 -97 -154t-138 -51q-23 0 -43.5 5t-29.5 10l-9 5v41q31 -20 82 -20q128 0 194 164l93 225zM461 1167l153 246h52l-164 -246h-41z" />
<glyph unicode="&#xfe;" d="M195 -430v1864h41v-738q3 6 8 17.5t23 43.5t39.5 61t57 64.5t75 61t93.5 43t113 17.5q84 0 165.5 -40t144.5 -107.5t102 -164t39 -200.5t-39 -200.5t-102 -164t-144.5 -107.5t-165.5 -40q-59 0 -113 17t-94 44t-74.5 59.5t-57 65.5t-39 60t-23.5 44l-8 17v-717h-41z M236 492q0 -97 35 -185.5t92.5 -150.5t131.5 -99t150 -37t150.5 37t131.5 99t92.5 150.5t35.5 185.5q0 129 -59.5 238.5t-154 171t-196.5 61.5t-196 -61.5t-153.5 -171t-59.5 -238.5z" />
<glyph unicode="&#xff;" horiz-adv-x="962" d="M51 983h41l379 -932l379 932h41l-492 -1208q-41 -103 -97 -154t-138 -51q-23 0 -43.5 5t-29.5 10l-9 5v41q31 -20 82 -20q128 0 194 164l93 225zM266 1290q0 15 13 28t28 13t28 -13t13 -28t-13 -28t-28 -13t-28 13t-13 28zM594 1290q0 15 13 28t28 13t28 -13t13 -28 t-13 -28t-28 -13t-28 13t-13 28z" />
<glyph unicode="&#x152;" horiz-adv-x="1996" d="M123 717q0 152 55.5 284.5t152.5 228t237 150t302 54.5h1024v-41h-778v-625h615v-41h-615v-686h799v-41h-1045q-162 0 -302 54.5t-237 150t-152.5 228t-55.5 284.5zM164 717q0 -144 51.5 -269.5t143.5 -215t224 -140.5t287 -51h205v1352h-205q-155 0 -287 -51 t-224 -140.5t-143.5 -215t-51.5 -269.5z" />
<glyph unicode="&#x153;" horiz-adv-x="1904" d="M113 492q0 108 37 204.5t98.5 163t141 105.5t163.5 39q65 0 123 -20t99 -51.5t76 -70t57 -77.5t37 -70.5t21 -51.5l7 -20q2 8 6 21t19.5 50.5t34.5 71.5t53 75.5t72.5 71.5t94.5 50.5t119 20.5q77 0 152.5 -39t134.5 -105.5t96 -163.5t37 -204v-21h-799q4 -94 38 -178 t88.5 -143.5t126 -94.5t147.5 -35q60 0 116 19t92.5 46t64.5 54.5t41 46.5l13 19l31 -21q-5 -8 -14.5 -22t-43.5 -49t-72 -62t-100 -49t-128 -22q-65 0 -123 19.5t-99 51.5t-76 70t-57 76t-37 70t-21 51l-7 20q-2 -7 -6.5 -20t-21.5 -50.5t-37.5 -71t-56 -75t-76.5 -71 t-99 -50t-123 -20.5q-84 0 -163.5 39t-141 105.5t-98.5 163t-37 204.5zM154 492q0 -101 33.5 -190t89 -150t128 -96.5t148.5 -35.5t148.5 35.5t128 96.5t89 150t33.5 190t-33.5 190t-89 149.5t-128 96t-148.5 35.5t-148.5 -35.5t-128 -96t-89 -149.5t-33.5 -190zM993 512 h758q-4 97 -38 182.5t-86.5 143.5t-119 91.5t-135.5 33.5q-148 0 -263.5 -134.5t-115.5 -316.5z" />
<glyph unicode="&#x178;" d="M61 1434h52l501 -891l502 891h51l-532 -932v-502h-41v502zM410 1761q0 15 13 28t28 13t28 -13t13 -28t-13 -28t-28 -13t-28 13t-13 28zM737 1761q0 15 13 28t28 13t28 -13t13 -28t-13 -28t-28 -13t-28 13t-13 28z" />
<glyph unicode="&#x2c6;" horiz-adv-x="593" d="M61 1167l215 246h41l215 -246h-51l-184 215l-184 -215h-52z" />
<glyph unicode="&#x2dc;" horiz-adv-x="645" d="M61 1188q0 102 38 153.5t96 51.5q34 0 63.5 -17t51 -41t42 -48t46 -41t53.5 -17q92 0 92 164h41q0 -102 -37.5 -153.5t-95.5 -51.5q-34 0 -63.5 17t-51 41t-42 48t-46 41t-53.5 17q-93 0 -93 -164h-41z" />
<glyph unicode="&#x2000;" horiz-adv-x="973" />
<glyph unicode="&#x2001;" horiz-adv-x="1946" />
<glyph unicode="&#x2002;" horiz-adv-x="973" />
<glyph unicode="&#x2003;" horiz-adv-x="1946" />
<glyph unicode="&#x2004;" horiz-adv-x="648" />
<glyph unicode="&#x2005;" horiz-adv-x="486" />
<glyph unicode="&#x2006;" horiz-adv-x="324" />
<glyph unicode="&#x2007;" horiz-adv-x="324" />
<glyph unicode="&#x2008;" horiz-adv-x="243" />
<glyph unicode="&#x2009;" horiz-adv-x="389" />
<glyph unicode="&#x200a;" horiz-adv-x="108" />
<glyph unicode="&#x2010;" horiz-adv-x="860" d="M102 584v41h656v-41h-656z" />
<glyph unicode="&#x2011;" horiz-adv-x="860" d="M102 584v41h656v-41h-656z" />
<glyph unicode="&#x2012;" horiz-adv-x="860" d="M102 584v41h656v-41h-656z" />
<glyph unicode="&#x2013;" horiz-adv-x="962" d="M102 584v41h758v-41h-758z" />
<glyph unicode="&#x2014;" horiz-adv-x="1454" d="M102 584v41h1250v-41h-1250z" />
<glyph unicode="&#x2018;" horiz-adv-x="378" d="M82 1180l194 297l21 -11l-164 -317z" />
<glyph unicode="&#x2019;" horiz-adv-x="378" d="M82 1159l164 318l51 -31l-195 -297z" />
<glyph unicode="&#x201a;" horiz-adv-x="358" d="M0 -236l164 318l51 -31l-195 -297z" />
<glyph unicode="&#x201c;" horiz-adv-x="624" d="M82 1180l194 297l21 -11l-164 -317zM328 1180l194 297l21 -11l-164 -317z" />
<glyph unicode="&#x201d;" horiz-adv-x="624" d="M82 1159l164 318l51 -31l-195 -297zM328 1159l164 318l51 -31l-195 -297z" />
<glyph unicode="&#x201e;" horiz-adv-x="604" d="M0 -236l164 318l51 -31l-195 -297zM246 -236l164 318l51 -31l-195 -297z" />
<glyph unicode="&#x2022;" horiz-adv-x="737" d="M246 492q0 54 34.5 88t88.5 34t88.5 -34t34.5 -88t-34.5 -88.5t-88.5 -34.5t-88.5 34.5t-34.5 88.5z" />
<glyph unicode="&#x2026;" horiz-adv-x="1146" d="M143 41q0 15 13 28t28 13t28 -13t13 -28t-13 -28t-28 -13t-28 13t-13 28zM532 41q0 15 13 28t28 13t28 -13t13 -28t-13 -28t-28 -13t-28 13t-13 28zM922 41q0 15 13 28t28 13t28 -13t13 -28t-13 -28t-28 -13t-28 13t-13 28z" />
<glyph unicode="&#x202f;" horiz-adv-x="389" />
<glyph unicode="&#x2039;" horiz-adv-x="512" d="M123 492l225 307h41l-225 -307l225 -308h-41z" />
<glyph unicode="&#x203a;" horiz-adv-x="512" d="M123 184l225 308l-225 307h41l225 -307l-225 -308h-41z" />
<glyph unicode="&#x205f;" horiz-adv-x="486" />
<glyph unicode="&#x20ac;" horiz-adv-x="1515" d="M82 532v41h194q-10 72 -10 144q0 32 2.5 68t5.5 55l2 20h-194v41h205q23 111 81 211.5t141 176.5t193 120.5t230 44.5q83 0 163 -23t135 -56t98.5 -66.5t63.5 -56.5l21 -23l-31 -31q-7 9 -20.5 23.5t-58.5 51.5t-93.5 65.5t-124.5 51.5t-153 23q-149 0 -278 -71 t-212 -186.5t-114 -254.5h573v-41h-584q-10 -71 -10 -143q0 -32 2.5 -68t4.5 -56l3 -20h584v-41h-573q31 -139 114 -254.5t212 -186.5t278 -71q77 0 152 22t126.5 54t92 64t59.5 54l20 22l31 -31q-8 -9 -22 -24t-61.5 -54t-100 -68.5t-133.5 -54t-164 -24.5 q-159 0 -297.5 76.5t-227.5 201t-120 274.5h-205z" />
<glyph unicode="&#x2122;" horiz-adv-x="1402" d="M41 1393v41h471v-41h-215v-574h-41v574h-215zM645 819v615h31l266 -369l266 369h31v-615h-41v533l-256 -359l-256 359v-533h-41z" />
<glyph unicode="&#x25fc;" horiz-adv-x="983" d="M0 0v983h983v-983h-983z" />
<glyph unicode="&#xfb02;" horiz-adv-x="1044" d="M72 942v41h164v154q0 137 86 227t210 90t210.5 -90.5t86.5 -226.5v-1137h-41v1137q0 121 -73.5 198.5t-182.5 77.5t-182.5 -77.5t-73.5 -198.5v-154h246v-41h-246v-942h-40v942h-164z" />
</font>
</defs>
</svg>
