<?xml version="1.0" encoding="UTF-8"?>
<svg width="21px" height="41px" viewBox="0 0 21 41" version="1.1" xmlns="http://www.w3.org/2000/svg" xmlns:xlink="http://www.w3.org/1999/xlink">
    <!-- Generator: Sketch 61 (89581) - https://sketch.com -->
    <title>Group 5</title>
    <desc>Created with Sketch.</desc>
    <g id="Page-1" stroke="none" stroke-width="1" fill="none" fill-rule="evenodd">
        <g id="Hanshin_Home_V8" transform="translate(-110.000000, -1013.000000)" fill="#FFFFFF">
            <g id="Group-5" transform="translate(110.000000, 1013.000000)">
                <polygon id="Rectangle" points="0 -2.83661983e-14 21 -2.83661983e-14 21 7 -2.8449465e-14 7"></polygon>
                <polygon id="Rectangle-Copy-25" points="4 10 17 10 17 12 4 13"></polygon>
                <polygon id="Rectangle-Copy-26" points="4 15 17 14 17 16 4 17"></polygon>
                <polygon id="Rectangle-Copy-27" points="4 19 17 18 17 20 4 21"></polygon>
                <polygon id="Rectangle-Copy-28" points="4 23 17 22 17 24 4 25"></polygon>
                <polygon id="Rectangle-Copy-29" points="4 27 17 26 17 28 4 29"></polygon>
                <polygon id="Rectangle-Copy-30" points="4 31 17 30 17 32 4 33"></polygon>
                <polygon id="Rectangle-Copy-31" points="4 35 17 34 17 36 4 37"></polygon>
                <polygon id="Rectangle-Copy-32" points="4 39 17 38 17 41 4 41"></polygon>
            </g>
        </g>
    </g>
</svg>