<?xml version="1.0" encoding="UTF-8"?>
<svg width="77px" height="37px" viewBox="0 0 77 37" version="1.1" xmlns="http://www.w3.org/2000/svg" xmlns:xlink="http://www.w3.org/1999/xlink">
    <!-- Generator: Sketch 62 (91390) - https://sketch.com -->
    <title>delivery-truck</title>
    <desc>Created with Sketch.</desc>
    <g id="Desktop-all-page" stroke="none" stroke-width="1" fill="none" fill-rule="evenodd">
        <g id="Checkout" transform="translate(-1086.000000, -1342.000000)" fill="#000000" fill-rule="nonzero">
            <g id="delivery-truck" transform="translate(1086.000000, 1342.000000)">
                <path d="M76.42095,18.5091 L67.5123,8.33895 C67.22175,8.00745 66.80235,7.8171 66.3615,7.8171 L58.94325,7.8171 L58.94325,1.5363 C58.94325,0.69135 58.2582,0.00645 57.4134,0.00645 L25.81635,0.00645 C24.97155,0.00645 24.2865,0.69135 24.2865,1.5363 L24.2865,3.6006 L9.5727,3.6006 C8.7279,3.6006 8.04285,4.2855 8.04285,5.13045 C8.04285,5.9754 8.7279,6.6603 9.5727,6.6603 L24.2865,6.6603 L24.2865,26.4918 L15.4296,26.4918 C14.5848,26.4918 13.89975,27.1767 13.89975,28.02165 C13.89975,28.8666 14.5848,29.5515 15.4296,29.5515 L24.2865,29.5515 L24.2865,31.10625 C24.2865,31.9512 24.97155,32.6361 25.81635,32.6361 L29.00955,32.6361 C29.6823,35.08695 31.9284,36.8934 34.59,36.8934 C37.2516,36.8934 39.4977,35.08695 40.1706,32.6361 L60.58395,32.6361 L60.58395,32.63595 C61.2567,35.0868 63.5028,36.8934 66.1644,36.8934 C68.826,36.8934 71.0721,35.0868 71.745,32.63595 L75.2703,32.63595 C76.1151,32.63595 76.80015,31.95105 76.80015,31.1061 L76.80015,19.51695 C76.80015,19.1463 76.66515,18.78795 76.42095,18.5091 Z M34.59,33.8337 C33.0861,33.8337 31.8627,32.61015 31.8627,31.10625 C31.8627,29.60235 33.0861,28.3788 34.59,28.3788 C36.0939,28.3788 37.31745,29.60235 37.31745,31.10625 C37.31745,32.61015 36.0939,33.8337 34.59,33.8337 Z M40.1703,29.5764 C39.49755,27.12555 37.2513,25.3191 34.5897,25.3191 C31.9281,25.3191 29.68215,27.12555 29.00925,29.5764 L27.3459,29.5764 L27.3459,3.066 L55.88295,3.066 L55.88295,29.5764 L40.1703,29.5764 Z M66.1641,33.8337 C64.6602,33.8337 63.4368,32.61015 63.4368,31.10625 C63.4368,29.60235 64.6602,28.3788 66.1641,28.3788 C67.668,28.3788 68.89155,29.60235 68.89155,31.10625 C68.89155,32.61015 67.66815,33.8337 66.1641,33.8337 Z M73.7403,29.5764 L71.7447,29.5764 C71.07195,27.12555 68.8257,25.3191 66.1641,25.3191 C63.5025,25.3191 61.25655,27.12555 60.58365,29.5764 L58.9428,29.5764 L58.9428,10.8768 L65.66745,10.8768 L73.74015,20.09235 L73.74015,29.5764 L73.7403,29.5764 Z" id="Shape"></path>
                <path d="M10.38915,26.49165 L9.57285,26.49165 C8.72805,26.49165 8.043,27.17655 8.043,28.0215 C8.043,28.86645 8.72805,29.55135 9.57285,29.55135 L10.38915,29.55135 C11.23395,29.55135 11.919,28.86645 11.919,28.0215 C11.919,27.17655 11.2341,26.49165 10.38915,26.49165 Z" id="Path"></path>
                <path d="M17.925,14.8914 L1.52985,14.8914 C0.68505,14.8914 0,15.5763 0,16.42125 C0,17.2662 0.68505,17.9511 1.52985,17.9511 L17.925,17.9511 C18.7698,17.9511 19.45485,17.2662 19.45485,16.42125 C19.45485,15.5763 18.7698,14.8914 17.925,14.8914 Z" id="Path"></path>
            </g>
        </g>
    </g>
</svg>