<?xml version="1.0" encoding="UTF-8"?>
<svg width="41px" height="41px" viewBox="0 0 41 41" version="1.1" xmlns="http://www.w3.org/2000/svg" xmlns:xlink="http://www.w3.org/1999/xlink">
    <!-- Generator: Sketch 61 (89581) - https://sketch.com -->
    <title>customer-support</title>
    <desc>Created with Sketch.</desc>
    <g id="Page-1" stroke="none" stroke-width="1" fill="none" fill-rule="evenodd">
        <g id="Hanshin_Home_V8" transform="translate(-104.000000, -3094.000000)" fill="#024D77" fill-rule="nonzero">
            <g id="customer-support" transform="translate(104.000000, 3094.000000)">
                <path d="M5.32755962,7.23210321 C5.45402961,7.26383634 5.56976769,7.32943052 5.66200658,7.4215769 L15.966396,17.7261513 L17.8309724,15.8617599 L7.52639803,5.55718545 C7.43397409,5.46485402 7.36865749,5.3487459 7.33673932,5.22190584 L6.68819901,2.63662624 L2.38895972,0.178741776 L0.283655416,2.28395354 L2.74228001,6.58615337 L5.32755962,7.23210321 Z" id="Path"></path>
                <path d="M14.4905736,30.7371094 L30.842023,14.3853824 C31.0211349,14.2060855 31.2810136,14.1342003 31.5267372,14.1953536 C33.679595,14.7471217 35.966324,14.2689967 37.718493,12.9019737 C39.4709395,11.5348581 40.4902858,9.4325144 40.4786367,7.21017682 C40.4786367,7.07482525 40.474558,6.938456 40.4657689,6.80088406 L36.6626028,10.6035876 C36.469891,10.7964844 36.1841077,10.8641139 35.9250617,10.7777035 L31.5994552,9.33564967 C31.3840769,9.26431948 31.2151419,9.09538446 31.1432566,8.88019119 L29.7015728,4.55449218 C29.6150699,4.29581619 29.6825144,4.00994038 29.8756887,3.81685855 L33.6787623,0.0138774789 C31.3886102,-0.128597874 29.168308,0.833573179 27.7055304,2.60137748 C26.2429379,4.36955182 25.7143914,6.73075658 26.2832751,8.95346422 C26.344891,9.19955797 26.2730983,9.45934416 26.0938014,9.63854853 L9.74262953,25.9891653 C9.56324013,26.1670744 9.30363897,26.2392372 9.05773026,26.1790091 C8.48847657,26.032833 7.90303249,25.9570621 7.31499795,25.9547492 C4.21005344,25.934303 1.43576275,27.8916735 0.413455997,30.8241674 C-0.608295647,33.7563836 0.348601974,37.0141653 2.79399671,38.9279605 C5.23939145,40.8417558 8.63159949,40.9881168 11.2324219,39.2913651 C13.8334293,37.594706 15.0666735,34.4313836 14.3001747,31.4218236 C14.2392064,31.1761924 14.3112767,30.9159437 14.4905736,30.7371094 Z M9.06984992,36.0481086 L5.56070106,36.0481086 L3.8299959,33.1644634 L5.56070106,30.2803557 L9.06984992,30.2803557 L10.800185,33.1644634 L9.06984992,36.0481086 Z M11.8521896,27.6079256 L27.7128392,11.7470909 L28.7320929,12.7665296 L12.8714433,28.6273643 L11.8521896,27.6079256 Z" id="Shape"></path>
                <path d="M34.5671053,40.0942229 C36.1729132,40.6979852 37.9833676,40.3064556 39.1965358,39.0933799 C40.4097965,37.8799342 40.8014186,36.0692023 40.1973787,34.4637644 L34.5671053,40.0942229 Z" id="Path"></path>
                <path d="M39.1966283,32.9020868 L31.0993113,24.8015317 C30.2061575,25.5523026 28.887243,25.49522 28.0617188,24.6707134 C27.236102,23.8463919 27.1779091,22.5278474 27.9273849,21.6337685 L26.7806435,20.4856394 L20.5906455,26.6759149 L21.7443257,27.8295025 C22.6374795,27.0787315 23.9565789,27.1356291 24.7816406,27.9598581 C25.6071649,28.7843647 25.6657278,30.1030942 24.9161595,30.9972656 L33.0066303,39.0919922 C33.094891,39.1802529 33.1880551,39.2620374 33.2821443,39.3416016 L39.4464227,33.1773232 C39.3670436,33.0830489 39.284889,32.9902549 39.1966283,32.9020868 Z M34.9221834,35.8367085 L27.7128392,28.6273643 L28.7320929,27.6079256 L35.9416221,34.8176398 L34.9221834,35.8367085 Z" id="Shape"></path>
            </g>
        </g>
    </g>
</svg>