<?xml version="1.0" encoding="UTF-8"?>
<svg width="21px" height="41px" viewBox="0 0 21 41" version="1.1" xmlns="http://www.w3.org/2000/svg" xmlns:xlink="http://www.w3.org/1999/xlink">
    <!-- Generator: Sketch 61 (89581) - https://sketch.com -->
    <title>Group 5 Copy</title>
    <desc>Created with Sketch.</desc>
    <g id="Page-1" stroke="none" stroke-width="1" fill="none" fill-rule="evenodd">
        <g id="Hanshin_Home_V8" transform="translate(-110.000000, -1532.000000)" fill="#FFFFFF">
            <g id="Group-7" transform="translate(60.000000, 1476.000000)">
                <g id="Group-5-Copy" transform="translate(50.000000, 56.000000)">
                    <path d="M21,0 L21,7 L0,7 L0,0 L9,0 L9,4 L12,4 L12,0 L21,0 Z" id="Combined-Shape"></path>
                    <polygon id="Rectangle-Copy-25" points="4 10.0830636 17 10.0830636 17 12 4 13"></polygon>
                    <polygon id="Rectangle-Copy-26" points="4 15 17 14 17 16 4 17"></polygon>
                    <polygon id="Rectangle-Copy-27" points="4 19 17 18 17 20 4 21"></polygon>
                    <polygon id="Rectangle-Copy-28" points="4 23 17 22 17 24 4 25"></polygon>
                    <polygon id="Rectangle-Copy-29" points="4 27 17 26 17 28 4 29"></polygon>
                    <polygon id="Rectangle-Copy-30" points="4 31 17 30 17 36.0127179 10.8293112 41.0127179 4 36.0127179"></polygon>
                </g>
            </g>
        </g>
    </g>
</svg>