<?xml version="1.0" encoding="UTF-8"?>
<svg width="116px" height="40px" viewBox="0 0 116 40" version="1.1" xmlns="http://www.w3.org/2000/svg" xmlns:xlink="http://www.w3.org/1999/xlink">
    <!-- Generator: Sketch 62 (91390) - https://sketch.com -->
    <title>Group</title>
    <desc>Created with Sketch.</desc>
    <g id="Desktop-all-page" stroke="none" stroke-width="1" fill="none" fill-rule="evenodd">
        <g id="Contact-us" transform="translate(-619.000000, -912.000000)" fill="#FFFFFF" fill-rule="nonzero">
            <g id="Group" transform="translate(619.000000, 912.000000)">
                <polygon id="Path" points="5.301 18.468 5.301 8.4645 13.02165 18.468 17.22825 18.468 17.22825 0.513 12.35475 0.513 12.35475 10.5165 4.65975 0.513 0.4275 0.513 0.4275 18.468"></polygon>
                <polygon id="Path" points="35.43975 18.468 35.43975 14.364 26.20575 14.364 26.20575 11.286 33.13125 11.286 33.13125 7.4385 26.20575 7.4385 26.20575 4.617 35.18325 4.617 35.18325 0.513 21.33225 0.513 21.33225 18.468"></polygon>
                <path d="M41.4675,18.981 C42.4251,18.981 43.30575,18.81855 44.10945,18.49365 C44.91315,18.16875 45.601425,17.7156 46.174275,17.1342 C46.747125,16.5528 47.196,15.8517 47.5209,15.0309 C47.8458,14.2101 48.00825,13.3038 48.00825,12.312 L48.00825,0.513 L43.13475,0.513 L43.13475,12.312 C43.13475,13.0302 42.9381,13.5945 42.5448,14.0049 C42.1515,14.4153 41.66415,14.6205 41.08275,14.6205 C40.75785,14.6205 40.4757,14.57775 40.2363,14.49225 C39.9969,14.40675 39.80025,14.30415 39.64635,14.18445 C39.45825,14.04765 39.2958,13.89375 39.159,13.72275 L36.20925,16.6725 C36.58545,17.1171 37.03005,17.50185 37.54305,17.82675 C37.98765,18.11745 38.53485,18.3825 39.18465,18.6219 C39.83445,18.8613 40.5954,18.981 41.4675,18.981 Z" id="Path"></path>
                <polygon id="Path" points="56.8575 18.468 56.8575 0.513 51.984 0.513 51.984 18.468"></polygon>
                <path d="M69.426,0.513 C70.3836,0.513 71.26425,0.671175 72.06795,0.987525 C72.87165,1.303875 73.559925,1.739925 74.132775,2.295675 C74.705625,2.851425 75.1545,3.501225 75.4794,4.245075 C75.8043,4.988925 75.96675,5.7969 75.96675,6.669 C75.96675,7.6437 75.808575,8.4645 75.492225,9.1314 C75.175875,9.7983 74.82105,10.33695 74.42775,10.74735 C73.98315,11.24325 73.47015,11.63655 72.88875,11.92725 L72.88875,11.92725 L76.608,18.468 L71.478,18.468 L68.4,12.825 L65.835,12.825 L65.835,18.468 L60.9615,18.468 L60.9615,0.513 Z M69.1695,4.8735 L65.835,4.8735 L65.835,8.4645 L69.1695,8.4645 C69.7509,8.4645 70.216875,8.2935 70.567425,7.9515 C70.917975,7.6095 71.09325,7.182 71.09325,6.669 C71.09325,6.156 70.917975,5.7285 70.567425,5.3865 C70.216875,5.0445 69.7509,4.8735 69.1695,4.8735 L69.1695,4.8735 Z" id="Combined-Shape"></path>
                <polygon id="Path" points="93.537 18.468 93.537 14.364 84.303 14.364 84.303 11.286 91.2285 11.286 91.2285 7.4385 84.303 7.4385 84.303 4.617 93.2805 4.617 93.2805 0.513 79.4295 0.513 79.4295 18.468"></polygon>
                <path d="M105.5925,6.62581101e-14 C106.9947,6.62581101e-14 108.307125,0.252225 109.529775,0.756675 C110.752425,1.261125 111.812625,1.9494 112.710375,2.8215 C113.608125,3.6936 114.3135,4.7025 114.8265,5.8482 C115.3395,6.9939 115.596,8.208 115.596,9.4905 C115.596,10.773 115.3395,11.9871 114.8265,13.1328 C114.3135,14.2785 113.608125,15.2874 112.710375,16.1595 C111.812625,17.0316 110.752425,17.719875 109.529775,18.224325 C108.307125,18.728775 106.9947,18.981 105.5925,18.981 C104.1732,18.981 102.8565,18.728775 101.6424,18.224325 C100.4283,17.719875 99.372375,17.0316 98.474625,16.1595 C97.576875,15.2874 96.8715,14.2785 96.3585,13.1328 C95.8455,11.9871 95.589,10.773 95.589,9.4905 C95.589,8.208 95.8455,6.9939 96.3585,5.8482 C96.8715,4.7025 97.576875,3.6936 98.474625,2.8215 C99.372375,1.9494 100.4283,1.261125 101.6424,0.756675 C102.8565,0.252225 104.1732,6.62581101e-14 105.5925,6.62581101e-14 Z M105.5925,4.3605 C104.8914,4.3605 104.23305,4.48875 103.61745,4.74525 C103.00185,5.00175 102.47175,5.36085 102.02715,5.82255 C101.58255,6.28425 101.232,6.827175 100.9755,7.451325 C100.719,8.075475 100.59075,8.7552 100.59075,9.4905 C100.59075,10.2258 100.719,10.905525 100.9755,11.529675 C101.232,12.153825 101.58255,12.69675 102.02715,13.15845 C102.47175,13.62015 103.00185,13.97925 103.61745,14.23575 C104.23305,14.49225 104.8914,14.6205 105.5925,14.6205 C106.2936,14.6205 106.947675,14.49225 107.554725,14.23575 C108.161775,13.97925 108.691875,13.62015 109.145025,13.15845 C109.598175,12.69675 109.953,12.153825 110.2095,11.529675 C110.466,10.905525 110.59425,10.2258 110.59425,9.4905 C110.59425,8.7552 110.466,8.075475 110.2095,7.451325 C109.953,6.827175 109.598175,6.28425 109.145025,5.82255 C108.691875,5.36085 108.161775,5.00175 107.554725,4.74525 C106.947675,4.48875 106.2936,4.3605 105.5925,4.3605 Z" id="Combined-Shape"></path>
                <path d="M2.6163,37.3806 C2.93778,37.3806 3.24387,37.31391 3.53457,37.18053 C3.82527,37.04715 4.08177,36.86589 4.30407,36.63675 C4.52637,36.40761 4.7025,36.13743 4.83246,35.82621 C4.96242,35.51499 5.0274,35.17812 5.0274,34.8156 C5.0274,34.45992 4.96242,34.12476 4.83246,33.81012 C4.7025,33.49548 4.52637,33.22359 4.30407,32.99445 C4.08177,32.76531 3.82527,32.58405 3.53457,32.45067 C3.24387,32.31729 2.93778,32.2506 2.6163,32.2506 C2.37006,32.2506 2.14947,32.28651 1.95453,32.35833 C1.75959,32.43015 1.59372,32.5071 1.45692,32.58918 C1.29276,32.68494 1.14912,32.79438 1.026,32.9175 L1.026,32.9175 L1.026,30.096 L1.75504056e-13,30.096 L1.75504056e-13,37.278 L1.026,37.278 L1.026,36.7137 C1.14912,36.84366 1.29276,36.95652 1.45692,37.05228 C1.59372,37.13436 1.75959,37.2096 1.95453,37.278 C2.14947,37.3464 2.37006,37.3806 2.6163,37.3806 Z M2.5137,36.4572 C2.32218,36.4572 2.1375,36.41445 1.95966,36.32895 C1.78182,36.24345 1.62279,36.12717 1.48257,35.98011 C1.34235,35.83305 1.2312,35.66034 1.14912,35.46198 C1.06704,35.26362 1.026,35.04816 1.026,34.8156 C1.026,34.58304 1.06704,34.36758 1.14912,34.16922 C1.2312,33.97086 1.34235,33.79815 1.48257,33.65109 C1.62279,33.50403 1.78182,33.38775 1.95966,33.30225 C2.1375,33.21675 2.32218,33.174 2.5137,33.174 C2.70522,33.174 2.8899,33.21675 3.06774,33.30225 C3.24558,33.38775 3.40461,33.50403 3.54483,33.65109 C3.68505,33.79815 3.7962,33.97086 3.87828,34.16922 C3.96036,34.36758 4.0014,34.58304 4.0014,34.8156 C4.0014,35.04816 3.96036,35.26362 3.87828,35.46198 C3.7962,35.66034 3.68505,35.83305 3.54483,35.98011 C3.40461,36.12717 3.24558,36.24345 3.06774,36.32895 C2.8899,36.41445 2.70522,36.4572 2.5137,36.4572 Z M6.669,39.4326 C6.85368,39.4326 7.02297,39.40524 7.17687,39.35052 C7.33077,39.2958 7.47441,39.20346 7.60779,39.0735 C7.74117,38.94354 7.86942,38.77425 7.99254,38.56563 C8.11566,38.35701 8.23878,38.0988 8.3619,37.791 L8.3619,37.791 L10.5678,32.3532 L9.4905,32.3532 L8.0541,35.9442 L6.6177,32.3532 L5.5404,32.3532 L7.5411,37.278 L7.3359,37.791 C7.24014,38.02356 7.12215,38.2014 6.98193,38.32452 C6.84171,38.44764 6.669,38.5092 6.4638,38.5092 C6.33384,38.5092 6.21756,38.4921 6.11496,38.4579 C6.06024,38.44422 6.00552,38.42712 5.9508,38.4066 L5.9508,38.4066 L5.9508,39.33 C5.99868,39.35052 6.06024,39.36762 6.13548,39.3813 C6.27228,39.4155 6.45012,39.4326 6.669,39.4326 Z M14.9283,37.278 L14.9283,34.1487 L18.468,34.1487 L18.468,37.278 L19.5966,37.278 L19.5966,30.096 L18.468,30.096 L18.468,33.1227 L14.9283,33.1227 L14.9283,30.096 L13.7997,30.096 L13.7997,37.278 L14.9283,37.278 Z M22.7259,37.3806 C22.95846,37.3806 23.16537,37.34811 23.34663,37.28313 C23.52789,37.21815 23.6835,37.14804 23.81346,37.0728 C23.96394,36.98388 24.09732,36.88128 24.2136,36.765 L24.2136,36.765 L24.2136,37.278 L25.2396,37.278 L25.2396,34.0974 C25.2396,33.84432 25.19001,33.60492 25.09083,33.3792 C24.99165,33.15348 24.85314,32.95683 24.6753,32.78925 C24.49746,32.62167 24.282,32.49 24.02892,32.39424 C23.77584,32.29848 23.4954,32.2506 23.1876,32.2506 C22.85928,32.2506 22.57542,32.29848 22.33602,32.39424 C22.09662,32.49 21.89484,32.59602 21.73068,32.7123 C21.53916,32.8491 21.375,33.003 21.2382,33.174 L21.2382,33.174 L21.9051,33.8409 C21.99402,33.71778 22.10004,33.60834 22.22316,33.51258 C22.3326,33.4305 22.46598,33.35355 22.6233,33.28173 C22.78062,33.20991 22.96872,33.174 23.1876,33.174 C23.4954,33.174 23.74335,33.26292 23.93145,33.44076 C24.11955,33.6186 24.2136,33.83748 24.2136,34.0974 L24.2136,34.0974 L22.4181,34.4052 C21.98034,34.48044 21.6315,34.65315 21.37158,34.92333 C21.11166,35.19351 20.9817,35.5338 20.9817,35.9442 C20.9817,36.12204 21.02445,36.29817 21.10995,36.47259 C21.19545,36.64701 21.31515,36.80091 21.46905,36.93429 C21.62295,37.06767 21.80592,37.1754 22.01796,37.25748 C22.23,37.33956 22.46598,37.3806 22.7259,37.3806 Z M22.8798,36.4572 C22.59252,36.4572 22.37535,36.39393 22.22829,36.26739 C22.08123,36.14085 22.0077,35.99892 22.0077,35.8416 C22.0077,35.66376 22.06584,35.5167 22.18212,35.40042 C22.2984,35.28414 22.44546,35.2089 22.6233,35.1747 L22.6233,35.1747 L24.2136,34.9182 L24.2136,35.0208 C24.2136,35.48592 24.0939,35.8416 23.8545,36.08784 C23.6151,36.33408 23.2902,36.4572 22.8798,36.4572 Z M27.702,37.278 L27.702,34.6104 C27.702,34.14528 27.81828,33.7896 28.05084,33.54336 C28.2834,33.29712 28.59462,33.174 28.9845,33.174 C29.31966,33.174 29.6001,33.28857 29.82582,33.51771 C30.05154,33.74685 30.1644,34.04268 30.1644,34.4052 L30.1644,34.4052 L30.1644,37.278 L31.1904,37.278 L31.1904,34.4052 C31.1904,34.07004 31.14081,33.76908 31.04163,33.50232 C30.94245,33.23556 30.80565,33.00984 30.63123,32.82516 C30.45681,32.64048 30.24648,32.49855 30.00024,32.39937 C29.754,32.30019 29.48382,32.2506 29.1897,32.2506 C28.95714,32.2506 28.75023,32.28309 28.56897,32.34807 C28.38771,32.41305 28.2321,32.48316 28.10214,32.5584 C27.95166,32.64732 27.81828,32.74992 27.702,32.8662 L27.702,32.8662 L27.702,32.3532 L26.676,32.3532 L26.676,37.278 L27.702,37.278 Z M34.1145,37.3806 C34.39494,37.3806 34.64973,37.33956 34.87887,37.25748 C35.10801,37.1754 35.30295,37.06254 35.46369,36.9189 C35.62443,36.77526 35.74755,36.6111 35.83305,36.42642 C35.91855,36.24174 35.9613,36.0468 35.9613,35.8416 C35.9613,35.55432 35.89974,35.32176 35.77662,35.14392 C35.6535,34.96608 35.49789,34.82244 35.30979,34.713 C35.12169,34.60356 34.91991,34.51806 34.70445,34.4565 C34.48899,34.39494 34.28721,34.33167 34.09911,34.26669 C33.91101,34.20171 33.7554,34.12818 33.63228,34.0461 C33.50916,33.96402 33.4476,33.84432 33.4476,33.687 C33.4476,33.55704 33.50916,33.43905 33.63228,33.33303 C33.7554,33.22701 33.93324,33.174 34.1658,33.174 C34.3026,33.174 34.42914,33.19452 34.54542,33.23556 C34.6617,33.2766 34.76088,33.32448 34.84296,33.3792 C34.93872,33.44076 35.0208,33.50916 35.0892,33.5844 L35.0892,33.5844 L35.7561,32.9175 C35.6535,32.79438 35.52354,32.68494 35.36622,32.58918 C35.22942,32.5071 35.06184,32.43015 34.86348,32.35833 C34.66512,32.28651 34.43256,32.2506 34.1658,32.2506 C33.90588,32.2506 33.6699,32.29164 33.45786,32.37372 C33.24582,32.4558 33.06285,32.56353 32.90895,32.69691 C32.75505,32.83029 32.63535,32.98419 32.54985,33.15861 C32.46435,33.33303 32.4216,33.50916 32.4216,33.687 C32.4216,33.98112 32.48316,34.21539 32.60628,34.38981 C32.7294,34.56423 32.88501,34.70616 33.07311,34.8156 C33.26121,34.92504 33.46299,35.01054 33.67845,35.0721 C33.89391,35.13366 34.09569,35.19693 34.28379,35.26191 C34.47189,35.32689 34.6275,35.40213 34.75062,35.48763 C34.87374,35.57313 34.9353,35.69112 34.9353,35.8416 C34.9353,36.01944 34.87032,36.1665 34.74036,36.28278 C34.6104,36.39906 34.40178,36.4572 34.1145,36.4572 C33.91614,36.4572 33.74343,36.42471 33.59637,36.35973 C33.44931,36.29475 33.32106,36.22464 33.21162,36.1494 C33.0885,36.06048 32.97906,35.95788 32.8833,35.8416 L32.8833,35.8416 L32.2164,36.5085 C32.34636,36.6795 32.50368,36.82656 32.68836,36.94968 C32.84568,37.05912 33.04062,37.1583 33.27318,37.24722 C33.50574,37.33614 33.78618,37.3806 34.1145,37.3806 Z M38.2185,37.278 L38.2185,34.6104 C38.2185,34.14528 38.33478,33.7896 38.56734,33.54336 C38.7999,33.29712 39.11112,33.174 39.501,33.174 C39.83616,33.174 40.1166,33.28857 40.34232,33.51771 C40.56804,33.74685 40.6809,34.04268 40.6809,34.4052 L40.6809,34.4052 L40.6809,37.278 L41.7069,37.278 L41.7069,34.4052 C41.7069,34.07004 41.65731,33.76908 41.55813,33.50232 C41.45895,33.23556 41.32215,33.00984 41.14773,32.82516 C40.97331,32.64048 40.76298,32.49855 40.51674,32.39937 C40.2705,32.30019 40.00032,32.2506 39.7062,32.2506 C39.47364,32.2506 39.26673,32.28309 39.08547,32.34807 C38.90421,32.41305 38.7486,32.48316 38.61864,32.5584 C38.46816,32.64732 38.33478,32.74992 38.2185,32.8662 L38.2185,32.8662 L38.2185,30.096 L37.1925,30.096 L37.1925,37.278 L38.2185,37.278 Z M43.7076,31.4298 C43.88544,31.4298 44.0325,31.37166 44.14878,31.25538 C44.26506,31.1391 44.3232,30.99204 44.3232,30.8142 C44.3232,30.63636 44.26506,30.4893 44.14878,30.37302 C44.0325,30.25674 43.88544,30.1986 43.7076,30.1986 C43.52976,30.1986 43.3827,30.25674 43.26642,30.37302 C43.15014,30.4893 43.092,30.63636 43.092,30.8142 C43.092,30.99204 43.15014,31.1391 43.26642,31.25538 C43.3827,31.37166 43.52976,31.4298 43.7076,31.4298 Z M44.2206,37.278 L44.2206,32.3532 L43.1946,32.3532 L43.1946,37.278 L44.2206,37.278 Z M46.7343,37.278 L46.7343,34.6104 C46.7343,34.14528 46.85058,33.7896 47.08314,33.54336 C47.3157,33.29712 47.62692,33.174 48.0168,33.174 C48.35196,33.174 48.6324,33.28857 48.85812,33.51771 C49.08384,33.74685 49.1967,34.04268 49.1967,34.4052 L49.1967,34.4052 L49.1967,37.278 L50.2227,37.278 L50.2227,34.4052 C50.2227,34.07004 50.17311,33.76908 50.07393,33.50232 C49.97475,33.23556 49.83795,33.00984 49.66353,32.82516 C49.48911,32.64048 49.27878,32.49855 49.03254,32.39937 C48.7863,32.30019 48.51612,32.2506 48.222,32.2506 C47.98944,32.2506 47.78253,32.28309 47.60127,32.34807 C47.42001,32.41305 47.2644,32.48316 47.13444,32.5584 C46.98396,32.64732 46.85058,32.74992 46.7343,32.8662 L46.7343,32.8662 L46.7343,32.3532 L45.7083,32.3532 L45.7083,37.278 L46.7343,37.278 Z M55.1988,37.278 L55.1988,32.0967 L59.2002,37.278 L60.1749,37.278 L60.1749,30.096 L59.0463,30.096 L59.0463,35.2773 L55.0449,30.096 L54.0702,30.096 L54.0702,37.278 L55.1988,37.278 Z M64.125,37.3806 C64.47384,37.3806 64.78164,37.32759 65.0484,37.22157 C65.31516,37.11555 65.54088,36.99756 65.72556,36.8676 C65.94444,36.71712 66.12912,36.54612 66.2796,36.3546 L66.2796,36.3546 L65.6127,35.6877 C65.50326,35.83134 65.37672,35.9613 65.23308,36.07758 C65.10996,36.17334 64.95435,36.26055 64.76625,36.33921 C64.57815,36.41787 64.3644,36.4572 64.125,36.4572 C63.9198,36.4572 63.72828,36.42129 63.55044,36.34947 C63.3726,36.27765 63.21699,36.1836 63.08361,36.06732 C62.95023,35.95104 62.84079,35.81424 62.75529,35.65692 C62.66979,35.4996 62.61336,35.33886 62.586,35.1747 L62.586,35.1747 L66.4335,35.1747 C66.44034,35.13366 66.44718,35.08578 66.45402,35.03106 L66.46428,34.95411 L66.46428,34.95411 L66.47454,34.8669 C66.48138,34.80534 66.4848,34.73694 66.4848,34.6617 C66.4848,34.31286 66.42495,33.99138 66.30525,33.69726 C66.18555,33.40314 66.01797,33.14835 65.80251,32.93289 C65.58705,32.71743 65.33226,32.54985 65.03814,32.43015 C64.74402,32.31045 64.42254,32.2506 64.0737,32.2506 C63.72486,32.2506 63.39825,32.31729 63.09387,32.45067 C62.78949,32.58405 62.52444,32.7636 62.29872,32.98932 C62.073,33.21504 61.89345,33.48009 61.76007,33.78447 C61.62669,34.08885 61.56,34.41546 61.56,34.7643 C61.56,35.12682 61.6284,35.4654 61.7652,35.78004 C61.902,36.09468 62.08839,36.3717 62.32437,36.6111 C62.56035,36.8505 62.83224,37.0386 63.14004,37.1754 C63.44784,37.3122 63.77616,37.3806 64.125,37.3806 Z M65.47932,34.3026 L62.62704,34.3026 C62.70912,33.96744 62.87328,33.687 63.11952,33.46128 C63.36576,33.23556 63.68382,33.1227 64.0737,33.1227 C64.46358,33.1227 64.77993,33.23556 65.02275,33.46128 C65.26557,33.687 65.41776,33.96744 65.47932,34.3026 L65.47932,34.3026 Z M68.1777,31.4298 C68.35554,31.4298 68.5026,31.37166 68.61888,31.25538 C68.73516,31.1391 68.7933,30.99204 68.7933,30.8142 C68.7933,30.63636 68.73516,30.4893 68.61888,30.37302 C68.5026,30.25674 68.35554,30.1986 68.1777,30.1986 C67.99986,30.1986 67.8528,30.25674 67.73652,30.37302 C67.62024,30.4893 67.5621,30.63636 67.5621,30.8142 C67.5621,30.99204 67.62024,31.1391 67.73652,31.25538 C67.8528,31.37166 67.99986,31.4298 68.1777,31.4298 Z M67.2543,39.4326 C67.71942,39.4326 68.0751,39.30435 68.32134,39.04785 C68.56758,38.79135 68.6907,38.4066 68.6907,37.8936 L68.6907,37.8936 L68.6907,32.3532 L67.6647,32.3532 L67.6647,37.88334 C67.6647,38.06802 67.60656,38.2185 67.49028,38.33478 C67.374,38.45106 67.22694,38.5092 67.0491,38.5092 C66.91914,38.5092 66.80286,38.4921 66.70026,38.4579 C66.64554,38.44422 66.59082,38.42712 66.5361,38.4066 L66.5361,38.4066 L66.5361,39.33 C66.59766,39.35052 66.66606,39.36762 66.7413,39.3813 C66.8781,39.4155 67.0491,39.4326 67.2543,39.4326 Z M70.7427,31.4298 C70.92054,31.4298 71.0676,31.37166 71.18388,31.25538 C71.30016,31.1391 71.3583,30.99204 71.3583,30.8142 C71.3583,30.63636 71.30016,30.4893 71.18388,30.37302 C71.0676,30.25674 70.92054,30.1986 70.7427,30.1986 C70.56486,30.1986 70.4178,30.25674 70.30152,30.37302 C70.18524,30.4893 70.1271,30.63636 70.1271,30.8142 C70.1271,30.99204 70.18524,31.1391 70.30152,31.25538 C70.4178,31.37166 70.56486,31.4298 70.7427,31.4298 Z M71.2557,37.278 L71.2557,32.3532 L70.2297,32.3532 L70.2297,37.278 L71.2557,37.278 Z M77.6169,37.278 L77.6169,31.122 L79.7715,31.122 L79.7715,30.096 L74.3337,30.096 L74.3337,31.122 L76.4883,31.122 L76.4883,37.278 L77.6169,37.278 Z M81.7722,37.278 L81.7722,34.6104 C81.7722,34.14528 81.88848,33.7896 82.12104,33.54336 C82.3536,33.29712 82.66482,33.174 83.0547,33.174 C83.38986,33.174 83.6703,33.28857 83.89602,33.51771 C84.12174,33.74685 84.2346,34.04268 84.2346,34.4052 L84.2346,34.4052 L84.2346,37.278 L85.2606,37.278 L85.2606,34.4052 C85.2606,34.07004 85.21101,33.76908 85.11183,33.50232 C85.01265,33.23556 84.87585,33.00984 84.70143,32.82516 C84.52701,32.64048 84.31668,32.49855 84.07044,32.39937 C83.8242,32.30019 83.55402,32.2506 83.2599,32.2506 C83.02734,32.2506 82.82043,32.28309 82.63917,32.34807 C82.45791,32.41305 82.3023,32.48316 82.17234,32.5584 C82.02186,32.64732 81.88848,32.74992 81.7722,32.8662 L81.7722,32.8662 L81.7722,30.096 L80.7462,30.096 L80.7462,37.278 L81.7722,37.278 Z M88.1334,37.3806 C88.36596,37.3806 88.57287,37.34811 88.75413,37.28313 C88.93539,37.21815 89.091,37.14804 89.22096,37.0728 C89.37144,36.98388 89.50482,36.88128 89.6211,36.765 L89.6211,36.765 L89.6211,37.278 L90.6471,37.278 L90.6471,34.0974 C90.6471,33.84432 90.59751,33.60492 90.49833,33.3792 C90.39915,33.15348 90.26064,32.95683 90.0828,32.78925 C89.90496,32.62167 89.6895,32.49 89.43642,32.39424 C89.18334,32.29848 88.9029,32.2506 88.5951,32.2506 C88.26678,32.2506 87.98292,32.29848 87.74352,32.39424 C87.50412,32.49 87.30234,32.59602 87.13818,32.7123 C86.94666,32.8491 86.7825,33.003 86.6457,33.174 L86.6457,33.174 L87.3126,33.8409 C87.40152,33.71778 87.50754,33.60834 87.63066,33.51258 C87.7401,33.4305 87.87348,33.35355 88.0308,33.28173 C88.18812,33.20991 88.37622,33.174 88.5951,33.174 C88.9029,33.174 89.15085,33.26292 89.33895,33.44076 C89.52705,33.6186 89.6211,33.83748 89.6211,34.0974 L89.6211,34.0974 L87.8256,34.4052 C87.38784,34.48044 87.039,34.65315 86.77908,34.92333 C86.51916,35.19351 86.3892,35.5338 86.3892,35.9442 C86.3892,36.12204 86.43195,36.29817 86.51745,36.47259 C86.60295,36.64701 86.72265,36.80091 86.87655,36.93429 C87.03045,37.06767 87.21342,37.1754 87.42546,37.25748 C87.6375,37.33956 87.87348,37.3806 88.1334,37.3806 Z M88.2873,36.4572 C88.00002,36.4572 87.78285,36.39393 87.63579,36.26739 C87.48873,36.14085 87.4152,35.99892 87.4152,35.8416 C87.4152,35.66376 87.47334,35.5167 87.58962,35.40042 C87.7059,35.28414 87.85296,35.2089 88.0308,35.1747 L88.0308,35.1747 L89.6211,34.9182 L89.6211,35.0208 C89.6211,35.48592 89.5014,35.8416 89.262,36.08784 C89.0226,36.33408 88.6977,36.4572 88.2873,36.4572 Z M92.6478,31.4298 C92.82564,31.4298 92.9727,31.37166 93.08898,31.25538 C93.20526,31.1391 93.2634,30.99204 93.2634,30.8142 C93.2634,30.63636 93.20526,30.4893 93.08898,30.37302 C92.9727,30.25674 92.82564,30.1986 92.6478,30.1986 C92.46996,30.1986 92.3229,30.25674 92.20662,30.37302 C92.09034,30.4893 92.0322,30.63636 92.0322,30.8142 C92.0322,30.99204 92.09034,31.1391 92.20662,31.25538 C92.3229,31.37166 92.46996,31.4298 92.6478,31.4298 Z M93.1608,37.278 L93.1608,32.3532 L92.1348,32.3532 L92.1348,37.278 L93.1608,37.278 Z M95.7771,37.278 L95.7771,30.096 L94.7511,30.096 L94.7511,37.278 L95.7771,37.278 Z M98.7525,37.3806 C98.98506,37.3806 99.19197,37.34811 99.37323,37.28313 C99.55449,37.21815 99.7101,37.14804 99.84006,37.0728 C99.99054,36.98388 100.12392,36.88128 100.2402,36.765 L100.2402,36.765 L100.2402,37.278 L101.2662,37.278 L101.2662,34.0974 C101.2662,33.84432 101.21661,33.60492 101.11743,33.3792 C101.01825,33.15348 100.87974,32.95683 100.7019,32.78925 C100.52406,32.62167 100.3086,32.49 100.05552,32.39424 C99.80244,32.29848 99.522,32.2506 99.2142,32.2506 C98.88588,32.2506 98.60202,32.29848 98.36262,32.39424 C98.12322,32.49 97.92144,32.59602 97.75728,32.7123 C97.56576,32.8491 97.4016,33.003 97.2648,33.174 L97.2648,33.174 L97.9317,33.8409 C98.02062,33.71778 98.12664,33.60834 98.24976,33.51258 C98.3592,33.4305 98.49258,33.35355 98.6499,33.28173 C98.80722,33.20991 98.99532,33.174 99.2142,33.174 C99.522,33.174 99.76995,33.26292 99.95805,33.44076 C100.14615,33.6186 100.2402,33.83748 100.2402,34.0974 L100.2402,34.0974 L98.4447,34.4052 C98.00694,34.48044 97.6581,34.65315 97.39818,34.92333 C97.13826,35.19351 97.0083,35.5338 97.0083,35.9442 C97.0083,36.12204 97.05105,36.29817 97.13655,36.47259 C97.22205,36.64701 97.34175,36.80091 97.49565,36.93429 C97.64955,37.06767 97.83252,37.1754 98.04456,37.25748 C98.2566,37.33956 98.49258,37.3806 98.7525,37.3806 Z M98.9064,36.4572 C98.61912,36.4572 98.40195,36.39393 98.25489,36.26739 C98.10783,36.14085 98.0343,35.99892 98.0343,35.8416 C98.0343,35.66376 98.09244,35.5167 98.20872,35.40042 C98.325,35.28414 98.47206,35.2089 98.6499,35.1747 L98.6499,35.1747 L100.2402,34.9182 L100.2402,35.0208 C100.2402,35.48592 100.1205,35.8416 99.8811,36.08784 C99.6417,36.33408 99.3168,36.4572 98.9064,36.4572 Z M103.7286,37.278 L103.7286,34.6104 C103.7286,34.14528 103.84488,33.7896 104.07744,33.54336 C104.31,33.29712 104.62122,33.174 105.0111,33.174 C105.34626,33.174 105.6267,33.28857 105.85242,33.51771 C106.07814,33.74685 106.191,34.04268 106.191,34.4052 L106.191,34.4052 L106.191,37.278 L107.217,37.278 L107.217,34.4052 C107.217,34.07004 107.16741,33.76908 107.06823,33.50232 C106.96905,33.23556 106.83225,33.00984 106.65783,32.82516 C106.48341,32.64048 106.27308,32.49855 106.02684,32.39937 C105.7806,32.30019 105.51042,32.2506 105.2163,32.2506 C104.98374,32.2506 104.77683,32.28309 104.59557,32.34807 C104.41431,32.41305 104.2587,32.48316 104.12874,32.5584 C103.97826,32.64732 103.84488,32.74992 103.7286,32.8662 L103.7286,32.8662 L103.7286,32.3532 L102.7026,32.3532 L102.7026,37.278 L103.7286,37.278 Z M110.7567,37.3806 C110.9961,37.3806 111.21498,37.3464 111.41334,37.278 C111.6117,37.2096 111.77928,37.13436 111.91608,37.05228 C112.08024,36.95652 112.22388,36.84366 112.347,36.7137 L112.347,36.7137 L112.347,37.278 L113.373,37.278 L113.373,30.096 L112.347,30.096 L112.347,32.9175 C112.22388,32.79438 112.08024,32.68494 111.91608,32.58918 C111.77928,32.5071 111.6117,32.43015 111.41334,32.35833 C111.21498,32.28651 110.9961,32.2506 110.7567,32.2506 C110.43522,32.2506 110.12913,32.31729 109.83843,32.45067 C109.54773,32.58405 109.29123,32.76531 109.06893,32.99445 C108.84663,33.22359 108.6705,33.49548 108.54054,33.81012 C108.41058,34.12476 108.3456,34.45992 108.3456,34.8156 C108.3456,35.17812 108.41058,35.51499 108.54054,35.82621 C108.6705,36.13743 108.84663,36.40761 109.06893,36.63675 C109.29123,36.86589 109.54773,37.04715 109.83843,37.18053 C110.12913,37.31391 110.43522,37.3806 110.7567,37.3806 Z M110.8593,36.4572 C110.66778,36.4572 110.4831,36.41445 110.30526,36.32895 C110.12742,36.24345 109.96839,36.12717 109.82817,35.98011 C109.68795,35.83305 109.5768,35.66034 109.49472,35.46198 C109.41264,35.26362 109.3716,35.04816 109.3716,34.8156 C109.3716,34.58304 109.41264,34.36758 109.49472,34.16922 C109.5768,33.97086 109.68795,33.79815 109.82817,33.65109 C109.96839,33.50403 110.12742,33.38775 110.30526,33.30225 C110.4831,33.21675 110.66778,33.174 110.8593,33.174 C111.05082,33.174 111.2355,33.21675 111.41334,33.30225 C111.59118,33.38775 111.75021,33.50403 111.89043,33.65109 C112.03065,33.79815 112.1418,33.97086 112.22388,34.16922 C112.30596,34.36758 112.347,34.58304 112.347,34.8156 C112.347,35.04816 112.30596,35.26362 112.22388,35.46198 C112.1418,35.66034 112.03065,35.83305 111.89043,35.98011 C111.75021,36.12717 111.59118,36.24345 111.41334,36.32895 C111.2355,36.41445 111.05082,36.4572 110.8593,36.4572 Z" id="byHanshinNejiThailand"></path>
            </g>
        </g>
    </g>
</svg>