<?xml version="1.0" standalone="no"?>
<!DOCTYPE svg PUBLIC "-//W3C//DTD SVG 1.1//EN" "http://www.w3.org/Graphics/SVG/1.1/DTD/svg11.dtd" >
<svg xmlns="http://www.w3.org/2000/svg" xmlns:xlink="http://www.w3.org/1999/xlink" version="1.1">
<metadata></metadata>
<defs>
<font id="tt_normsregular" horiz-adv-x="1187" >
<font-face units-per-em="2048" ascent="1638" descent="-410" />
<missing-glyph horiz-adv-x="389" />
<glyph unicode="&#xfb01;" horiz-adv-x="1105" d="M51 850v133h154v184q0 137 71 212t195 75q36 0 72 -8t53 -16l18 -7v-133q-61 31 -133 31q-63 0 -98 -39.5t-35 -114.5v-184h584v-983h-144v850h-440v-850h-143v850h-154zM768 1311q0 38 27 65t65 27t65 -27t27 -65t-27 -65t-65 -27t-65 27t-27 65z" />
<glyph unicode="&#xfb03;" horiz-adv-x="1689" d="M51 850v133h154v143q0 137 71 212t195 75q36 0 72 -7.5t53 -15.5l18 -8v-133q-61 31 -133 31q-63 0 -98 -39.5t-35 -114.5v-143h440v184q0 137 71.5 212t195.5 75q36 0 72 -8t53 -16l18 -7v-133q-61 31 -133 31q-63 0 -98 -39.5t-35 -114.5v-184h584v-983h-144v850h-440 v-850h-144v850h-440v-850h-143v850h-154zM1352 1311q0 38 27 65t65 27t65 -27t27 -65t-27 -65t-65 -27t-65 27t-27 65z" />
<glyph horiz-adv-x="0" />
<glyph horiz-adv-x="0" />
<glyph horiz-adv-x="682" />
<glyph unicode="&#xd;" horiz-adv-x="0" />
<glyph unicode=" "  horiz-adv-x="389" />
<glyph unicode="&#x09;" horiz-adv-x="389" />
<glyph unicode="&#xa0;" horiz-adv-x="389" />
<glyph unicode="!" horiz-adv-x="634" d="M215 82q0 46 28 74t74 28t74.5 -28t28.5 -74t-28.5 -74t-74.5 -28t-74 28t-28 74zM225 1434h185l-31 -1086h-123z" />
<glyph unicode="&#x22;" horiz-adv-x="716" d="M133 1004v430h133v-430h-133zM451 1004v430h133v-430h-133z" />
<glyph unicode="#" horiz-adv-x="1484" d="M41 420l20 133h322l63 328h-303l21 133h307l82 420h133l-82 -420h389l82 420h133l-82 -420h318l-21 -133h-321l-64 -328h303l-20 -133h-309l-80 -420h-133l80 420h-390l-79 -420h-134l80 420h-315zM516 553h389l64 328h-389z" />
<glyph unicode="$" horiz-adv-x="1157" d="M92 195l94 104q5 -7 14.5 -19t45 -42.5t76.5 -53.5t109 -42t142 -19q157 0 242.5 73.5t85.5 192.5q0 59 -26.5 103.5t-71.5 72t-103.5 49.5t-123 40.5t-129 39t-123 51t-103.5 71t-71.5 104t-26.5 145.5q0 147 105 255.5t284 129.5v209h143v-209q64 -8 123 -29.5 t98.5 -46.5t69.5 -49t44 -39l14 -16l-103 -103q-4 6 -12.5 15.5t-38 34.5t-63 44t-88.5 34.5t-115 15.5q-142 0 -225 -72t-83 -174q0 -53 22 -94.5t59 -68t87 -49.5t106 -38t115.5 -34.5t115.5 -38.5t106 -51t87 -70.5t59 -98t22 -133.5q0 -164 -105.5 -274t-294.5 -131 v-209h-143v207q-80 7 -153 31.5t-119.5 54.5t-81.5 59t-50 49z" />
<glyph unicode="%" horiz-adv-x="1556" d="M82 1137q0 131 93 224t224 93t224.5 -93.5t93.5 -223.5q0 -131 -93.5 -224.5t-224.5 -93.5q-130 0 -223.5 93.5t-93.5 224.5zM215 1137q0 -84 53.5 -139.5t130.5 -55.5t131 55.5t54 139.5t-53.5 139t-131.5 55q-77 0 -130.5 -55t-53.5 -139zM256 0l901 1434h143 l-901 -1434h-143zM840 297q0 131 93 224t224 93t224.5 -93.5t93.5 -223.5t-93.5 -223.5t-224.5 -93.5t-224 93t-93 224zM973 297q0 -84 53.5 -139.5t130.5 -55.5t130.5 55.5t53.5 139.5t-53.5 139.5t-130.5 55.5t-130.5 -55.5t-53.5 -139.5z" />
<glyph unicode="&#x26;" horiz-adv-x="1280" d="M143 328q0 52 15.5 103.5t39.5 92t53.5 77t59.5 63t54 46t39 28.5l16 10q-9 9 -23.5 24.5t-51.5 62t-65.5 91t-51.5 103.5t-23 108q0 131 95 224t232 93t232.5 -91.5t95.5 -215.5q0 -60 -27.5 -123.5t-66.5 -110.5t-78 -86t-66 -59l-28 -20l328 -400q4 5 10 15.5t22 45 t28 72t22 96.5t10 119h133q0 -77 -13.5 -153t-33 -129t-39.5 -95t-33 -63l-14 -20q3 -5 8.5 -13.5t23.5 -29.5t36.5 -37t44.5 -29.5t51 -13.5q12 0 27 2.5t25 4.5l9 3v-133q-37 -10 -72 -10q-40 0 -79 17t-66 41t-48 47.5t-32 40.5l-10 17q-5 -7 -15.5 -18t-47 -39 t-77 -49.5t-105.5 -39t-134 -17.5q-180 0 -295 103t-115 245zM276 328q0 -99 73.5 -157t203.5 -58q52 0 100.5 12.5t80.5 30.5t57.5 36.5t36.5 31.5l12 12l-338 430q-9 -7 -24.5 -19t-54.5 -49.5t-68.5 -75.5t-54 -91.5t-24.5 -102.5zM338 1137q0 -34 19 -77.5t46 -80.5 t54 -69.5t46 -51.5l19 -18q8 6 22 17.5t49.5 45.5t62.5 68t49 80t22 86q0 77 -55.5 130.5t-139.5 53.5t-139 -53.5t-55 -130.5z" />
<glyph unicode="'" horiz-adv-x="399" d="M133 1004v430h133v-430h-133z" />
<glyph unicode="(" horiz-adv-x="686" d="M164 512q0 121 18.5 239.5t48.5 211.5t66 177t72 143.5t66 104t49 66.5l18 21l112 -62q-7 -8 -18 -22t-44 -61.5t-63 -100t-66.5 -134.5t-63 -167t-44.5 -195t-18 -221t17.5 -220.5t45.5 -196t62 -165.5t67.5 -136t61.5 -99t45 -63l18 -21l-112 -62q-7 8 -19 22.5 t-47.5 64.5t-67 105t-70.5 142.5t-67.5 178t-47.5 210t-19 240.5z" />
<glyph unicode=")" horiz-adv-x="686" d="M72 -389q7 8 18 22t44 61.5t63 100t66.5 134.5t63 167t44.5 195t18 221t-17.5 220.5t-45.5 196t-61.5 165.5t-67.5 136t-62 99t-45 63l-18 21l112 62q7 -8 19 -22.5t47.5 -64.5t67 -105t70.5 -142.5t67.5 -178t47.5 -210t19 -240.5t-18.5 -239.5t-48.5 -211.5t-66 -177 t-72 -143.5t-66 -104t-49 -66.5l-18 -21z" />
<glyph unicode="*" horiz-adv-x="798" d="M72 1137l41 112l245 -82l-20 267h123l-21 -267l246 82l41 -112l-256 -62l174 -215l-92 -72l-154 226l-153 -226l-92 72l174 215z" />
<glyph unicode="+" horiz-adv-x="1054" d="M82 532v134h379v389h133v-389h379v-134h-379v-389h-133v389h-379z" />
<glyph unicode="," horiz-adv-x="440" d="M0 -215l184 399l144 -82l-236 -368z" />
<glyph unicode="-" horiz-adv-x="870" d="M92 543v133h686v-133h-686z" />
<glyph unicode="." horiz-adv-x="430" d="M113 82q0 46 28 74t74 28t74 -28t28 -74t-28 -74t-74 -28t-74 28t-28 74z" />
<glyph unicode="/" horiz-adv-x="890" d="M72 -430l614 1884h133l-614 -1884h-133z" />
<glyph unicode="0" horiz-adv-x="1392" d="M123 717q0 168 47.5 309t127.5 233.5t183 143.5t215 51t215 -51t183 -143.5t128 -233.5t48 -309t-48 -309t-127.5 -233.5t-182.5 -143.5t-214 -51q-113 0 -216 51t-183.5 143.5t-128 233.5t-47.5 309zM276 717q0 -141 35 -256t94.5 -187.5t134.5 -111.5t158 -39 q81 0 155.5 39t133.5 111.5t94 187.5t35 256t-35 256t-94.5 187.5t-134 111.5t-156.5 39t-156.5 -39t-134 -111.5t-94.5 -187.5t-35 -256z" />
<glyph unicode="1" horiz-adv-x="716" d="M82 1147v92q69 3 126 24t89 49t54 56t30 47l8 19h113v-1434h-154v1147h-266z" />
<glyph unicode="2" horiz-adv-x="1126" d="M82 0q0 97 26.5 181t70.5 146.5t102 117.5t121.5 100t127 87.5t121.5 86t102 89t70.5 103.5t26.5 123q0 125 -81.5 201t-225.5 76q-72 0 -130 -25.5t-89.5 -61.5t-52.5 -72t-28 -62l-7 -25l-134 61q2 7 5 18.5t18 46t34.5 65.5t55.5 68.5t79 65t108.5 46t140.5 18.5 q204 0 332.5 -120t128.5 -300q0 -90 -34.5 -167.5t-92.5 -136t-128.5 -112t-146.5 -105t-143.5 -104t-122.5 -121.5t-80 -145h748v-143h-922z" />
<glyph unicode="3" horiz-adv-x="1146" d="M61 195l103 102q5 -7 15 -19t45 -42t75 -52.5t106 -41.5t138 -19q157 0 247.5 78.5t90.5 197.5q0 114 -93.5 195.5t-244.5 81.5h-144v143h144q129 0 202.5 69.5t73.5 186.5q0 103 -74.5 169.5t-201.5 66.5q-60 0 -116 -17t-93 -41t-65 -48t-41 -41l-13 -17l-102 113 q6 8 17.5 21t51.5 46.5t85.5 59t120.5 46.5t155 21q188 0 309 -111t121 -268q0 -50 -12 -94.5t-31 -76t-41.5 -57.5t-45.5 -42t-42 -27t-31 -16l-12 -4q6 -1 15.5 -4t37 -15.5t52.5 -28.5t56 -45.5t53 -64.5t37 -87.5t15 -113.5q0 -81 -34 -156.5t-94.5 -134t-152.5 -93.5 t-200 -35q-92 0 -175.5 22t-137 53.5t-93.5 63.5t-58 54z" />
<glyph unicode="4" horiz-adv-x="1198" d="M61 307v174l687 953h194v-983h184v-144h-184v-307h-154v307h-727zM205 451h583v809z" />
<glyph unicode="5" horiz-adv-x="1249" d="M154 195l102 102q5 -7 15 -19t44.5 -42t73.5 -52.5t103 -41.5t133 -19q153 0 245.5 90.5t92.5 237.5q0 146 -91 236.5t-237 90.5q-61 0 -116 -16t-90 -38t-62 -44.5t-39 -38.5l-11 -16h-112l51 809h768v-144h-635l-31 -450q4 3 12 8.5t35 20t57 25t77 19.5t96 9 q206 0 343.5 -135.5t137.5 -335.5q0 -209 -135 -340t-356 -131q-89 0 -170 22t-133.5 53.5t-92 63.5t-57.5 54z" />
<glyph unicode="6" horiz-adv-x="1208" d="M113 451q0 49 10.5 98.5t25.5 85.5t30 65t25 44l11 14l430 676h154l-338 -533q59 21 153 21q206 0 344 -135.5t138 -335.5q0 -201 -139 -336t-353 -135t-352.5 135t-138.5 336zM266 451q0 -147 92.5 -237.5t245.5 -90.5t245.5 90.5t92.5 237.5t-92.5 237t-245.5 90 t-245.5 -90t-92.5 -237z" />
<glyph unicode="7" horiz-adv-x="1013" d="M61 1290v144h902v-144l-635 -1290h-154l635 1290h-748z" />
<glyph unicode="8" horiz-adv-x="1208" d="M123 420q0 74 25.5 138.5t61.5 103t72 66.5t62 39l25 11q-8 3 -20 10t-44 32.5t-56.5 56.5t-44.5 84.5t-20 113.5q0 97 55 184t152.5 141t212.5 54t212.5 -54t152.5 -141t55 -184q0 -60 -19 -113t-46 -85t-54 -56t-46 -33l-19 -10q10 -4 26.5 -11.5t58.5 -38t74.5 -67.5 t59 -102t26.5 -139q0 -117 -62 -218t-173 -161.5t-246 -60.5t-246 60.5t-173 161.5t-62 218zM276 420q0 -121 90 -209t238 -88t238 88t90 209q0 118 -96 207.5t-232 89.5t-232 -89.5t-96 -207.5zM338 1075q0 -102 72.5 -168.5t193.5 -66.5t193.5 66.5t72.5 168.5t-72.5 169 t-193.5 67t-193.5 -67t-72.5 -169z" />
<glyph unicode="9" horiz-adv-x="1208" d="M113 983q0 201 138.5 336t352.5 135t353 -135t139 -336q0 -77 -26 -154t-52 -115l-25 -38l-430 -676h-153l338 532q-60 -20 -154 -20q-206 0 -343.5 135.5t-137.5 335.5zM266 983q0 -147 92.5 -237.5t245.5 -90.5t245.5 90.5t92.5 237.5t-92.5 237.5t-245.5 90.5 t-245.5 -90.5t-92.5 -237.5z" />
<glyph unicode=":" horiz-adv-x="430" d="M113 82q0 46 28 74t74 28t74 -28t28 -74t-28 -74t-74 -28t-74 28t-28 74zM113 901q0 46 28 74.5t74 28.5t74 -28.5t28 -74.5t-28 -74t-74 -28t-74 28t-28 74z" />
<glyph unicode=";" horiz-adv-x="450" d="M0 -215l184 399l144 -82l-236 -368zM133 901q0 46 28.5 74.5t74.5 28.5t74 -28.5t28 -74.5t-28 -74t-74 -28t-74.5 28t-28.5 74z" />
<glyph unicode="&#x3c;" horiz-adv-x="1013" d="M92 461v82l830 440v-143l-646 -338l646 -338v-144z" />
<glyph unicode="=" horiz-adv-x="1013" d="M92 358v134h830v-134h-830zM92 717v133h830v-133h-830z" />
<glyph unicode="&#x3e;" horiz-adv-x="1013" d="M92 20v144l645 338l-645 338v143l830 -440v-82z" />
<glyph unicode="?" horiz-adv-x="1075" d="M82 1126q2 7 5.5 18.5t19 46t36 65.5t57.5 68.5t81 65t110 46t141 18.5q97 0 182 -32t143.5 -85.5t92 -124.5t33.5 -147q0 -79 -22 -141.5t-57 -104t-77.5 -77t-85.5 -69t-78 -70.5t-57 -91.5t-22 -122.5v-41h-144q-10 45 -10 92q0 66 22 122.5t57 97t77.5 77t85.5 70.5 t78 70t57 84t22 104q0 103 -81.5 174.5t-215.5 71.5q-74 0 -134.5 -23.5t-93 -56.5t-54 -66t-28.5 -57l-7 -23zM410 82q0 46 28 74t74 28t74 -28t28 -74t-28 -74t-74 -28t-74 28t-28 74z" />
<glyph unicode="@" horiz-adv-x="1843" d="M143 512q0 154 63 298t168.5 249t249.5 168t298 63q161 0 306 -59.5t248 -159t163.5 -235t60.5 -283.5q0 -209 -90.5 -319.5t-227.5 -110.5q-46 0 -86.5 14.5t-65 35.5t-42 42.5t-24.5 36.5l-7 14q-3 -6 -9 -15.5t-28.5 -34t-50.5 -43.5t-75.5 -34.5t-102.5 -15.5 q-140 0 -244 110t-104 269t104 269t244 110q49 0 92 -11.5t70 -28t47 -33.5t28 -28l9 -12v102h123v-467q0 -157 122 -157q80 0 132.5 74t52.5 233q0 171 -82.5 311.5t-230.5 221.5t-332 81q-132 0 -251.5 -51t-206 -138t-137.5 -208.5t-51 -257.5t51 -257.5t137.5 -208.5 t206 -138t251.5 -51q69 0 134.5 13.5t109.5 33t78.5 39.5t50.5 33l16 14l71 -92q-7 -7 -19.5 -18t-56.5 -39t-93.5 -50t-128.5 -39.5t-162 -17.5q-154 0 -298 63t-249.5 168t-168.5 249t-63 298zM676 502q0 -113 65.5 -184.5t159.5 -71.5q101 0 168.5 71t67.5 185t-67.5 185 t-168.5 71q-94 0 -159.5 -71.5t-65.5 -184.5z" />
<glyph unicode="A" horiz-adv-x="1433" d="M51 0l594 1434h143l594 -1434h-163l-164 399h-676l-164 -399h-164zM440 543h553l-276 676z" />
<glyph unicode="B" horiz-adv-x="1372" d="M215 0v1434h553q175 0 287 -106.5t112 -262.5q0 -63 -17 -117t-40.5 -85.5t-47.5 -54t-41 -31.5l-17 -9q10 -4 25.5 -11.5t56 -38t71.5 -67.5t56.5 -102t25.5 -139q0 -179 -121.5 -294.5t-318.5 -115.5h-584zM369 143h430q129 0 207.5 75t78.5 192q0 119 -79.5 202.5 t-206.5 83.5h-430v-553zM369 831h399q115 0 180.5 63t65.5 171q0 101 -66 163t-180 62h-399v-459z" />
<glyph unicode="C" horiz-adv-x="1536" d="M123 717q0 151 58 287.5t156.5 235t235 156.5t287.5 58q109 0 209 -30.5t165.5 -74t115 -87.5t72.5 -74l22 -31l-103 -92q-6 10 -18.5 26.5t-56.5 59t-95 75t-135 59t-176 26.5q-162 0 -296 -77.5t-211 -214t-77 -302.5t77 -302.5t211 -214t296 -77.5q92 0 176.5 25.5 t139.5 61.5t96.5 72t60.5 62l19 25l102 -93q-4 -6 -12.5 -16.5t-37.5 -41.5t-61.5 -59t-85.5 -62t-109.5 -58.5t-132.5 -41.5t-155 -17q-151 0 -287.5 58t-235 156.5t-156.5 235t-58 287.5z" />
<glyph unicode="D" horiz-adv-x="1536" d="M215 0v1434h451q154 0 293 -57.5t238.5 -154.5t157.5 -229t58 -276t-58 -276t-157.5 -229t-238.5 -154.5t-293 -57.5h-451zM369 143h297q166 0 302.5 77t214 208.5t77.5 288.5t-77.5 288t-214 208t-302.5 77h-297v-1147z" />
<glyph unicode="E" horiz-adv-x="1310" d="M215 0v1434h983v-144h-829v-471h665v-143h-665v-533h850v-143h-1004z" />
<glyph unicode="F" horiz-adv-x="1259" d="M215 0v1434h973v-144h-819v-491h655v-144h-655v-655h-154z" />
<glyph unicode="G" horiz-adv-x="1628" d="M123 717q0 151 58 287.5t156.5 235t235 156.5t287.5 58q109 0 209 -30.5t165.5 -74t115 -87.5t72.5 -74l22 -31l-103 -92q-6 10 -18.5 26.5t-56.5 59t-95 75t-135 59t-176 26.5q-162 0 -296 -77.5t-211 -214t-77 -302.5t77 -302.5t211 -214t296 -77.5q86 0 164 20 t128 48.5t88 57t54 48.5l17 20v277h-328v143h481v-461q-9 -12 -25.5 -32t-75 -71t-123 -90t-168 -71t-212.5 -32q-151 0 -287.5 58t-235 156.5t-156.5 235t-58 287.5z" />
<glyph unicode="H" horiz-adv-x="1536" d="M215 0v1434h154v-635h798v635h154v-1434h-154v655h-798v-655h-154z" />
<glyph unicode="I" horiz-adv-x="583" d="M215 0v1434h154v-1434h-154z" />
<glyph unicode="J" horiz-adv-x="1013" d="M20 143l103 103q3 -5 9.5 -13.5t29.5 -29.5t49.5 -37t69 -29.5t88.5 -13.5q131 0 208.5 80t77.5 217v1014h154v-1014q0 -192 -124 -316t-316 -124q-63 0 -122 17t-98.5 41t-70 47.5t-44.5 40.5z" />
<glyph unicode="K" horiz-adv-x="1372" d="M215 0v1434h154v-809l737 809h194l-542 -594l594 -840h-185l-512 727l-286 -307v-420h-154z" />
<glyph unicode="L" horiz-adv-x="1146" d="M215 0v1434h154v-1291h737v-143h-891z" />
<glyph unicode="M" horiz-adv-x="1884" d="M215 0v1434h133l594 -779l594 779h133v-1434h-153v1167l-574 -757l-573 757v-1167h-154z" />
<glyph unicode="N" horiz-adv-x="1597" d="M215 0v1434h133l881 -1158v1158h153v-1434h-133l-880 1157v-1157h-154z" />
<glyph unicode="O" horiz-adv-x="1720" d="M123 717q0 151 58 287.5t156.5 235t235 156.5t287.5 58t287.5 -58t235 -156.5t156.5 -235t58 -287.5t-58 -287.5t-156.5 -235t-235 -156.5t-287.5 -58t-287.5 58t-235 156.5t-156.5 235t-58 287.5zM276 717q0 -166 77 -302.5t211 -214t296 -77.5t296 77.5t211 214 t77 302.5t-77 302.5t-211 214t-296 77.5t-296 -77.5t-211 -214t-77 -302.5z" />
<glyph unicode="P" horiz-adv-x="1331" d="M215 0v1434h543q199 0 330 -129t131 -322t-131 -322t-330 -129h-389v-532h-154zM369 676h389q138 0 222.5 84.5t84.5 222.5t-84.5 222.5t-222.5 84.5h-389v-614z" />
<glyph unicode="Q" horiz-adv-x="1720" d="M123 717q0 151 58 287.5t156.5 235t235 156.5t287.5 58t287.5 -58t235 -156.5t156.5 -235t58 -287.5q0 -79 -14.5 -152.5t-38.5 -130.5t-55.5 -108.5t-66 -89t-69.5 -69.5t-66.5 -53t-55.5 -35.5t-39 -20.5l-14 -7q5 -8 14 -22t43.5 -49.5t75.5 -62.5t110 -49t146 -22 q27 0 50 3t33 5l9 3v-133q-31 -11 -92 -11q-79 0 -151.5 16t-124.5 41t-96.5 55.5t-73.5 61.5t-49 56t-29 41l-9 16q-72 -20 -174 -20q-151 0 -287.5 58t-235 156.5t-156.5 235t-58 287.5zM276 717q0 -166 77 -302.5t211 -214t296 -77.5t296 77.5t211 214t77 302.5 t-77 302.5t-211 214t-296 77.5t-296 -77.5t-211 -214t-77 -302.5z" />
<glyph unicode="R" horiz-adv-x="1382" d="M215 0v1434h573q191 0 316 -122.5t125 -307.5q0 -67 -16.5 -126t-42.5 -99t-58 -73.5t-63.5 -53.5t-57.5 -34t-43 -19l-16 -5l338 -594h-174l-318 573h-409v-573h-154zM369 717h419q130 0 208.5 78.5t78.5 208.5t-78 208t-209 78h-419v-573z" />
<glyph unicode="S" horiz-adv-x="1157" d="M92 195l94 104q5 -7 14.5 -19t45 -42.5t76.5 -53.5t109 -42t142 -19q157 0 242.5 73.5t85.5 192.5q0 59 -26.5 103.5t-71.5 72t-103.5 49.5t-123 40.5t-129 39t-123 51t-103.5 71t-71.5 104t-26.5 145.5q0 162 127 275.5t334 113.5q77 0 148.5 -19t118.5 -46t83.5 -54 t53.5 -46l16 -19l-103 -103q-4 6 -12.5 15.5t-38 34.5t-63 44t-88.5 34.5t-115 15.5q-142 0 -225 -72t-83 -174q0 -53 22 -94.5t59 -68t87 -49.5t106 -38t115.5 -34.5t115.5 -38.5t106 -51t87 -70.5t59 -98t22 -133.5q0 -181 -128.5 -295t-353.5 -114q-92 0 -175 22 t-136.5 53.5t-94 63.5t-57.5 54z" />
<glyph unicode="T" horiz-adv-x="1136" d="M41 1290v144h1055v-144h-451v-1290h-153v1290h-451z" />
<glyph unicode="U" horiz-adv-x="1556" d="M195 563v871h153v-871q0 -184 126 -312t304 -128t304 128t126 312v871h154v-871q0 -156 -79.5 -290.5t-214 -213.5t-290.5 -79q-117 0 -224.5 47t-186 125.5t-125.5 186t-47 224.5z" />
<glyph unicode="V" horiz-adv-x="1392" d="M61 1434h164l471 -1219l471 1219h164l-563 -1434h-143z" />
<glyph unicode="W" horiz-adv-x="2129" d="M61 1434h164l379 -1198l389 1198h144l389 -1198l379 1198h163l-471 -1434h-153l-379 1198l-379 -1198h-154z" />
<glyph unicode="X" horiz-adv-x="1331" d="M41 0l532 748l-491 686h184l400 -564l399 564h184l-491 -686l532 -748h-184l-440 625l-441 -625h-184z" />
<glyph unicode="Y" horiz-adv-x="1300" d="M41 1434h174l430 -768h10l430 768h175l-533 -932v-502h-154v502z" />
<glyph unicode="Z" horiz-adv-x="1228" d="M92 0v143l840 1147h-809v144h993v-144l-840 -1147h861v-143h-1045z" />
<glyph unicode="[" horiz-adv-x="686" d="M184 -430v1884h420v-133h-276v-1618h276v-133h-420z" />
<glyph unicode="\" horiz-adv-x="890" d="M72 1454h133l614 -1884h-133z" />
<glyph unicode="]" horiz-adv-x="686" d="M82 -297h276v1618h-276v133h420v-1884h-420v133z" />
<glyph unicode="^" horiz-adv-x="819" d="M92 860l266 574h103l266 -574h-133l-184 410l-185 -410h-133z" />
<glyph unicode="_" horiz-adv-x="675" d="M-20 -215h716v-133h-716v133z" />
<glyph unicode="`" horiz-adv-x="430" d="M61 1434h154l154 -277h-113z" />
<glyph unicode="a" horiz-adv-x="1064" d="M82 266q0 122 74 198t213 99l379 62q0 107 -69.5 176t-176.5 69q-49 0 -95.5 -14.5t-78 -36t-56 -42.5t-36.5 -35l-11 -15l-92 92q5 8 15.5 20t46.5 44t75.5 56.5t102.5 44.5t129 20q168 0 278.5 -108.5t110.5 -270.5v-625h-143v133q-4 -6 -12.5 -16.5t-37.5 -37 t-63 -46.5t-89.5 -36.5t-115.5 -16.5q-149 0 -248.5 87t-99.5 199zM225 266q0 -65 54.5 -109t150.5 -44q139 0 228.5 91t89.5 236v62l-338 -62q-185 -35 -185 -174z" />
<glyph unicode="b" horiz-adv-x="1228" d="M164 0v1434h143v-605q5 7 14.5 19t43 42t71 53t97 42t122.5 19q122 0 230.5 -67.5t174.5 -186t66 -258.5t-66 -258.5t-174.5 -186t-230.5 -67.5q-63 0 -122 18t-98.5 43.5t-69.5 51t-44 43.5l-14 18v-154h-143zM307 492q0 -151 107.5 -265t240.5 -114q127 0 227.5 111 t100.5 268t-100.5 267.5t-227.5 110.5q-133 0 -240.5 -113.5t-107.5 -264.5z" />
<glyph unicode="c" horiz-adv-x="1054" d="M82 492q0 141 67 259t180 185.5t244 67.5q72 0 139.5 -20t112.5 -49t80 -57.5t51 -48.5l17 -20l-103 -102q-4 7 -12 18t-36 39t-60 49.5t-83 39t-106 17.5q-140 0 -244 -109.5t-104 -268.5t104 -269t244 -110q55 0 106.5 17t86.5 40.5t62 47.5t40 41l13 17l102 -92 q-6 -8 -18 -22t-52.5 -49t-85 -62t-113.5 -49t-141 -22q-131 0 -244 67.5t-180 185.5t-67 259z" />
<glyph unicode="d" horiz-adv-x="1228" d="M82 492q0 140 66 258.5t174.5 186t230.5 67.5q63 0 122 -18t98 -44t69.5 -51.5t44.5 -43.5l14 -18v605h143v-1434h-143v154q-5 -7 -14.5 -19t-43 -42t-71 -52.5t-97 -41.5t-122.5 -19q-122 0 -230.5 67.5t-174.5 186t-66 258.5zM225 492q0 -157 100.5 -268t227.5 -111 q133 0 240.5 114t107.5 265t-107.5 264.5t-240.5 113.5q-127 0 -227.5 -110.5t-100.5 -267.5z" />
<glyph unicode="e" horiz-adv-x="1136" d="M82 492q0 140 66.5 258.5t177 186t237.5 67.5q201 0 336 -139t135 -353q0 -18 -2.5 -36.5t-5.5 -27.5l-2 -10l-799 2q8 -132 110 -229.5t238 -97.5q58 0 112 17t90 40.5t63.5 47.5t39.5 41l13 17l92 -92q-6 -8 -17 -22t-50.5 -49t-83.5 -62t-114.5 -49t-144.5 -22 q-131 0 -244 67.5t-180 185.5t-67 259zM225 563h666q-15 132 -107 219.5t-221 87.5q-128 0 -225.5 -91t-112.5 -216z" />
<glyph unicode="f" horiz-adv-x="655" d="M51 850v133h154v184q0 137 71 212t195 75q36 0 72 -8t53 -16l18 -7v-133q-61 31 -133 31q-63 0 -98 -39.5t-35 -114.5v-184h236v-133h-236v-850h-143v850h-154z" />
<glyph unicode="g" d="M82 512q0 101 37.5 193t100.5 157t147.5 103.5t175.5 38.5q63 0 120 -17t93 -41t63 -48t39 -41l12 -17v143h144v-922q0 -206 -141 -348.5t-341 -142.5q-77 0 -147.5 21t-116 51t-80 60.5t-50.5 51.5l-15 21l92 92q5 -7 13.5 -18t39 -39t64.5 -50t88.5 -39.5t111.5 -17.5 q140 0 239 103t99 255v123q-4 -7 -12.5 -18t-38 -39t-64 -50t-92 -39.5t-120.5 -17.5q-91 0 -175.5 38.5t-147.5 103.5t-100.5 157t-37.5 193zM225 512q0 -150 96 -254t222 -104q133 0 230 103.5t97 254.5t-97 254.5t-230 103.5q-126 0 -222 -104t-96 -254z" />
<glyph unicode="h" horiz-adv-x="1198" d="M164 0v1434h143v-594q4 7 12.5 18t37.5 39t63 50t89.5 39.5t115.5 17.5q178 0 288.5 -114.5t110.5 -305.5v-584h-143v584q0 129 -75 207.5t-192 78.5q-132 0 -219.5 -91t-87.5 -236v-543h-143z" />
<glyph unicode="i" horiz-adv-x="471" d="M133 1311q0 38 27 65t65 27t65 -27t27 -65t-27 -65t-65 -27t-65 27t-27 65zM154 0v983h143v-983h-143z" />
<glyph unicode="j" horiz-adv-x="471" d="M-92 -266q51 -31 112 -31q63 0 98.5 39.5t35.5 114.5v1126h143v-1126q0 -287 -266 -287q-32 0 -63 8t-46 16l-14 7v133zM133 1311q0 38 27 65t65 27t65 -27t27 -65t-27 -65t-65 -27t-65 27t-27 65z" />
<glyph unicode="k" horiz-adv-x="1044" d="M164 0v1434h143v-973l492 522h174l-379 -399l420 -584h-164l-348 481l-195 -205v-276h-143z" />
<glyph unicode="l" horiz-adv-x="491" d="M164 0v1434h143v-1434h-143z" />
<glyph unicode="m" horiz-adv-x="1781" d="M154 0v983h143v-123q3 6 10 15.5t31.5 34.5t53.5 44t77.5 34.5t103.5 15.5q66 0 123 -18t91.5 -44t59 -51.5t34.5 -43.5l10 -18q4 7 11.5 19t36.5 42t64.5 53t96 42t129.5 19q167 0 273 -110.5t106 -309.5v-584h-144v584q0 136 -67.5 211t-177.5 75q-112 0 -189.5 -89 t-77.5 -238v-543h-143v584q0 135 -68 210.5t-178 75.5q-112 0 -189 -89t-77 -238v-543h-143z" />
<glyph unicode="n" d="M154 0v983h143v-143q4 7 12 18t37.5 39t63 50t89 39.5t115.5 17.5q178 0 289 -114.5t111 -305.5v-584h-144v584q0 129 -74.5 207.5t-191.5 78.5q-132 0 -219.5 -91t-87.5 -236v-543h-143z" />
<glyph unicode="o" d="M82 492q0 141 67.5 259t183 185.5t251.5 67.5t251 -67.5t182.5 -185.5t67.5 -259t-67.5 -259t-182.5 -185.5t-251 -67.5t-251.5 67.5t-183 185.5t-67.5 259zM225 492q0 -159 106 -269t253 -110q148 0 253 109.5t105 269.5t-105 269t-253 109t-253.5 -109t-105.5 -269z " />
<glyph unicode="p" horiz-adv-x="1218" d="M154 -430v1413h143v-154q5 7 14.5 19t43 42t71 53t97 42t122.5 19q122 0 230.5 -67.5t174.5 -186t66 -258.5t-66 -258.5t-174.5 -186t-230.5 -67.5q-63 0 -122 18t-98.5 43.5t-69.5 51t-44 43.5l-14 18v-584h-143zM297 492q0 -151 107.5 -265t240.5 -114q127 0 227.5 111 t100.5 268t-100.5 267.5t-227.5 110.5q-133 0 -240.5 -113.5t-107.5 -264.5z" />
<glyph unicode="q" horiz-adv-x="1218" d="M82 492q0 140 66 258.5t174.5 186t230.5 67.5q63 0 122 -18t98 -44t69.5 -51.5t44.5 -43.5l14 -18v154h143v-1413h-143v584q-5 -7 -14.5 -19t-43 -42t-71 -52.5t-97 -41.5t-122.5 -19q-122 0 -230.5 67.5t-174.5 186t-66 258.5zM225 492q0 -157 100.5 -268t227.5 -111 q133 0 240.5 114t107.5 265t-107.5 264.5t-240.5 113.5q-127 0 -227.5 -110.5t-100.5 -267.5z" />
<glyph unicode="r" horiz-adv-x="706" d="M154 0v983h143v-133q4 6 12.5 16.5t38.5 37t64.5 47t92 37t120.5 16.5h41v-144h-62q-127 0 -217 -87.5t-90 -229.5v-543h-143z" />
<glyph unicode="s" horiz-adv-x="880" d="M61 154l103 102q4 -6 11 -15.5t32 -34t52.5 -43.5t71 -34.5t89.5 -15.5q103 0 159 45.5t56 117.5q0 45 -29.5 77.5t-76.5 51.5t-104 36t-113.5 38t-103.5 49.5t-76.5 79t-29.5 119.5q0 111 93 194t235 83q57 0 111 -14t90 -33.5t63.5 -39t40.5 -33.5l13 -14l-103 -102 q-3 4 -8.5 11t-26 24.5t-43 31t-60 24.5t-77.5 11q-81 0 -132.5 -43t-51.5 -100q0 -43 29.5 -74t76.5 -49t103.5 -34.5t113 -38t103.5 -51t76.5 -81.5t29.5 -123q0 -127 -97 -211.5t-261 -84.5q-69 0 -131.5 18t-102 43.5t-69.5 51t-43 43.5z" />
<glyph unicode="t" horiz-adv-x="737" d="M51 850v133h113q82 0 82 102v226h133v-328h215v-133h-215v-584q0 -75 35 -114t98 -39q32 0 65 7.5t51 15.5l17 7v-133q-61 -30 -139 -30q-127 0 -198.5 74.5t-71.5 211.5v584h-185z" />
<glyph unicode="u" horiz-adv-x="1198" d="M154 410v573h143v-573q0 -129 79.5 -213t196.5 -84q125 0 211 91.5t86 235.5v543h144v-983h-144v133q-4 -6 -12 -16.5t-37.5 -37t-63 -46.5t-89 -36.5t-115.5 -16.5q-171 0 -285 120t-114 310z" />
<glyph unicode="v" horiz-adv-x="1003" d="M20 983h154l318 -788l317 788h154l-400 -983h-143z" />
<glyph unicode="w" horiz-adv-x="1495" d="M20 983h154l256 -758l246 758h123l245 -758l256 758h154l-338 -983h-133l-246 748l-245 -748h-134z" />
<glyph unicode="x" horiz-adv-x="983" d="M20 0l369 512l-338 471h174l256 -358l256 358h174l-338 -471l369 -512h-174l-287 399l-286 -399h-175z" />
<glyph unicode="y" horiz-adv-x="1003" d="M20 983h154l318 -799l317 799h154l-451 -1126q-62 -155 -131.5 -221t-175.5 -66q-32 0 -62.5 5t-45.5 10l-15 5v134q51 -21 102 -21q68 0 112.5 38t72.5 116l51 143z" />
<glyph unicode="z" horiz-adv-x="952" d="M72 0v133l594 717h-574v133h748v-133l-594 -717h614v-133h-788z" />
<glyph unicode="{" horiz-adv-x="727" d="M123 451v122q143 0 143 144v461q0 125 81.5 200.5t225.5 75.5h82v-123h-82q-83 0 -128.5 -41.5t-45.5 -111.5v-461q0 -49 -12.5 -88t-30.5 -60t-36.5 -35t-31.5 -18l-12 -4q5 -1 13.5 -4.5t29.5 -18t37 -35t29.5 -59.5t13.5 -88v-461q0 -70 45.5 -111.5t128.5 -41.5h82 v-123h-82q-144 0 -225.5 75.5t-81.5 200.5v461q0 144 -143 144z" />
<glyph unicode="|" horiz-adv-x="686" d="M276 -430v1884h134v-1884h-134z" />
<glyph unicode="}" horiz-adv-x="727" d="M72 -307h82q83 0 128.5 41.5t45.5 111.5v461q0 49 12.5 88t31 60t36.5 35t30 18l13 4q-5 1 -13.5 4.5t-29.5 18t-37 35t-29.5 59.5t-13.5 88v461q0 70 -45.5 111.5t-128.5 41.5h-82v123h82q144 0 225.5 -75.5t81.5 -200.5v-461q0 -144 143 -144v-122q-143 0 -143 -144 v-461q0 -125 -81.5 -200.5t-225.5 -75.5h-82v123z" />
<glyph unicode="~" horiz-adv-x="1085" d="M72 563q4 7 11 19t33 42t55.5 52.5t77 41.5t99.5 19q57 0 103.5 -14.5t78.5 -35.5t61.5 -42.5t66.5 -36t79 -14.5q37 0 70 12.5t53 31t35 36.5t21 30l6 13l92 -72q-4 -7 -11.5 -19t-33 -42t-55.5 -52.5t-77.5 -41.5t-99.5 -19q-57 0 -103.5 14.5t-78.5 35.5t-61.5 42.5 t-66.5 36t-79 14.5q-37 0 -70 -12.5t-53 -30.5t-34.5 -36t-20.5 -31l-6 -12z" />
<glyph unicode="&#xa1;" horiz-adv-x="573" d="M184 901q0 46 28.5 74.5t74.5 28.5t74 -28.5t28 -74.5t-28 -74t-74 -28t-74.5 28t-28.5 74zM195 -430l30 1065h123l31 -1065h-184z" />
<glyph unicode="&#xa2;" horiz-adv-x="1024" d="M82 492q0 194 123 336t297 169v211h133v-213q57 -9 111 -30.5t89.5 -46t63 -47t40.5 -37.5l13 -15l-92 -92q-4 6 -12 15.5t-36 34t-58.5 43.5t-79.5 34.5t-101 15.5q-140 0 -244 -109.5t-104 -268.5t104 -269t244 -110q52 0 100.5 14.5t80.5 35.5t57.5 42.5t36.5 36.5 l12 14l92 -92q-5 -6 -13.5 -16.5t-39 -38t-64.5 -50t-88.5 -44t-111.5 -27.5v-213h-133v211q-176 27 -298 166.5t-122 339.5z" />
<glyph unicode="&#xa3;" horiz-adv-x="1146" d="M133 0v143q61 0 102 39t41 94v318h-133v143h133v267q0 199 124 324.5t317 125.5q69 0 132 -18t104 -43.5t72.5 -51t45.5 -43.5l14 -18l-102 -102q-4 5 -11 14t-32.5 32t-54 40.5t-74 32t-94.5 14.5q-124 0 -210.5 -88.5t-86.5 -218.5v-267h420v-143h-420v-318 q0 -41 -13 -74t-25 -46l-13 -13h716v-143h-952z" />
<glyph unicode="&#xa4;" horiz-adv-x="1372" d="M102 256v143h164v174h-164v144h164v717h533q198 0 324 -122t126 -308t-126 -308.5t-324 -122.5h-379v-174h502v-143h-502v-256h-154v256h-164zM420 717h379q130 0 213.5 81.5t83.5 205.5t-83.5 205t-213.5 81h-379v-573z" />
<glyph unicode="&#xa5;" horiz-adv-x="1300" d="M41 1434h174l430 -768h10l430 768h175l-447 -779h242v-133h-318l-10 -20v-133h328v-133h-328v-236h-154v236h-327v133h327v133l-12 20h-315v133h239z" />
<glyph unicode="&#xa6;" horiz-adv-x="686" d="M276 348h134v-778h-134v778zM276 676v778h134v-778h-134z" />
<glyph unicode="&#xa7;" horiz-adv-x="1105" d="M133 655q0 55 21 103.5t51.5 79t60.5 53t51 31.5l21 10q-6 2 -15.5 7.5t-34 24t-43.5 41t-34.5 61t-15.5 81.5q0 127 102 217t266 90q59 0 114 -14.5t92 -36t66 -42.5t43 -35l13 -15l-103 -94q-4 4 -10.5 11t-29.5 25t-47.5 32t-62 25t-75.5 11q-103 0 -164 -51t-61 -123 q0 -50 35 -87.5t91 -62.5t123.5 -48t135.5 -52t124 -66t91 -97.5t35 -139.5q0 -40 -11.5 -76t-29.5 -62t-40 -48.5t-43.5 -36.5t-39.5 -24t-29 -15l-12 -4q6 -3 16.5 -8.5t37 -26.5t47 -45t37 -63.5t16.5 -82.5q0 -135 -110.5 -231t-289.5 -96q-69 0 -132 19t-104 46 t-72.5 54t-45.5 46l-14 19l102 102l11 -16.5t32.5 -37t54 -46.5t74 -36.5t94.5 -16.5q118 0 187 56.5t69 137.5q0 43 -27.5 77.5t-73 57t-103.5 45.5t-118.5 42t-118.5 49.5t-103.5 65.5t-73 90.5t-27.5 125.5zM276 655q0 -51 30 -92.5t80 -68t96.5 -43.5t97.5 -31.5 t65 -20.5q7 1 19.5 4.5t44.5 18t56 34.5t44 56.5t20 81.5q0 51 -30 93.5t-80.5 70.5t-95.5 46.5t-97.5 34.5t-64.5 21q-8 -2 -20 -5.5t-44 -19.5t-56.5 -37t-44.5 -59t-20 -84z" />
<glyph unicode="&#xa8;" horiz-adv-x="696" d="M61 1300q0 38 27.5 65.5t65.5 27.5t65 -27.5t27 -65.5t-27 -65t-65 -27t-65.5 27t-27.5 65zM451 1300q0 38 27 65.5t65 27.5t65 -27.5t27 -65.5t-27 -65t-65 -27t-65 27t-27 65z" />
<glyph unicode="&#xa9;" horiz-adv-x="1802" d="M154 717q0 151 58.5 287.5t158 235t238 156.5t292.5 58t293 -58t238.5 -156.5t158 -235t58.5 -287.5t-58.5 -287.5t-158 -235t-238.5 -156.5t-293 -58t-292.5 58t-238 156.5t-158 235t-58.5 287.5zM287 717q0 -172 80.5 -313t221.5 -221.5t312 -80.5q128 0 242.5 47.5 t196 129t129 196t47.5 242.5q0 171 -80.5 312t-221.5 221.5t-313 80.5q-171 0 -312 -80.5t-221.5 -221.5t-80.5 -312zM522 717q0 169 110 279t279 110q57 0 110 -16t87.5 -38.5t60.5 -45t38 -38.5l12 -16l-82 -82q-3 5 -8.5 12.5t-26.5 27t-45 34.5t-63.5 27t-82.5 12 q-115 0 -190.5 -75.5t-75.5 -190.5t75.5 -190.5t190.5 -75.5q43 0 82 11.5t64.5 28t44 33t26.5 28.5l9 11l82 -82q-4 -6 -12.5 -16.5t-37 -37t-61.5 -46.5t-86.5 -36.5t-110.5 -16.5q-169 0 -279 110t-110 279z" />
<glyph unicode="&#xaa;" horiz-adv-x="675" d="M72 993q0 151 184 185l215 41q0 61 -35.5 97t-97.5 36q-45 0 -83.5 -20.5t-54.5 -41.5l-16 -20l-71 61q3 5 8.5 13.5t26 29.5t44.5 37t63.5 29.5t82.5 13.5q115 0 175 -58.5t60 -166.5v-379h-102v82q-2 -4 -6.5 -11t-21.5 -25t-38 -31.5t-58.5 -24.5t-80.5 -11 q-82 0 -138 50t-56 114zM184 1004q0 -82 103 -82q78 0 131 52.5t53 131.5v20l-195 -41q-92 -18 -92 -81z" />
<glyph unicode="&#xab;" horiz-adv-x="952" d="M92 492l236 337h153l-235 -337l235 -338h-153zM471 492l236 337h153l-235 -337l235 -338h-153z" />
<glyph unicode="&#xac;" horiz-adv-x="942" d="M92 666v133h768v-420h-143v287h-625z" />
<glyph unicode="&#xad;" horiz-adv-x="870" d="M92 532v134h686v-134h-686z" />
<glyph unicode="&#xae;" horiz-adv-x="1802" d="M154 717q0 151 58.5 287.5t158 235t238 156.5t292.5 58t293 -58t238.5 -156.5t158 -235t58.5 -287.5t-58.5 -287.5t-158 -235t-238.5 -156.5t-293 -58t-292.5 58t-238 156.5t-158 235t-58.5 287.5zM287 717q0 -172 80.5 -313t221.5 -221.5t312 -80.5q128 0 242.5 47.5 t196 129t129 196t47.5 242.5q0 171 -80.5 312t-221.5 221.5t-313 80.5q-171 0 -312 -80.5t-221.5 -221.5t-80.5 -312zM645 338v758h289q112 0 183 -67.5t71 -168.5q0 -43 -15 -80t-36 -59t-42 -38t-36 -22l-15 -6l185 -317h-131l-156 287h-174v-287h-123zM768 748h174 q133 0 133 112q0 113 -133 113h-174v-225z" />
<glyph unicode="&#xaf;" horiz-adv-x="716" d="M61 1300v113h594v-113h-594z" />
<glyph unicode="&#xb0;" horiz-adv-x="737" d="M82 1178q0 116 82.5 196t204.5 80t204 -80t82 -196t-82 -196.5t-204 -80.5t-204.5 80.5t-82.5 196.5zM205 1178q0 -69 47.5 -116.5t116.5 -47.5t116 47.5t47 116.5t-47 116t-116 47t-116.5 -47t-47.5 -116z" />
<glyph unicode="&#xb1;" horiz-adv-x="1054" d="M82 707v133h379v389h133v-389h379v-133h-379v-390h-133v390h-379zM92 51v133h871v-133h-871z" />
<glyph unicode="&#xb2;" horiz-adv-x="614" d="M61 922q0 62 20.5 116t53 91.5t71.5 70.5t78.5 60.5t72 53.5t53 56.5t20.5 63.5q0 47 -35 79.5t-88 32.5q-29 0 -54 -11.5t-40.5 -28t-27 -33t-16.5 -27.5l-5 -12l-92 30q2 8 5.5 20t21 44t41 56.5t68 44.5t99.5 20q106 0 171 -60.5t65 -154.5q0 -63 -29 -112.5 t-73.5 -83t-91.5 -63t-91 -68.5t-63 -83h348v-102h-482z" />
<glyph unicode="&#xb3;" horiz-adv-x="634" d="M51 1034l72 82q3 -4 8.5 -11t24.5 -24.5t40 -31t54 -24.5t67 -11q134 0 134 112q0 55 -38 89t-106 34h-82v103h82q53 0 83 28t30 74q0 40 -32 66t-91 26q-27 0 -53 -9.5t-43 -22.5t-30.5 -26t-19.5 -22l-6 -10l-73 76q3 5 9 13t27 28t45 35.5t63 28t81 12.5 q104 0 169.5 -58t65.5 -137q0 -34 -8.5 -63t-20 -45t-23.5 -27t-20 -15l-9 -4q5 -1 12.5 -4t26.5 -16t34 -30.5t27 -50.5t12 -73q0 -94 -66.5 -154.5t-179.5 -60.5q-52 0 -98 12.5t-75.5 30.5t-51.5 36.5t-32 31.5z" />
<glyph unicode="&#xb4;" horiz-adv-x="430" d="M61 1157l154 277h154l-195 -277h-113z" />
<glyph unicode="&#xb5;" d="M154 -430v1413h143v-584q0 -129 74.5 -207.5t191.5 -78.5q125 0 206 86.5t81 230.5v553h143v-778q0 -38 27 -65t65 -27q14 0 27 2.5t19 4.5l6 3v-133q-21 -10 -62 -10q-42 0 -76.5 9t-56 23.5t-38 32t-24.5 34.5t-13 31.5t-6 23.5l-1 9q-4 -7 -11.5 -18t-35 -39 t-59.5 -49.5t-86.5 -39t-114.5 -17.5q-49 0 -93 8.5t-72.5 20t-50 23.5t-31.5 20l-9 9v-491h-143z" />
<glyph unicode="&#xb6;" horiz-adv-x="1105" d="M92 1096q0 138 100 238t238 100h481v-1639h-133v1505h-215v-1505h-133v963q-138 0 -238 100t-100 238z" />
<glyph unicode="&#xb7;" horiz-adv-x="389" d="M92 512q0 46 28.5 74t74.5 28t74 -28t28 -74t-28 -74t-74 -28t-74.5 28t-28.5 74z" />
<glyph unicode="&#xb8;" horiz-adv-x="491" d="M61 -354l41 67q6 -6 17 -14.5t46 -22.5t71 -14q44 0 73 25t29 57q0 31 -22.5 51.5t-59.5 20.5q-16 0 -31.5 -5t-22.5 -11l-7 -5l-52 51l93 195h92l-72 -154h10q75 0 119.5 -41t44.5 -106q0 -68 -52.5 -114t-141.5 -46q-45 0 -89 16.5t-65 33.5z" />
<glyph unicode="&#xb9;" horiz-adv-x="430" d="M61 1464v82q34 0 63 9.5t45 23t27 27t15 22.5l4 10h92v-716h-112v542h-134z" />
<glyph unicode="&#xba;" horiz-adv-x="737" d="M61 1137q0 137 88.5 227t219.5 90t219 -90t88 -227t-88 -227.5t-219 -90.5t-219.5 90.5t-88.5 227.5zM174 1137q0 -98 54.5 -156.5t140.5 -58.5t140 58.5t54 156.5t-54 156.5t-140 58.5t-140.5 -58.5t-54.5 -156.5z" />
<glyph unicode="&#xbb;" horiz-adv-x="952" d="M92 154l236 338l-236 337h154l235 -337l-235 -338h-154zM471 154l236 338l-236 337h154l235 -337l-235 -338h-154z" />
<glyph unicode="&#xbc;" horiz-adv-x="1361" d="M82 1260v81q34 0 63 9.5t45 23.5t27 27.5t15 22.5l4 10h92v-717h-113v543h-133zM133 0l881 1434h133l-881 -1434h-133zM748 164v102l317 451h133v-451h82v-102h-82v-164h-113v164h-337zM860 266h225v318z" />
<glyph unicode="&#xbd;" horiz-adv-x="1423" d="M82 1260v81q34 0 63 9.5t45 23.5t27 27.5t15 22.5l4 10h92v-717h-113v543h-133zM133 0l881 1434h133l-881 -1434h-133zM850 0q0 62 20.5 116t53 91.5t71.5 70.5t78.5 60.5t72 53.5t53 56.5t20.5 63.5q0 47 -35 80t-88 33q-45 0 -81 -28.5t-49 -56.5l-14 -28l-92 31 q2 7 6 19.5t21.5 44.5t41 56t68 44t99.5 20q106 0 170.5 -60.5t64.5 -154.5q0 -63 -29 -112.5t-73.5 -83t-91.5 -63t-91 -68.5t-63 -83h348v-102h-481z" />
<glyph unicode="&#xbe;" horiz-adv-x="1495" d="M61 829l72 82q3 -4 8.5 -11t24.5 -24.5t40 -31t54.5 -24.5t67.5 -11q133 0 133 113q0 55 -38 88.5t-106 33.5h-81v103h81q53 0 83 28t30 74q0 40 -32 66t-91 26q-27 0 -53 -9.5t-43 -22.5t-30 -26t-19 -23l-6 -9l-74 76q3 5 9 13t27 28t45 35.5t63 28t81 12.5 q104 0 170 -58t66 -137q0 -34 -8.5 -62.5t-20.5 -44.5t-24 -27t-20 -15l-9 -4q5 -1 12.5 -4t26.5 -16t34 -30.5t27 -50.5t12 -73q0 -94 -66 -154.5t-179 -60.5q-52 0 -98 12.5t-75.5 30.5t-52 36t-32.5 30zM266 0l881 1434h133l-881 -1434h-133zM881 164v102l317 451h133 v-451h82v-102h-82v-164h-112v164h-338zM993 266h226v318z" />
<glyph unicode="&#xbf;" horiz-adv-x="952" d="M61 -61q0 79 22 140.5t57.5 101t78 72.5t85 64.5t78 66.5t57.5 88.5t22 121.5v41h143q10 -45 10 -92q0 -66 -22 -121.5t-57 -94t-77.5 -72.5t-85.5 -66t-78 -66.5t-57 -81t-22 -102.5q0 -103 81.5 -174.5t215.5 -71.5q54 0 100.5 12.5t77 32.5t55 44t38 47.5t22 43.5 t11.5 33l3 12l133 -41q-1 -7 -4.5 -18.5t-18 -46t-34 -65.5t-55.5 -68.5t-79.5 -65t-108.5 -46t-140 -18.5q-129 0 -233.5 55t-161 143.5t-56.5 191.5zM430 901q0 46 28 74.5t74 28.5t74.5 -28.5t28.5 -74.5t-28.5 -74t-74.5 -28t-74 28t-28 74z" />
<glyph unicode="&#xc0;" horiz-adv-x="1433" d="M51 0l594 1434h143l594 -1434h-163l-164 399h-676l-164 -399h-164zM440 543h553l-276 676zM461 1905h153l154 -277h-113z" />
<glyph unicode="&#xc1;" horiz-adv-x="1433" d="M51 0l594 1434h143l594 -1434h-163l-164 399h-676l-164 -399h-164zM440 543h553l-276 676zM676 1628l153 277h154l-195 -277h-112z" />
<glyph unicode="&#xc2;" horiz-adv-x="1433" d="M51 0l594 1434h143l594 -1434h-163l-164 399h-676l-164 -399h-164zM420 1628l225 277h143l226 -277h-133l-164 195l-164 -195h-133zM440 543h553l-276 676z" />
<glyph unicode="&#xc3;" horiz-adv-x="1433" d="M51 0l594 1434h143l594 -1434h-163l-164 399h-676l-164 -399h-164zM399 1628q0 118 52.5 182t132.5 64q48 0 88.5 -21t63.5 -45.5t53.5 -45.5t60.5 -21q34 0 58 34t24 99h102q0 -118 -52 -182t-132 -64q-48 0 -88.5 21t-63.5 45.5t-53.5 45.5t-60.5 21q-34 0 -58 -34 t-24 -99h-103zM440 543h553l-276 676z" />
<glyph unicode="&#xc4;" horiz-adv-x="1433" d="M51 0l594 1434h143l594 -1434h-163l-164 399h-676l-164 -399h-164zM430 1753q0 38 27 65t65 27t65 -27t27 -65t-27 -65t-65 -27t-65 27t-27 65zM440 543h553l-276 676zM819 1753q0 38 27 65t65 27t65.5 -27t27.5 -65t-27.5 -65t-65.5 -27t-65 27t-27 65z" />
<glyph unicode="&#xc5;" horiz-adv-x="1433" d="M51 0l594 1434h143l594 -1434h-163l-164 399h-676l-164 -399h-164zM440 543h553l-276 676zM522 1761q0 85 55 140t140 55t139.5 -55t54.5 -140t-54.5 -139.5t-139.5 -54.5t-140 54.5t-55 139.5zM625 1761q0 -45 26.5 -73.5t65.5 -28.5t65.5 28.5t26.5 73.5t-26.5 74 t-65.5 29t-65.5 -29t-26.5 -74z" />
<glyph unicode="&#xc6;" horiz-adv-x="1966" d="M-41 0l799 1434h1095v-144h-737v-471h574v-143h-574v-533h758v-143h-911v420h-605l-235 -420h-164zM430 563h533v727h-123z" />
<glyph unicode="&#xc7;" horiz-adv-x="1536" d="M123 717q0 151 58 287.5t156.5 235t235 156.5t287.5 58q109 0 209 -30.5t165.5 -74t115 -87.5t72.5 -74l22 -31l-103 -92q-6 10 -18.5 26.5t-56.5 59t-95 75t-135 59t-176 26.5q-162 0 -296 -77.5t-211 -214t-77 -302.5t77 -302.5t211 -214t296 -77.5q92 0 176.5 25.5 t139.5 61.5t96.5 72t60.5 62l19 25l102 -93q-8 -12 -23.5 -31t-69.5 -68.5t-115 -88t-159.5 -71t-203.5 -35.5l-43 -95h10q75 0 119.5 -41t44.5 -106q0 -68 -52.5 -114t-142.5 -46q-45 0 -88.5 16.5t-64.5 33.5l-21 16l41 67q6 -6 16.5 -14.5t45.5 -22.5t71 -14 q44 0 73.5 25t29.5 57q0 31 -22.5 51.5t-59.5 20.5q-16 0 -31.5 -5t-22.5 -11l-8 -5l-51 51l64 138q-186 16 -339 117t-241 263.5t-88 352.5z" />
<glyph unicode="&#xc8;" horiz-adv-x="1310" d="M215 0v1434h983v-144h-829v-471h665v-143h-665v-533h850v-143h-1004zM492 1905h153l154 -277h-113z" />
<glyph unicode="&#xc9;" horiz-adv-x="1310" d="M215 0v1434h983v-144h-829v-471h665v-143h-665v-533h850v-143h-1004zM645 1628l154 277h153l-194 -277h-113z" />
<glyph unicode="&#xca;" horiz-adv-x="1310" d="M215 0v1434h983v-144h-829v-471h665v-143h-665v-533h850v-143h-1004zM420 1618l225 276h143l226 -276h-133l-164 194l-164 -194h-133z" />
<glyph unicode="&#xcb;" horiz-adv-x="1310" d="M215 0v1434h983v-144h-829v-471h665v-143h-665v-533h850v-143h-1004zM430 1751q0 38 27 65t65 27t65 -27t27 -65t-27 -65t-65 -27t-65 27t-27 65zM819 1751q0 38 27 65t65 27t65.5 -27t27.5 -65t-27.5 -65t-65.5 -27t-65 27t-27 65z" />
<glyph unicode="&#xcc;" horiz-adv-x="583" d="M41 1905h154l153 -277h-112zM215 0v1434h154v-1434h-154z" />
<glyph unicode="&#xcd;" horiz-adv-x="583" d="M215 0v1434h154v-1434h-154zM246 1628l153 277h154l-195 -277h-112z" />
<glyph unicode="&#xce;" horiz-adv-x="583" d="M0 1618l225 276h144l225 -276h-133l-164 194l-164 -194h-133zM215 0v1434h154v-1434h-154z" />
<glyph unicode="&#xcf;" horiz-adv-x="583" d="M10 1751q0 38 27 65t65 27t65.5 -27t27.5 -65t-27.5 -65t-65.5 -27t-65 27t-27 65zM215 0v1434h154v-1434h-154zM399 1751q0 38 27.5 65t65.5 27t65 -27t27 -65t-27 -65t-65 -27t-65.5 27t-27.5 65z" />
<glyph unicode="&#xd0;" horiz-adv-x="1566" d="M51 645v143h195v646h450q154 0 293.5 -57.5t238.5 -154.5t157.5 -229t58.5 -276t-58.5 -276t-157.5 -229t-238.5 -154.5t-293.5 -57.5h-450v645h-195zM399 143h297q166 0 302.5 77t214 208.5t77.5 288.5t-77.5 288t-214 208t-302.5 77h-297v-502h349v-143h-349v-502z" />
<glyph unicode="&#xd1;" horiz-adv-x="1597" d="M215 0v1434h133l881 -1158v1158h153v-1434h-133l-880 1157v-1157h-154zM481 1628q0 118 52.5 182t132.5 64q48 0 88.5 -21t63.5 -45.5t53.5 -45.5t60.5 -21q34 0 58 34t24 99h102q0 -118 -52 -182t-132 -64q-48 0 -88.5 21t-63.5 45.5t-53.5 45.5t-60.5 21q-34 0 -58 -34 t-24 -99h-103z" />
<glyph unicode="&#xd2;" horiz-adv-x="1720" d="M123 717q0 151 58 287.5t156.5 235t235 156.5t287.5 58t287.5 -58t235 -156.5t156.5 -235t58 -287.5t-58 -287.5t-156.5 -235t-235 -156.5t-287.5 -58t-287.5 58t-235 156.5t-156.5 235t-58 287.5zM276 717q0 -166 77 -302.5t211 -214t296 -77.5t296 77.5t211 214 t77 302.5t-77 302.5t-211 214t-296 77.5t-296 -77.5t-211 -214t-77 -302.5zM614 1905h154l154 -277h-113z" />
<glyph unicode="&#xd3;" horiz-adv-x="1720" d="M123 717q0 151 58 287.5t156.5 235t235 156.5t287.5 58t287.5 -58t235 -156.5t156.5 -235t58 -287.5t-58 -287.5t-156.5 -235t-235 -156.5t-287.5 -58t-287.5 58t-235 156.5t-156.5 235t-58 287.5zM276 717q0 -166 77 -302.5t211 -214t296 -77.5t296 77.5t211 214 t77 302.5t-77 302.5t-211 214t-296 77.5t-296 -77.5t-211 -214t-77 -302.5zM819 1628l154 277h153l-194 -277h-113z" />
<glyph unicode="&#xd4;" horiz-adv-x="1720" d="M123 717q0 151 58 287.5t156.5 235t235 156.5t287.5 58t287.5 -58t235 -156.5t156.5 -235t58 -287.5t-58 -287.5t-156.5 -235t-235 -156.5t-287.5 -58t-287.5 58t-235 156.5t-156.5 235t-58 287.5zM276 717q0 -166 77 -302.5t211 -214t296 -77.5t296 77.5t211 214 t77 302.5t-77 302.5t-211 214t-296 77.5t-296 -77.5t-211 -214t-77 -302.5zM563 1618l225 276h144l225 -276h-133l-164 194l-164 -194h-133z" />
<glyph unicode="&#xd5;" horiz-adv-x="1720" d="M123 717q0 151 58 287.5t156.5 235t235 156.5t287.5 58t287.5 -58t235 -156.5t156.5 -235t58 -287.5t-58 -287.5t-156.5 -235t-235 -156.5t-287.5 -58t-287.5 58t-235 156.5t-156.5 235t-58 287.5zM276 717q0 -166 77 -302.5t211 -214t296 -77.5t296 77.5t211 214 t77 302.5t-77 302.5t-211 214t-296 77.5t-296 -77.5t-211 -214t-77 -302.5zM553 1628q0 118 52 182t132 64q48 0 89 -21t64 -45.5t53.5 -45.5t60.5 -21q34 0 57.5 34t23.5 99h103q0 -118 -52 -182t-132 -64q-48 0 -89 21t-64 45.5t-53.5 45.5t-60.5 21q-34 0 -58 -34 t-24 -99h-102z" />
<glyph unicode="&#xd6;" horiz-adv-x="1720" d="M123 717q0 151 58 287.5t156.5 235t235 156.5t287.5 58t287.5 -58t235 -156.5t156.5 -235t58 -287.5t-58 -287.5t-156.5 -235t-235 -156.5t-287.5 -58t-287.5 58t-235 156.5t-156.5 235t-58 287.5zM276 717q0 -166 77 -302.5t211 -214t296 -77.5t296 77.5t211 214 t77 302.5t-77 302.5t-211 214t-296 77.5t-296 -77.5t-211 -214t-77 -302.5zM573 1751q0 38 27.5 65t65.5 27t65 -27t27 -65t-27 -65t-65 -27t-65.5 27t-27.5 65zM963 1751q0 38 27 65t65 27t65 -27t27 -65t-27 -65t-65 -27t-65 27t-27 65z" />
<glyph unicode="&#xd7;" horiz-adv-x="942" d="M92 348l287 287l-287 287l92 92l287 -287l287 287l92 -92l-287 -287l287 -287l-92 -92l-287 287l-287 -287z" />
<glyph unicode="&#xd8;" horiz-adv-x="1720" d="M102 61l185 185q-7 8 -18 22t-39 61t-50 98.5t-39.5 130.5t-17.5 159q0 151 58 287.5t156.5 235t235 156.5t287.5 58q80 0 158.5 -17t132.5 -41t96.5 -48t62.5 -41l21 -17l185 185l102 -103l-184 -184q7 -8 18 -22t39 -61t49.5 -98.5t39 -130.5t17.5 -159 q0 -151 -58 -287.5t-156.5 -235t-235 -156.5t-287.5 -58q-80 0 -158.5 17t-132.5 41t-96.5 47.5t-62.5 40.5l-21 17l-184 -184zM276 717q0 -63 11.5 -124t28 -103.5t33.5 -76t29 -49.5l11 -16l840 840q-6 5 -17 13.5t-48 29.5t-77 37t-102 29.5t-125 13.5q-162 0 -296 -77.5 t-211 -214t-77 -302.5zM492 246q6 -5 17 -13.5t47.5 -29.5t76.5 -37t102 -29.5t125 -13.5q162 0 296 77.5t211 214t77 302.5q0 63 -11.5 124t-28 103.5t-33.5 75.5t-29 49l-11 16z" />
<glyph unicode="&#xd9;" horiz-adv-x="1556" d="M195 563v871h153v-871q0 -184 126 -312t304 -128t304 128t126 312v871h154v-871q0 -156 -79.5 -290.5t-214 -213.5t-290.5 -79q-117 0 -224.5 47t-186 125.5t-125.5 186t-47 224.5zM553 1905h154l153 -277h-112z" />
<glyph unicode="&#xda;" horiz-adv-x="1556" d="M195 563v871h153v-871q0 -184 126 -312t304 -128t304 128t126 312v871h154v-871q0 -156 -79.5 -290.5t-214 -213.5t-290.5 -79q-117 0 -224.5 47t-186 125.5t-125.5 186t-47 224.5zM707 1628l153 277h154l-195 -277h-112z" />
<glyph unicode="&#xdb;" horiz-adv-x="1556" d="M195 563v871h153v-871q0 -184 126 -312t304 -128t304 128t126 312v871h154v-871q0 -156 -79.5 -290.5t-214 -213.5t-290.5 -79q-117 0 -224.5 47t-186 125.5t-125.5 186t-47 224.5zM481 1618l226 276h143l225 -276h-133l-164 194l-164 -194h-133z" />
<glyph unicode="&#xdc;" horiz-adv-x="1556" d="M195 563v871h153v-871q0 -184 126 -312t304 -128t304 128t126 312v871h154v-871q0 -156 -79.5 -290.5t-214 -213.5t-290.5 -79q-117 0 -224.5 47t-186 125.5t-125.5 186t-47 224.5zM481 1751q0 38 27 65t65 27t65.5 -27t27.5 -65t-27.5 -65t-65.5 -27t-65 27t-27 65z M870 1751q0 38 27.5 65t65.5 27t65 -27t27 -65t-27 -65t-65 -27t-65.5 27t-27.5 65z" />
<glyph unicode="&#xdd;" horiz-adv-x="1300" d="M41 1434h174l430 -768h10l430 768h175l-533 -932v-502h-154v502zM604 1628l154 277h153l-194 -277h-113z" />
<glyph unicode="&#xde;" horiz-adv-x="1372" d="M215 -41v1516h154v-287h419q199 0 330 -129t131 -322t-131 -321.5t-330 -128.5h-419v-328h-154zM369 430h419q138 0 223 84.5t85 222.5t-85 222.5t-223 84.5h-419v-614z" />
<glyph unicode="&#xdf;" horiz-adv-x="1198" d="M164 0v1065q0 163 117 276t292 113t292.5 -111.5t117.5 -267.5q0 -56 -18 -106.5t-43.5 -82t-51 -55t-43.5 -33.5l-18 -10q6 -2 16 -5.5t38.5 -17.5t54.5 -31.5t58 -48.5t55 -66.5t38.5 -87.5t15.5 -111q0 -178 -125 -299t-315 -121h-92v143h92q129 0 213 80t84 197 t-84 196.5t-213 79.5h-92v144h20q109 0 188 68t79 167q0 101 -76.5 173.5t-190.5 72.5q-115 0 -190.5 -74t-75.5 -182v-1065h-143z" />
<glyph unicode="&#xe0;" horiz-adv-x="1064" d="M82 266q0 122 74 198t213 99l379 62q0 107 -69.5 176t-176.5 69q-49 0 -95.5 -14.5t-78 -36t-56 -42.5t-36.5 -35l-11 -15l-92 92q5 8 15.5 20t46.5 44t75.5 56.5t102.5 44.5t129 20q168 0 278.5 -108.5t110.5 -270.5v-625h-143v133q-4 -6 -12.5 -16.5t-37.5 -37 t-63 -46.5t-89.5 -36.5t-115.5 -16.5q-149 0 -248.5 87t-99.5 199zM225 266q0 -65 54.5 -109t150.5 -44q139 0 228.5 91t89.5 236v62l-338 -62q-185 -35 -185 -174zM287 1434h153l154 -277h-113z" />
<glyph unicode="&#xe1;" horiz-adv-x="1064" d="M82 266q0 122 74 198t213 99l379 62q0 107 -69.5 176t-176.5 69q-49 0 -95.5 -14.5t-78 -36t-56 -42.5t-36.5 -35l-11 -15l-92 92q5 8 15.5 20t46.5 44t75.5 56.5t102.5 44.5t129 20q168 0 278.5 -108.5t110.5 -270.5v-625h-143v133q-4 -6 -12.5 -16.5t-37.5 -37 t-63 -46.5t-89.5 -36.5t-115.5 -16.5q-149 0 -248.5 87t-99.5 199zM225 266q0 -65 54.5 -109t150.5 -44q139 0 228.5 91t89.5 236v62l-338 -62q-185 -35 -185 -174zM471 1157l154 277h153l-194 -277h-113z" />
<glyph unicode="&#xe2;" horiz-adv-x="1064" d="M82 266q0 122 74 198t213 99l379 62q0 107 -69.5 176t-176.5 69q-49 0 -95.5 -14.5t-78 -36t-56 -42.5t-36.5 -35l-11 -15l-92 92q5 8 15.5 20t46.5 44t75.5 56.5t102.5 44.5t129 20q168 0 278.5 -108.5t110.5 -270.5v-625h-143v133q-4 -6 -12.5 -16.5t-37.5 -37 t-63 -46.5t-89.5 -36.5t-115.5 -16.5q-149 0 -248.5 87t-99.5 199zM225 266q0 -65 54.5 -109t150.5 -44q139 0 228.5 91t89.5 236v62l-338 -62q-185 -35 -185 -174zM246 1157l225 277h143l226 -277h-133l-164 195l-164 -195h-133z" />
<glyph unicode="&#xe3;" horiz-adv-x="1064" d="M82 266q0 122 74 198t213 99l379 62q0 107 -69.5 176t-176.5 69q-49 0 -95.5 -14.5t-78 -36t-56 -42.5t-36.5 -35l-11 -15l-92 92q5 8 15.5 20t46.5 44t75.5 56.5t102.5 44.5t129 20q168 0 278.5 -108.5t110.5 -270.5v-625h-143v133q-4 -6 -12.5 -16.5t-37.5 -37 t-63 -46.5t-89.5 -36.5t-115.5 -16.5q-149 0 -248.5 87t-99.5 199zM215 1157q0 118 52 182t132 64q48 0 89 -21t64 -45.5t53.5 -45.5t60.5 -21q34 0 58 34t24 99h102q0 -118 -52 -182t-132 -64q-48 0 -89 21t-64 45.5t-53.5 45.5t-60.5 21q-34 0 -58 -34t-24 -99h-102z M225 266q0 -65 54.5 -109t150.5 -44q139 0 228.5 91t89.5 236v62l-338 -62q-185 -35 -185 -174z" />
<glyph unicode="&#xe4;" horiz-adv-x="1064" d="M82 266q0 122 74 198t213 99l379 62q0 107 -69.5 176t-176.5 69q-49 0 -95.5 -14.5t-78 -36t-56 -42.5t-36.5 -35l-11 -15l-92 92q5 8 15.5 20t46.5 44t75.5 56.5t102.5 44.5t129 20q168 0 278.5 -108.5t110.5 -270.5v-625h-143v133q-4 -6 -12.5 -16.5t-37.5 -37 t-63 -46.5t-89.5 -36.5t-115.5 -16.5q-149 0 -248.5 87t-99.5 199zM225 266q0 -65 54.5 -109t150.5 -44q139 0 228.5 91t89.5 236v62l-338 -62q-185 -35 -185 -174zM246 1290q0 38 27 65t65 27t65 -27t27 -65t-27 -65t-65 -27t-65 27t-27 65zM635 1290q0 38 27 65t65 27 t65 -27t27 -65t-27 -65t-65 -27t-65 27t-27 65z" />
<glyph unicode="&#xe5;" horiz-adv-x="1064" d="M82 266q0 122 74 198t213 99l379 62q0 107 -69.5 176t-176.5 69q-49 0 -95.5 -14.5t-78 -36t-56 -42.5t-36.5 -35l-11 -15l-92 92q5 8 15.5 20t46.5 44t75.5 56.5t102.5 44.5t129 20q168 0 278.5 -108.5t110.5 -270.5v-625h-143v133q-4 -6 -12.5 -16.5t-37.5 -37 t-63 -46.5t-89.5 -36.5t-115.5 -16.5q-149 0 -248.5 87t-99.5 199zM225 266q0 -65 54.5 -109t150.5 -44q139 0 228.5 91t89.5 236v62l-338 -62q-185 -35 -185 -174zM338 1311q0 85 54.5 139.5t139.5 54.5t140 -54.5t55 -139.5t-55 -140t-140 -55t-139.5 55t-54.5 140z M440 1311q0 -45 26.5 -74t65.5 -29t66 29t27 74t-27 73.5t-66 28.5t-65.5 -28.5t-26.5 -73.5z" />
<glyph unicode="&#xe6;" horiz-adv-x="1781" d="M82 266q0 125 97 216t241 91h338v31q0 118 -69 192t-177 74q-49 0 -94 -14.5t-75 -36t-53 -42.5t-34 -35l-10 -15l-92 92q5 8 14.5 20t43.5 44t72 56.5t99.5 44.5t126.5 20q69 0 130 -21t97.5 -51t63.5 -60.5t38 -51.5l11 -21q5 8 15.5 22t47 49.5t77 62.5t105.5 49 t134 22q188 0 319 -141.5t131 -360.5q0 -14 -2.5 -29.5t-4.5 -24.5l-3 -8h-768q8 -131 109.5 -229t232.5 -98q57 0 110 17t87 40.5t60.5 47.5t37.5 41l12 17l95 -92l-16.5 -22t-48.5 -49t-81 -62t-112.5 -49t-143.5 -22q-57 0 -110.5 13.5t-93.5 35t-75.5 47.5t-59.5 52.5 t-41.5 48t-25.5 35.5l-8 13q-4 -10 -12.5 -26.5t-42.5 -58.5t-75 -74.5t-113.5 -59t-155.5 -26.5q-157 0 -252.5 83t-95.5 203zM225 266q0 -65 54.5 -109t150.5 -44q143 0 235.5 96.5t92.5 230.5h-338q-91 0 -143 -48t-52 -126zM901 573h645q-24 132 -110 214.5t-207 82.5 t-217 -89.5t-111 -207.5z" />
<glyph unicode="&#xe7;" horiz-adv-x="1054" d="M82 492q0 141 67 259t180 185.5t244 67.5q72 0 139.5 -20t112.5 -49t80 -57.5t51 -48.5l17 -20l-103 -102q-4 7 -12 18t-36 39t-60 49.5t-83 39t-106 17.5q-140 0 -244 -109.5t-104 -268.5t104 -269t244 -110q55 0 106.5 17t86.5 40.5t62 47.5t40 41l13 17l102 -92 q-6 -8 -17 -20.5t-48 -45.5t-77.5 -59t-104.5 -49.5t-130 -27.5l-43 -95h10q75 0 119.5 -41t44.5 -106q0 -68 -52.5 -114t-141.5 -46q-45 0 -88.5 16.5t-64.5 33.5l-21 16l41 67q6 -6 16.5 -14.5t45.5 -22.5t71 -14q44 0 73 25t29 57q0 31 -22.5 51.5t-59.5 20.5 q-16 0 -31.5 -5t-22.5 -11l-7 -5l-51 51l63 138q-182 22 -307 166.5t-125 341.5z" />
<glyph unicode="&#xe8;" horiz-adv-x="1136" d="M82 492q0 140 66.5 258.5t177 186t237.5 67.5q201 0 336 -139t135 -353q0 -18 -2.5 -36.5t-5.5 -27.5l-2 -10l-799 2q8 -132 110 -229.5t238 -97.5q58 0 112 17t90 40.5t63.5 47.5t39.5 41l13 17l92 -92q-6 -8 -17 -22t-50.5 -49t-83.5 -62t-114.5 -49t-144.5 -22 q-131 0 -244 67.5t-180 185.5t-67 259zM225 563h666q-15 132 -107 219.5t-221 87.5q-128 0 -225.5 -91t-112.5 -216zM328 1434h153l154 -277h-113z" />
<glyph unicode="&#xe9;" horiz-adv-x="1136" d="M82 492q0 140 66.5 258.5t177 186t237.5 67.5q201 0 336 -139t135 -353q0 -18 -2.5 -36.5t-5.5 -27.5l-2 -10l-799 2q8 -132 110 -229.5t238 -97.5q58 0 112 17t90 40.5t63.5 47.5t39.5 41l13 17l92 -92q-6 -8 -17 -22t-50.5 -49t-83.5 -62t-114.5 -49t-144.5 -22 q-131 0 -244 67.5t-180 185.5t-67 259zM225 563h666q-15 132 -107 219.5t-221 87.5q-128 0 -225.5 -91t-112.5 -216zM512 1157l154 277h153l-194 -277h-113z" />
<glyph unicode="&#xea;" horiz-adv-x="1136" d="M82 492q0 140 66.5 258.5t177 186t237.5 67.5q201 0 336 -139t135 -353q0 -18 -2.5 -36.5t-5.5 -27.5l-2 -10l-799 2q8 -132 110 -229.5t238 -97.5q58 0 112 17t90 40.5t63.5 47.5t39.5 41l13 17l92 -92q-6 -8 -17 -22t-50.5 -49t-83.5 -62t-114.5 -49t-144.5 -22 q-131 0 -244 67.5t-180 185.5t-67 259zM225 563h666q-15 132 -107 219.5t-221 87.5q-128 0 -225.5 -91t-112.5 -216zM276 1157l226 277h143l225 -277h-133l-164 195l-163 -195h-134z" />
<glyph unicode="&#xeb;" horiz-adv-x="1136" d="M82 492q0 140 66.5 258.5t177 186t237.5 67.5q201 0 336 -139t135 -353q0 -18 -2.5 -36.5t-5.5 -27.5l-2 -10l-799 2q8 -132 110 -229.5t238 -97.5q58 0 112 17t90 40.5t63.5 47.5t39.5 41l13 17l92 -92q-6 -8 -17 -22t-50.5 -49t-83.5 -62t-114.5 -49t-144.5 -22 q-131 0 -244 67.5t-180 185.5t-67 259zM225 563h666q-15 132 -107 219.5t-221 87.5q-128 0 -225.5 -91t-112.5 -216zM276 1290q0 38 27.5 65t65.5 27t65 -27t27 -65t-27 -65t-65 -27t-65.5 27t-27.5 65zM666 1290q0 38 27 65t65 27t65 -27t27 -65t-27 -65t-65 -27t-65 27 t-27 65z" />
<glyph unicode="&#xec;" horiz-adv-x="471" d="M-31 1434h154l153 -277h-112zM154 0v983h143v-983h-143z" />
<glyph unicode="&#xed;" horiz-adv-x="471" d="M154 0v983h143v-983h-143zM164 1157l153 277h154l-195 -277h-112z" />
<glyph unicode="&#xee;" horiz-adv-x="471" d="M-72 1157l226 277h143l225 -277h-133l-164 195l-164 -195h-133zM154 0v983h143v-983h-143z" />
<glyph unicode="&#xef;" horiz-adv-x="471" d="M-61 1290q0 38 27 65t65 27t65 -27t27 -65t-27 -65t-65 -27t-65 27t-27 65zM154 0v983h143v-983h-143zM328 1290q0 38 27 65t65 27t65 -27t27 -65t-27 -65t-65 -27t-65 27t-27 65z" />
<glyph unicode="&#xf0;" horiz-adv-x="1218" d="M82 471q0 207 142 349.5t349 142.5q82 0 153.5 -23.5t102.5 -46.5l31 -23h10q-23 63 -61 129.5t-75.5 116.5t-72 90.5t-55.5 61.5l-22 22l-215 -123l-72 72l215 123q-112 103 -225 164l133 61q55 -36 108.5 -77t79.5 -64l27 -23l205 113l71 -72l-204 -112q8 -7 21 -20 t51.5 -57t73 -93t77 -126t73 -157t51.5 -185t21 -212q0 -223 -145 -372.5t-357 -149.5q-207 0 -349 142t-142 349zM225 471q0 -153 100.5 -255.5t247.5 -102.5t248 102.5t101 255.5t-101 255.5t-248 102.5t-247.5 -102.5t-100.5 -255.5z" />
<glyph unicode="&#xf1;" d="M154 0v983h143v-143q4 7 12 18t37.5 39t63 50t89 39.5t115.5 17.5q178 0 289 -114.5t111 -305.5v-584h-144v584q0 129 -74.5 207.5t-191.5 78.5q-132 0 -219.5 -91t-87.5 -236v-543h-143zM266 1157q0 118 52 182t133 64q48 0 88.5 -21t63.5 -45.5t53.5 -45.5t60.5 -21 q34 0 58 34t24 99h102q0 -118 -52 -182t-132 -64q-48 0 -88.5 21t-63.5 45.5t-53.5 45.5t-60.5 21q-34 0 -58 -34t-24 -99h-103z" />
<glyph unicode="&#xf2;" d="M82 492q0 141 67.5 259t183 185.5t251.5 67.5t251 -67.5t182.5 -185.5t67.5 -259t-67.5 -259t-182.5 -185.5t-251 -67.5t-251.5 67.5t-183 185.5t-67.5 259zM225 492q0 -159 106 -269t253 -110q148 0 253 109.5t105 269.5t-105 269t-253 109t-253.5 -109t-105.5 -269z M328 1434h153l154 -277h-113z" />
<glyph unicode="&#xf3;" d="M82 492q0 141 67.5 259t183 185.5t251.5 67.5t251 -67.5t182.5 -185.5t67.5 -259t-67.5 -259t-182.5 -185.5t-251 -67.5t-251.5 67.5t-183 185.5t-67.5 259zM225 492q0 -159 106 -269t253 -110q148 0 253 109.5t105 269.5t-105 269t-253 109t-253.5 -109t-105.5 -269z M522 1157l154 277h153l-194 -277h-113z" />
<glyph unicode="&#xf4;" d="M82 492q0 141 67.5 259t183 185.5t251.5 67.5t251 -67.5t182.5 -185.5t67.5 -259t-67.5 -259t-182.5 -185.5t-251 -67.5t-251.5 67.5t-183 185.5t-67.5 259zM225 492q0 -159 106 -269t253 -110q148 0 253 109.5t105 269.5t-105 269t-253 109t-253.5 -109t-105.5 -269z M287 1157l225 277h143l226 -277h-133l-164 195l-164 -195h-133z" />
<glyph unicode="&#xf5;" d="M82 492q0 141 67.5 259t183 185.5t251.5 67.5t251 -67.5t182.5 -185.5t67.5 -259t-67.5 -259t-182.5 -185.5t-251 -67.5t-251.5 67.5t-183 185.5t-67.5 259zM225 492q0 -159 106 -269t253 -110q148 0 253 109.5t105 269.5t-105 269t-253 109t-253.5 -109t-105.5 -269z M266 1157q0 118 52 182t133 64q48 0 88.5 -21t63.5 -45.5t53.5 -45.5t60.5 -21q34 0 58 34t24 99h102q0 -118 -52 -182t-132 -64q-48 0 -88.5 21t-63.5 45.5t-53.5 45.5t-60.5 21q-34 0 -58 -34t-24 -99h-103z" />
<glyph unicode="&#xf6;" d="M82 492q0 141 67.5 259t183 185.5t251.5 67.5t251 -67.5t182.5 -185.5t67.5 -259t-67.5 -259t-182.5 -185.5t-251 -67.5t-251.5 67.5t-183 185.5t-67.5 259zM225 492q0 -159 106 -269t253 -110q148 0 253 109.5t105 269.5t-105 269t-253 109t-253.5 -109t-105.5 -269z M287 1290q0 38 27 65t65 27t65 -27t27 -65t-27 -65t-65 -27t-65 27t-27 65zM676 1290q0 38 27 65t65 27t65 -27t27 -65t-27 -65t-65 -27t-65 27t-27 65z" />
<glyph unicode="&#xf7;" horiz-adv-x="1044" d="M92 532v134h860v-134h-860zM420 236q0 46 28 74t74 28t74.5 -28t28.5 -74t-28.5 -74.5t-74.5 -28.5t-74 28.5t-28 74.5zM420 963q0 46 28 74t74 28t74.5 -28t28.5 -74t-28.5 -74.5t-74.5 -28.5t-74 28.5t-28 74.5z" />
<glyph unicode="&#xf8;" d="M61 41l134 133q-5 5 -12.5 13.5t-27 39t-34.5 65t-27 89t-12 111.5q0 141 67.5 259t183 185.5t251.5 67.5q82 0 156 -26t108 -52l33 -25l133 133l92 -92l-133 -133q5 -5 12.5 -13.5t26.5 -39t34 -64.5t27 -88.5t12 -111.5q0 -141 -67.5 -259t-182.5 -185.5t-251 -67.5 q-52 0 -101.5 10.5t-83 25.5t-60.5 30t-39 26l-13 10l-133 -133zM225 492q0 -59 15.5 -113t31.5 -79l15 -24l501 523q-9 8 -26 20t-70 31.5t-108 19.5q-148 0 -253.5 -109t-105.5 -269zM379 184q3 -3 9.5 -7.5t27 -17t43 -22t57 -17t68.5 -7.5q148 0 253 109.5t105 269.5 q0 37 -6.5 73t-15 60.5t-17.5 44t-15 28.5l-7 9z" />
<glyph unicode="&#xf9;" horiz-adv-x="1198" d="M154 410v573h143v-573q0 -129 79.5 -213t196.5 -84q125 0 211 91.5t86 235.5v543h144v-983h-144v133q-4 -6 -12 -16.5t-37.5 -37t-63 -46.5t-89 -36.5t-115.5 -16.5q-171 0 -285 120t-114 310zM338 1434h154l153 -277h-113z" />
<glyph unicode="&#xfa;" horiz-adv-x="1198" d="M154 410v573h143v-573q0 -129 79.5 -213t196.5 -84q125 0 211 91.5t86 235.5v543h144v-983h-144v133q-4 -6 -12 -16.5t-37.5 -37t-63 -46.5t-89 -36.5t-115.5 -16.5q-171 0 -285 120t-114 310zM512 1157l154 277h153l-194 -277h-113z" />
<glyph unicode="&#xfb;" horiz-adv-x="1198" d="M154 410v573h143v-573q0 -129 79.5 -213t196.5 -84q125 0 211 91.5t86 235.5v543h144v-983h-144v133q-4 -6 -12 -16.5t-37.5 -37t-63 -46.5t-89 -36.5t-115.5 -16.5q-171 0 -285 120t-114 310zM287 1157l225 277h143l226 -277h-133l-164 195l-164 -195h-133z" />
<glyph unicode="&#xfc;" horiz-adv-x="1198" d="M154 410v573h143v-573q0 -129 79.5 -213t196.5 -84q125 0 211 91.5t86 235.5v543h144v-983h-144v133q-4 -6 -12 -16.5t-37.5 -37t-63 -46.5t-89 -36.5t-115.5 -16.5q-171 0 -285 120t-114 310zM287 1280q0 38 27 65t65 27t65 -27t27 -65t-27 -65t-65 -27t-65 27t-27 65z M676 1280q0 38 27 65t65 27t65 -27t27 -65t-27 -65t-65 -27t-65 27t-27 65z" />
<glyph unicode="&#xfd;" horiz-adv-x="1003" d="M20 983h154l318 -799l317 799h154l-451 -1126q-62 -155 -131.5 -221t-175.5 -66q-32 0 -62.5 5t-45.5 10l-15 5v134q51 -21 102 -21q68 0 112.5 38t72.5 116l51 143zM451 1157l153 277h154l-195 -277h-112z" />
<glyph unicode="&#xfe;" horiz-adv-x="1228" d="M164 -430v1864h143v-605q5 7 14.5 19t43 42t71 53t97 42t122.5 19q122 0 230.5 -67.5t174.5 -186t66 -258.5t-66 -258.5t-174.5 -186t-230.5 -67.5q-63 0 -122 18t-98.5 43.5t-69.5 51t-44 43.5l-14 18v-584h-143zM307 492q0 -151 107.5 -265t240.5 -114q127 0 227.5 111 t100.5 268t-100.5 267.5t-227.5 110.5q-133 0 -240.5 -113.5t-107.5 -264.5z" />
<glyph unicode="&#xff;" horiz-adv-x="1003" d="M20 983h154l318 -799l317 799h154l-451 -1126q-62 -155 -131.5 -221t-175.5 -66q-32 0 -62.5 5t-45.5 10l-15 5v134q51 -21 102 -21q68 0 112.5 38t72.5 116l51 143zM195 1290q0 38 27 65t65 27t65 -27t27 -65t-27 -65t-65 -27t-65 27t-27 65zM584 1290q0 38 27 65t65 27 t65 -27t27 -65t-27 -65t-65 -27t-65 27t-27 65z" />
<glyph unicode="&#x152;" horiz-adv-x="2058" d="M123 717q0 147 56.5 280t153 228.5t231.5 152t286 56.5h1096v-144h-738v-471h574v-143h-574v-533h758v-143h-1116q-151 0 -286 56.5t-231.5 152t-153 228.5t-56.5 280zM276 717q0 -121 44 -227.5t120 -182.5t182.5 -120t227.5 -44h205v1147h-205q-162 0 -293.5 -74.5 t-206 -205.5t-74.5 -293z" />
<glyph unicode="&#x153;" horiz-adv-x="1925" d="M82 492q0 140 66.5 258.5t177 186t237.5 67.5q78 0 149 -26.5t116.5 -64t80 -75t49.5 -64.5l15 -26q5 10 14.5 27.5t45.5 61.5t78 78t112.5 61.5t148.5 27.5q92 0 174.5 -37t143.5 -102t97 -159.5t36 -203.5q0 -16 -2.5 -34t-5.5 -28l-3 -10h-768q15 -132 112 -224.5 t226 -92.5q57 0 110 17t87.5 40.5t60.5 47.5t38 41l12 17l92 -92q-5 -8 -16 -22t-48.5 -49t-80 -62t-112 -49t-143.5 -22q-80 0 -152 26.5t-117 64t-78 75t-47 64.5l-15 26q-5 -10 -16 -27.5t-49 -61.5t-81.5 -78t-115 -61.5t-148.5 -27.5q-127 0 -237.5 67.5t-177 186 t-66.5 258.5zM225 492q0 -158 102 -268.5t236 -110.5t236 110.5t102 268.5t-102 268t-236 110t-236 -110t-102 -268zM1044 563h635q-15 138 -99.5 222.5t-207.5 84.5q-122 0 -217.5 -91t-110.5 -216z" />
<glyph unicode="&#x178;" horiz-adv-x="1300" d="M41 1434h174l430 -768h10l430 768h175l-533 -932v-502h-154v502zM369 1751q0 38 27 65t65 27t65 -27t27 -65t-27 -65t-65 -27t-65 27t-27 65zM758 1751q0 38 27 65t65 27t65 -27t27 -65t-27 -65t-65 -27t-65 27t-27 65z" />
<glyph unicode="&#x2c6;" horiz-adv-x="716" d="M61 1157l226 277h143l225 -277h-133l-164 195l-163 -195h-134z" />
<glyph unicode="&#x2dc;" horiz-adv-x="757" d="M61 1178q0 118 52 181.5t133 63.5q48 0 88.5 -21t63.5 -45.5t53.5 -45.5t60.5 -21q34 0 58 34t24 99h102q0 -118 -52 -181.5t-132 -63.5q-48 0 -88.5 21t-63.5 45.5t-53.5 45.5t-60.5 21q-34 0 -58 -34t-24 -99h-103z" />
<glyph unicode="&#x2000;" horiz-adv-x="978" />
<glyph unicode="&#x2001;" horiz-adv-x="1956" />
<glyph unicode="&#x2002;" horiz-adv-x="978" />
<glyph unicode="&#x2003;" horiz-adv-x="1956" />
<glyph unicode="&#x2004;" horiz-adv-x="652" />
<glyph unicode="&#x2005;" horiz-adv-x="489" />
<glyph unicode="&#x2006;" horiz-adv-x="326" />
<glyph unicode="&#x2007;" horiz-adv-x="326" />
<glyph unicode="&#x2008;" horiz-adv-x="244" />
<glyph unicode="&#x2009;" horiz-adv-x="391" />
<glyph unicode="&#x200a;" horiz-adv-x="108" />
<glyph unicode="&#x2010;" horiz-adv-x="870" d="M92 543v133h686v-133h-686z" />
<glyph unicode="&#x2011;" horiz-adv-x="870" d="M92 543v133h686v-133h-686z" />
<glyph unicode="&#x2012;" horiz-adv-x="870" d="M92 543v133h686v-133h-686z" />
<glyph unicode="&#x2013;" horiz-adv-x="983" d="M92 532v134h799v-134h-799z" />
<glyph unicode="&#x2014;" horiz-adv-x="1474" d="M92 532v134h1290v-134h-1290z" />
<glyph unicode="&#x2018;" horiz-adv-x="430" d="M51 1106l236 369l92 -52l-195 -399z" />
<glyph unicode="&#x2019;" horiz-adv-x="430" d="M51 1075l195 400l133 -82l-236 -369z" />
<glyph unicode="&#x201a;" horiz-adv-x="440" d="M0 -215l184 399l144 -82l-236 -358z" />
<glyph unicode="&#x201c;" horiz-adv-x="747" d="M51 1106l236 369l92 -52l-195 -399zM369 1106l235 369l92 -52l-194 -399z" />
<glyph unicode="&#x201d;" horiz-adv-x="747" d="M51 1075l195 400l133 -82l-236 -369zM369 1075l194 400l133 -82l-235 -369z" />
<glyph unicode="&#x201e;" horiz-adv-x="757" d="M0 -215l184 399l144 -82l-236 -358zM317 -215l185 399l143 -82l-235 -358z" />
<glyph unicode="&#x2022;" horiz-adv-x="819" d="M215 492q0 76 59 135t136 59q76 0 135 -59t59 -135q0 -77 -59 -136t-135 -59t-135.5 59.5t-59.5 135.5z" />
<glyph unicode="&#x2026;" horiz-adv-x="1372" d="M123 82q0 46 28 74t74 28t74.5 -28t28.5 -74t-28.5 -74t-74.5 -28t-74 28t-28 74zM584 82q0 46 28 74t74 28t74 -28t28 -74t-28 -74t-74 -28t-74 28t-28 74zM1044 82q0 46 28.5 74t74.5 28t74 -28t28 -74t-28 -74t-74 -28t-74.5 28t-28.5 74z" />
<glyph unicode="&#x202f;" horiz-adv-x="391" />
<glyph unicode="&#x2039;" horiz-adv-x="573" d="M92 492l246 337h143l-235 -337l235 -338h-143z" />
<glyph unicode="&#x203a;" horiz-adv-x="573" d="M92 154l236 338l-236 337h144l245 -337l-245 -338h-144z" />
<glyph unicode="&#x205f;" horiz-adv-x="489" />
<glyph unicode="&#x20ac;" horiz-adv-x="1515" d="M82 481v133h184v205h-184v133h205q31 98 91.5 187t143 160t192 113t228.5 42q88 0 170 -23t136 -56t95.5 -66.5t60.5 -56.5l19 -23l-102 -103q-6 8 -16.5 20t-47 44t-77.5 56.5t-105.5 44.5t-132.5 20q-88 0 -174 -34.5t-149 -87.5t-107.5 -115.5t-60.5 -121.5h471v-133 h-502v-205h502v-133h-471q16 -59 60.5 -121t107.5 -115.5t149 -87.5t174 -34q68 0 133 19t109 46t79 54t51 46l17 19l103 -102q-7 -9 -21 -24t-61.5 -54t-100.5 -68.5t-137 -54t-172 -24.5q-119 0 -228.5 42t-192 113t-143 159.5t-91.5 186.5h-205z" />
<glyph unicode="&#x2122;" horiz-adv-x="1361" d="M20 1331v103h482v-103h-185v-512h-112v512h-185zM614 819v615h103l215 -287l215 287h102v-615h-112v410l-205 -266l-205 266v-410h-113z" />
<glyph unicode="&#x25fc;" horiz-adv-x="983" d="M0 0v983h983v-983h-983z" />
<glyph unicode="&#xfb02;" horiz-adv-x="1126" d="M51 850v133h154v104q0 153 107.5 260t260.5 107q154 0 261.5 -107.5t107.5 -259.5v-1087h-143v1087q0 98 -66.5 166t-159.5 68t-159 -68t-66 -166v-104h236v-133h-236v-850h-143v850h-154z" />
</font>
</defs>
</svg>
