<?xml version="1.0" encoding="UTF-8"?>
<svg width="14px" height="19px" viewBox="0 0 14 19" version="1.1" xmlns="http://www.w3.org/2000/svg" xmlns:xlink="http://www.w3.org/1999/xlink">
    <title>book</title>
    <g id="Symbols" stroke="none" stroke-width="1" fill="none" fill-rule="evenodd">
        <g id="Menu-resize" transform="translate(-564.000000, -50.000000)">
            <polygon id="Rectangle" fill="#FFFFFF" points="0 0 1600 0 1600 175 0 175"></polygon>
            <g id="book" transform="translate(564.000000, 50.000000)" fill="#024D77" fill-rule="nonzero">
                <path d="M14.0003797,5.45035462 L14.0003797,15.8013546 C14.0003797,16.3233546 13.5483797,16.5723546 13.0003797,16.9613546 C12.5603797,17.2743546 12.0003797,16.8863546 12.0003797,16.3743546 L12.0003797,6.26035462 C12.0003797,6.04935462 11.9263797,5.84835462 11.6863797,5.72535462 C11.4463797,5.60235462 3.94837973,1.66035462 3.94837973,1.66035462 C3.82737973,1.61535462 3.29937973,1.28235462 2.59537973,1.64435462 C1.92637973,1.98835462 1.56237973,2.36235462 1.46937973,2.53835462 L9.64937973,7.02035462 C9.86637973,7.13435462 10.0003797,7.31035462 10.0003797,7.53635462 L10.0003797,18.3383546 C9.99531932,18.5866763 9.85330338,18.8118236 9.63137973,18.9233546 C9.52783443,18.9744459 9.41384291,19.0008043 9.29837973,19.0004063 C9.16258221,19.0019643 9.02898713,18.9659698 8.91237973,18.8963546 C8.69737973,18.7653546 1.13837973,14.1303546 0.639379732,13.8293546 C0.399379732,13.6853546 0.118379732,13.3903546 0.112379732,13.1713546 L0.000379732218,2.88535462 C0.000379732218,2.68735462 -0.0226202678,2.33835462 0.289379732,1.85335462 C0.986379732,0.769354619 3.41837973,-0.463645381 4.64937973,0.175354619 L13.6483797,4.73035462 C13.8653797,4.84235462 14.0003797,5.06635462 14.0003797,5.45035462 Z" id="Path"></path>
            </g>
        </g>
    </g>
</svg>