<?xml version="1.0" encoding="UTF-8"?>
<svg width="15px" height="17px" viewBox="0 0 15 17" version="1.1" xmlns="http://www.w3.org/2000/svg" xmlns:xlink="http://www.w3.org/1999/xlink">
    <title>share</title>
    <g id="Page-1" stroke="none" stroke-width="1" fill="none" fill-rule="evenodd">
        <g id="Blog-Detail-V2" transform="translate(-1029.000000, -1052.000000)">
            <polygon id="Rectangle" fill="#FFFFFF" points="60 761 1540 761 1540 2340 60 2340"></polygon>
            <g id="share" transform="translate(1029.000000, 1052.000000)" fill="#E6552F" fill-rule="nonzero">
                <path d="M12.5,11.742 C11.867,11.742 11.296,11.988 10.863,12.384 L4.925,8.921 C4.971,8.733 5,8.537 5,8.337 C5,8.137 4.971,7.942 4.925,7.754 L10.8,4.325 C11.2599637,4.75838481 11.8680277,4.99982201 12.5,5 C13.879,5 15,3.879 15,2.5 C15,1.121 13.879,0 12.5,0 C11.121,0 10,1.121 10,2.5 C10,2.7 10.029,2.896 10.075,3.083 L4.2,6.512 C3.7397607,6.07904842 3.13187564,5.83768229 2.5,5.837 C1.121,5.837 0,6.958 0,8.337 C0,9.716 1.121,10.837 2.5,10.837 C3.13197227,10.836822 3.74003632,10.5953848 4.2,10.162 L10.138,13.625 C10.0942682,13.8037311 10.0717793,13.9869982 10.071,14.171 C10.0715523,15.5116869 11.1586462,16.5981839 12.4993332,16.5979998 C13.8400202,16.5978157 14.9268157,15.5110202 14.9269998,14.1703332 C14.9271839,12.8296462 13.8406869,11.7425523 12.5,11.742 Z" id="Path"></path>
            </g>
        </g>
    </g>
</svg>