<?xml version="1.0" encoding="UTF-8"?>
<svg width="18px" height="16px" viewBox="0 0 18 16" version="1.1" xmlns="http://www.w3.org/2000/svg" xmlns:xlink="http://www.w3.org/1999/xlink">
    <title>Page 1</title>
    <g id="Page-1" stroke="none" stroke-width="1" fill="none" fill-rule="evenodd">
        <g id="Blog-Detail-V2" transform="translate(-743.000000, -1053.000000)">
            <polygon id="Rectangle" fill="#FFFFFF" points="60 761 1540 761 1540 2340 60 2340"></polygon>
            <g id="Group-7" transform="translate(743.000000, 1036.200000)" fill="#052A3A">
                <polygon id="Rectangle-Copy-2" transform="translate(9.000000, 22.300000) rotate(-90.000000) translate(-9.000000, -22.300000) " points="8.5 13.3 9.5 13.3 9.5 31.3 8.5 31.3"></polygon>
                <polygon id="Rectangle-Copy-2" transform="translate(9.000000, 27.300000) rotate(-90.000000) translate(-9.000000, -27.300000) " points="8.5 18.3 9.5 18.3 9.5 36.3 8.5 36.3"></polygon>
                <polygon id="Rectangle-Copy-2" transform="translate(9.000000, 32.300000) rotate(-90.000000) translate(-9.000000, -32.300000) " points="8.5 23.3 9.5 23.3 9.5 41.3 8.5 41.3"></polygon>
                <polygon id="Rectangle-Copy-2" transform="translate(12.000000, 17.300000) rotate(-90.000000) translate(-12.000000, -17.300000) " points="11.5 11.3 12.5 11.3 12.5 23.3 11.5 23.3"></polygon>
            </g>
        </g>
    </g>
</svg>