<?xml version="1.0" encoding="UTF-8"?>
<svg width="22px" height="23px" viewBox="0 0 22 23" version="1.1" xmlns="http://www.w3.org/2000/svg" xmlns:xlink="http://www.w3.org/1999/xlink">
    <title>Group 2</title>
    <g id="Page-1" stroke="none" stroke-width="1" fill="none" fill-rule="evenodd">
        <g id="Blog-Detail-V2" transform="translate(-494.000000, -1049.000000)">
            <polygon id="Rectangle" fill="#FFFFFF" points="60 761 1540 761 1540 2340 60 2340"></polygon>
            <g id="Group-3" transform="translate(494.000000, 1035.000000)" fill="#052A3A">
                <g id="Group-2" transform="translate(0.000000, 14.500000)">
                    <path d="M22,2.5 L22,21.5 L0,21.5 L0,2.5 L22,2.5 Z M21,3.5 L1,3.5 L1,20.5 L21,20.5 L21,3.5 Z" id="Rectangle" fill-rule="nonzero"></path>
                    <rect id="Rectangle" x="5" y="0.5" width="1" height="5"></rect>
                    <polygon id="Rectangle-Copy-2" transform="translate(11.000000, 8.000000) rotate(-90.000000) translate(-11.000000, -8.000000) " points="10.5 -2 11.5 -2 11.5 18 10.5 18"></polygon>
                    <rect id="Rectangle" x="16" y="0.5" width="1" height="5"></rect>
                    <rect id="Rectangle" x="8" y="11.5" width="2" height="2"></rect>
                    <rect id="Rectangle-Copy-6" x="8" y="15.5" width="2" height="2"></rect>
                    <rect id="Rectangle-Copy-7" x="4" y="15.5" width="2" height="2"></rect>
                    <rect id="Rectangle-Copy-3" x="12" y="11.5" width="2" height="2"></rect>
                    <rect id="Rectangle-Copy-9" x="12" y="15.5" width="2" height="2"></rect>
                    <rect id="Rectangle-Copy-4" x="16" y="11.5" width="2" height="2"></rect>
                    <rect id="Rectangle-Copy-10" x="16" y="15.5" width="2" height="2"></rect>
                </g>
            </g>
        </g>
    </g>
</svg>