<?xml version="1.0" encoding="UTF-8"?>
<svg width="66px" height="66px" viewBox="0 0 66 66" version="1.1" xmlns="http://www.w3.org/2000/svg" xmlns:xlink="http://www.w3.org/1999/xlink">
    <!-- Generator: Sketch 64 (93537) - https://sketch.com -->
    <title>error</title>
    <desc>Created with Sketch.</desc>
    <g id="Desktop-all-page" stroke="none" stroke-width="1" fill="none" fill-rule="evenodd">
        <g id="404-page" transform="translate(-767.000000, -366.000000)" fill="#878A9D" fill-rule="nonzero">
            <g id="error" transform="translate(767.000000, 366.000000)">
                <path d="M36.9600002,28.7466668 L28.7466668,28.7466668 C28.1801955,28.7466668 27.7200001,29.2078647 27.7200001,29.7733335 C27.7200001,30.3388022 28.1801955,30.8000001 28.7466668,30.8000001 L36.9600002,30.8000001 C37.5264714,30.8000001 37.9866668,30.3388022 37.9866668,29.7733335 C37.9866668,29.2078647 37.5264714,28.7466668 36.9600002,28.7466668 Z" id="Path"></path>
                <polygon id="Path" points="30.8000001 14.3733334 34.9066668 14.3733334 34.9066668 22.5866668 30.8000001 22.5866668"></polygon>
                <polygon id="Path" points="23.6133334 14.3733334 23.1360938 14.3733334 19.7142059 19.5066667 23.6133334 19.5066667"></polygon>
                <polygon id="Path" points="41.274206 19.5066667 45.1733335 19.5066667 45.1733335 14.3733334 44.6960939 14.3733334"></polygon>
                <path d="M8.21333337,9.27057943 L8.21333337,39.0133335 L57.4933336,39.0133335 L57.4933336,9.27057943 L8.21333337,9.27057943 Z M28.7466668,14.3733334 C28.7466668,13.240892 29.6675587,12.3200001 30.8000001,12.3200001 L34.9066668,12.3200001 C36.0391083,12.3200001 36.9600002,13.240892 36.9600002,14.3733334 L36.9600002,22.5866668 C36.9600002,23.7191082 36.0391083,24.6400001 34.9066668,24.6400001 L30.8000001,24.6400001 C29.6675587,24.6400001 28.7466668,23.7191082 28.7466668,22.5866668 L28.7466668,14.3733334 Z M18.4800001,21.5600001 C17.9120248,21.5600001 17.4533334,21.0998047 17.4533334,20.5333334 L17.4533334,19.5066667 C17.4533334,19.304642 17.5139909,19.1051238 17.6257813,18.9366863 L21.732448,12.7766863 C21.9234441,12.4914454 22.2437761,12.3200001 22.5866668,12.3200001 L24.6400001,12.3200001 C25.2079753,12.3200001 25.6666668,12.7801954 25.6666668,13.3466667 L25.6666668,19.5066667 L26.6933334,19.5066667 L26.6933334,21.5600001 L25.6666668,21.5600001 L25.6666668,24.6400001 L23.6133334,24.6400001 L23.6133334,21.5600001 L18.4800001,21.5600001 Z M36.9600002,32.8533335 L28.7466668,32.8533335 C27.0487566,32.8533335 25.6666668,31.4712437 25.6666668,29.7733335 C25.6666668,28.0754233 27.0487566,26.6933334 28.7466668,26.6933334 L36.9600002,26.6933334 C38.6579104,26.6933334 40.0400002,28.0754233 40.0400002,29.7733335 C40.0400002,31.4712437 38.6579104,32.8533335 36.9600002,32.8533335 Z M48.2533335,21.5600001 L47.2266669,21.5600001 L47.2266669,24.6400001 L45.1733335,24.6400001 L45.1733335,21.5600001 L40.0400002,21.5600001 C39.4720249,21.5600001 39.0133335,21.0998047 39.0133335,20.5333334 L39.0133335,19.5066667 C39.0133335,19.304642 39.073991,19.1051238 39.1857814,18.9366863 L43.2924481,12.7766863 C43.4834442,12.4914454 43.8037762,12.3200001 44.1466669,12.3200001 L46.2000002,12.3200001 C46.7679754,12.3200001 47.2266669,12.7801954 47.2266669,13.3466667 L47.2266669,19.5066667 L48.2533335,19.5066667 L48.2533335,21.5600001 Z" id="Shape"></path>
                <path d="M56.4666669,0 L9.24000004,0 C8.67202481,0 8.21333337,0.460195379 8.21333337,1.02666667 L8.21333337,7.21724609 L57.4933336,7.21724609 L57.4933336,1.02666667 C57.4933336,0.460195379 57.0346421,0 56.4666669,0 Z M16.4266667,5.13333336 L14.3733334,5.13333336 L14.3733334,3.08000001 L16.4266667,3.08000001 L16.4266667,5.13333336 Z M20.5333334,5.13333336 L18.4800001,5.13333336 L18.4800001,3.08000001 L20.5333334,3.08000001 L20.5333334,5.13333336 Z M24.6400001,5.13333336 L22.5866668,5.13333336 L22.5866668,3.08000001 L24.6400001,3.08000001 L24.6400001,5.13333336 Z M51.3333336,5.13333336 L45.1733335,5.13333336 L45.1733335,3.08000001 L51.3333336,3.08000001 L51.3333336,5.13333336 Z" id="Shape"></path>
                <path d="M59.5466669,39.0133335 L65.7066669,39.0133335 L65.7066669,12.3200001 C65.7066669,11.1875586 64.785775,10.2666667 63.6533336,10.2666667 L59.5466669,10.2666667 L59.5466669,39.0133335 Z" id="Path"></path>
                <path d="M6.16000003,39.0133335 L6.16000003,10.2666667 L2.05333334,10.2666667 C0.920891899,10.2666667 0,11.1875586 0,12.3200001 L0,39.0133335 L6.16000003,39.0133335 Z" id="Path"></path>
                <path d="M44.8725523,59.8474482 C44.6805535,59.6544469 44.4198765,59.5466669 44.1466669,59.5466669 L21.5600001,59.5466669 C21.2867905,59.5466669 21.0261134,59.6544469 20.8341147,59.8474482 L18.7807813,61.9007815 C18.5877801,62.0927802 18.4800001,62.3544599 18.4800001,62.6266669 L18.4800001,64.6800003 C18.4800001,65.2464716 18.9386915,65.7066669 19.5066667,65.7066669 L46.2000002,65.7066669 C46.7679754,65.7066669 47.2266669,65.2464716 47.2266669,64.6800003 L47.2266669,62.6266669 C47.2266669,62.3544599 47.1188869,62.0927802 46.9258856,61.9007815 L44.8725523,59.8474482 Z" id="Path"></path>
                <path d="M0,41.0666668 L0,48.2533335 C0,49.385775 0.920891899,50.3066669 2.05333334,50.3066669 L63.6533336,50.3066669 C64.785775,50.3066669 65.7066669,49.385775 65.7066669,48.2533335 L65.7066669,41.0666668 L0,41.0666668 Z M35.9333335,46.2000002 L29.7733335,46.2000002 L29.7733335,44.1466669 L35.9333335,44.1466669 L35.9333335,46.2000002 Z" id="Shape"></path>
                <polygon id="Path" points="39.4033465 51.3333336 33.8810027 51.3333336 33.8800001 54.4133336 34.9066668 54.4133336 34.9066668 56.4666669 30.8000001 56.4666669 30.8000001 54.4133336 31.8266668 54.4133336 31.8276693 51.3333336 26.3033205 51.3333336 24.9974285 58.5200002 40.7092385 58.5200002"></polygon>
            </g>
        </g>
    </g>
</svg>