<?xml version="1.0" encoding="UTF-8"?>
<svg width="108px" height="58px" viewBox="0 0 108 58" version="1.1" xmlns="http://www.w3.org/2000/svg" xmlns:xlink="http://www.w3.org/1999/xlink">
    <!-- Generator: Sketch 64 (93537) - https://sketch.com -->
    <title>Nut</title>
    <desc>Created with Sketch.</desc>
    <g id="Desktop-all-page" stroke="none" stroke-width="1" fill="none" fill-rule="evenodd">
        <g id="404-page-copy" transform="translate(-748.000000, -378.000000)" fill="#878A9D">
            <g id="Nut" transform="translate(748.000000, 378.000000)">
                <g id="screw" transform="translate(0.462000, 0.000000)">
                    <polygon id="Path" fill-rule="nonzero" points="37.6200015 12.5452805 51.936625 12.5452805 51.936625 19.4451848 37.6200015 19.4451848"></polygon>
                    <polygon id="Path" fill-rule="nonzero" points="41.3835856 23.1660009 48.2676138 23.1660009 48.2676138 26.7300011 41.3835856 26.7300011"></polygon>
                    <polygon id="Path-Copy" fill-rule="nonzero" points="41.3835856 30.2940012 48.2676138 30.2940012 48.2676138 33.8580013 41.3835856 33.8580013"></polygon>
                    <polygon id="Path-Copy-2" fill-rule="nonzero" points="41.3835856 37.4220015 48.2676138 37.4220015 48.2676138 40.9860016 41.3835856 40.9860016"></polygon>
                    <polygon id="Path-Copy-3" fill-rule="nonzero" points="41.3835856 44.5500018 48.2676138 44.5500018 48.2676138 48.1140019 41.3835856 48.1140019"></polygon>
                    <polygon id="Path-Copy-4" fill-rule="nonzero" points="41.3835856 51.6780021 48.2676138 51.6780021 48.2676138 55.2420022 41.3835856 55.2420022"></polygon>
                    <polygon id="Path" fill-rule="nonzero" points="70.2377308 53.1267539 72.7467869 57.3093504 75.255843 53.1267539 75.255843 47.5491221 70.2377308 49.556367"></polygon>
                    <polygon id="Path" fill-rule="nonzero" points="70.2377308 46.0700336 75.255843 44.0627887 75.255843 40.4924019 70.2377308 42.4996467"></polygon>
                    <polygon id="Path" fill-rule="nonzero" points="70.2377308 39.7973933 75.255843 37.7901484 75.255843 34.2197616 70.2377308 36.2270065"></polygon>
                    <polygon id="Path" fill-rule="nonzero" points="70.2377308 20.9794726 75.255843 18.9722277 75.255843 12.5452805 70.2377308 12.5452805"></polygon>
                    <polygon id="Path" fill-rule="nonzero" points="95.3282918 34.7792811 100.346404 32.7720362 100.346404 29.2016494 95.3282918 31.2088943"></polygon>
                    <polygon id="Path" fill-rule="nonzero" points="95.3282918 28.5066409 100.346404 26.499396 100.346404 22.9290092 95.3282918 24.936254"></polygon>
                    <polygon id="Path" fill-rule="nonzero" points="95.3282918 41.0519214 100.346404 39.0446765 100.346404 35.4742897 95.3282918 37.4815345"></polygon>
                    <polygon id="Path" fill-rule="nonzero" points="95.3282918 47.3245616 100.346404 45.3173167 100.346404 41.7469299 95.3282918 43.7541748"></polygon>
                    <polygon id="Path" fill-rule="nonzero" points="95.3282918 22.2340006 100.346404 20.2267557 100.346404 16.6563689 95.3282918 18.6636138"></polygon>
                    <polygon id="Path" fill-rule="nonzero" points="95.3282918 15.9613604 100.346404 13.9541155 100.346404 7.5271683 95.3282918 7.5271683"></polygon>
                    <polygon id="Path" fill-rule="nonzero" points="70.2377308 33.5247531 75.255843 31.5175082 75.255843 27.9471214 70.2377308 29.9543662"></polygon>
                    <polygon id="Path" fill-rule="nonzero" points="91.0854779 5.0181122 104.589218 5.0181122 107.098274 0 88.5764218 0"></polygon>
                    <polygon id="Path" fill-rule="nonzero" points="70.2377308 27.2521128 75.255843 25.2448679 75.255843 21.6744811 70.2377308 23.681726"></polygon>
                    <path d="M76.510371,5.0181122 L68.9832027,5.0181122 C66.9046326,5.0181122 65.2196186,6.70312622 65.2196186,8.78169635 L65.2196186,10.0362244 L80.2739552,10.0362244 L80.2739552,8.78169635 C80.2739552,6.70312622 78.5889412,5.0181122 76.510371,5.0181122 Z" id="Path" fill-rule="nonzero"></path>
                    <polygon id="Path" fill-rule="nonzero" points="95.3282918 53.1267539 97.8373479 57.3093504 100.346404 53.1267539 100.346404 48.8036502 95.3282918 50.8108951"></polygon>
                    <path d="M21.581119,30.2940012 L28.7100011,42.7662197 L28.7100011,42.7715657 L21.581119,55.2420022 L7.32511844,55.2420022 L0.198000008,42.7680017 L7.32511844,30.2940012 L21.581119,30.2940012 Z M14.4540006,35.6400014 C10.5173147,35.6400014 7.32600029,38.8313158 7.32600029,42.7680017 C7.32600029,46.7046876 10.5173147,49.896002 14.4540006,49.896002 C18.3906864,49.896002 21.5820009,46.7046876 21.5820009,42.7680017 C21.5820009,38.8313158 18.3906864,35.6400014 14.4540006,35.6400014 Z" id="Combined-Shape"></path>
                </g>
            </g>
        </g>
    </g>
</svg>